G75*
%MOIN*%
%OFA0B0*%
%FSLAX24Y24*%
%IPPOS*%
%LPD*%
%AMOC8*
5,1,8,0,0,1.08239X$1,22.5*
%
%ADD10C,0.0100*%
%ADD11R,0.0551X0.0394*%
%ADD12R,0.0394X0.0551*%
%ADD13R,0.0591X0.0512*%
%ADD14R,0.0512X0.0591*%
%ADD15R,0.0524X0.0209*%
%ADD16R,0.0610X0.0394*%
%ADD17C,0.0000*%
%ADD18R,0.0945X0.0945*%
D10*
X004503Y003075D02*
X004503Y022760D01*
X020645Y022760D01*
X020645Y003075D01*
X004503Y003075D01*
D11*
X015400Y010034D03*
X016267Y009660D03*
X016267Y010408D03*
X016267Y012778D03*
X016267Y013526D03*
X015400Y013152D03*
X016267Y015345D03*
X016267Y016093D03*
X015400Y015719D03*
D12*
X013853Y004742D03*
X013479Y003876D03*
X014227Y003876D03*
X008657Y003955D03*
X007909Y003955D03*
X008283Y004821D03*
D13*
X008544Y009301D03*
X008544Y010049D03*
X009371Y010049D03*
X009371Y009301D03*
X010174Y009301D03*
X010174Y010049D03*
X010214Y012411D03*
X011033Y012411D03*
X011033Y013159D03*
X010214Y013159D03*
X009387Y013159D03*
X008568Y013159D03*
X008568Y012411D03*
X009387Y012411D03*
X007757Y012411D03*
X006954Y012411D03*
X006954Y013159D03*
X007757Y013159D03*
X007757Y014911D03*
X007757Y015659D03*
X006954Y015659D03*
X006954Y014911D03*
X008568Y014911D03*
X008568Y015659D03*
X009387Y015659D03*
X009387Y014911D03*
X010214Y014911D03*
X010214Y015659D03*
X012254Y014766D03*
X012254Y014018D03*
X007741Y010049D03*
X007741Y009301D03*
X006954Y009301D03*
X006954Y010049D03*
X007127Y018882D03*
X007127Y019630D03*
X008230Y019631D03*
X008230Y018883D03*
D14*
X009548Y004790D03*
X010296Y004790D03*
X010297Y003988D03*
X009549Y003988D03*
X015218Y004027D03*
X015966Y004027D03*
X015965Y004882D03*
X015217Y004882D03*
D15*
X014437Y013936D03*
X014437Y014436D03*
X014437Y014936D03*
X013177Y014936D03*
X013177Y014436D03*
X013177Y013936D03*
D16*
X013733Y021633D03*
X013733Y022224D03*
X011745Y022224D03*
X011745Y021633D03*
D17*
X012582Y021417D02*
X012584Y021442D01*
X012590Y021466D01*
X012599Y021488D01*
X012612Y021509D01*
X012628Y021528D01*
X012647Y021544D01*
X012668Y021557D01*
X012690Y021566D01*
X012714Y021572D01*
X012739Y021574D01*
X012764Y021572D01*
X012788Y021566D01*
X012810Y021557D01*
X012831Y021544D01*
X012850Y021528D01*
X012866Y021509D01*
X012879Y021488D01*
X012888Y021466D01*
X012894Y021442D01*
X012896Y021417D01*
X012894Y021392D01*
X012888Y021368D01*
X012879Y021346D01*
X012866Y021325D01*
X012850Y021306D01*
X012831Y021290D01*
X012810Y021277D01*
X012788Y021268D01*
X012764Y021262D01*
X012739Y021260D01*
X012714Y021262D01*
X012690Y021268D01*
X012668Y021277D01*
X012647Y021290D01*
X012628Y021306D01*
X012612Y021325D01*
X012599Y021346D01*
X012590Y021368D01*
X012584Y021392D01*
X012582Y021417D01*
X012582Y022440D02*
X012584Y022465D01*
X012590Y022489D01*
X012599Y022511D01*
X012612Y022532D01*
X012628Y022551D01*
X012647Y022567D01*
X012668Y022580D01*
X012690Y022589D01*
X012714Y022595D01*
X012739Y022597D01*
X012764Y022595D01*
X012788Y022589D01*
X012810Y022580D01*
X012831Y022567D01*
X012850Y022551D01*
X012866Y022532D01*
X012879Y022511D01*
X012888Y022489D01*
X012894Y022465D01*
X012896Y022440D01*
X012894Y022415D01*
X012888Y022391D01*
X012879Y022369D01*
X012866Y022348D01*
X012850Y022329D01*
X012831Y022313D01*
X012810Y022300D01*
X012788Y022291D01*
X012764Y022285D01*
X012739Y022283D01*
X012714Y022285D01*
X012690Y022291D01*
X012668Y022300D01*
X012647Y022313D01*
X012628Y022329D01*
X012612Y022348D01*
X012599Y022369D01*
X012590Y022391D01*
X012584Y022415D01*
X012582Y022440D01*
D18*
X014070Y011540D03*
X015802Y011540D03*
M02*
