G75*
%MOIN*%
%OFA0B0*%
%FSLAX24Y24*%
%IPPOS*%
%LPD*%
%AMOC8*
5,1,8,0,0,1.08239X$1,22.5*
%
%ADD10C,0.0100*%
%ADD11R,0.0631X0.0474*%
%ADD12R,0.0474X0.0631*%
%ADD13C,0.0680*%
%ADD14R,0.0680X0.0680*%
%ADD15R,0.0671X0.0592*%
%ADD16R,0.0592X0.0671*%
%ADD17R,0.0604X0.0289*%
%ADD18R,0.0690X0.0474*%
%ADD19C,0.0000*%
%ADD20C,0.0395*%
%ADD21C,0.0820*%
%ADD22C,0.2080*%
%ADD23C,0.0759*%
%ADD24C,0.0615*%
%ADD25C,0.0595*%
%ADD26OC8,0.1330*%
%ADD27R,0.1025X0.1025*%
D10*
X004503Y003075D02*
X004503Y022760D01*
X020645Y022760D01*
X020645Y003075D01*
X004503Y003075D01*
D11*
X015400Y010034D03*
X016267Y009660D03*
X016267Y010408D03*
X016267Y012778D03*
X016267Y013526D03*
X015400Y013152D03*
X016267Y015345D03*
X016267Y016093D03*
X015400Y015719D03*
D12*
X013853Y004742D03*
X013479Y003876D03*
X014227Y003876D03*
X008657Y003955D03*
X007909Y003955D03*
X008283Y004821D03*
D13*
X005995Y004442D03*
X004995Y004442D03*
X004995Y003442D03*
X005995Y003442D03*
X005995Y005442D03*
X005995Y006442D03*
X005995Y007442D03*
X005995Y008442D03*
X004995Y008442D03*
X004995Y007442D03*
X004995Y006442D03*
X004995Y005442D03*
X004995Y009442D03*
X004995Y010442D03*
X004995Y011442D03*
X005995Y011442D03*
X005995Y010442D03*
X005995Y009442D03*
X005995Y012442D03*
X005995Y013442D03*
X005995Y014442D03*
X005995Y015442D03*
X004995Y015442D03*
X004995Y014442D03*
X004995Y013442D03*
X004995Y012442D03*
X004995Y016442D03*
X004995Y017442D03*
X004995Y018442D03*
X004995Y019442D03*
X005995Y019442D03*
X005995Y018442D03*
X005995Y017442D03*
X005995Y016442D03*
X005995Y020442D03*
X005995Y021442D03*
X005995Y022442D03*
X004995Y021442D03*
X004995Y020442D03*
X018995Y020442D03*
X018995Y021442D03*
X019995Y021442D03*
X019995Y022442D03*
X019995Y020442D03*
X019995Y019442D03*
X018995Y019442D03*
X018995Y018442D03*
X019995Y018442D03*
X019995Y017442D03*
X018995Y017442D03*
X018995Y016442D03*
X019995Y016442D03*
X019995Y015442D03*
X018995Y015442D03*
X018995Y014442D03*
X019995Y014442D03*
X019995Y013442D03*
X018995Y013442D03*
X018995Y012442D03*
X019995Y012442D03*
X019995Y011442D03*
X018995Y011442D03*
X018995Y010442D03*
X019995Y010442D03*
X019995Y009442D03*
X018995Y009442D03*
X018995Y008442D03*
X019995Y008442D03*
X019995Y007442D03*
X018995Y007442D03*
X018995Y006442D03*
X019995Y006442D03*
X019995Y005442D03*
X018995Y005442D03*
X018995Y004442D03*
X019995Y004442D03*
X019995Y003442D03*
X018995Y003442D03*
D14*
X018995Y022442D03*
X004995Y022442D03*
D15*
X007127Y019630D03*
X007127Y018882D03*
X008230Y018883D03*
X008230Y019631D03*
X008568Y015659D03*
X008568Y014911D03*
X009387Y014911D03*
X009387Y015659D03*
X010214Y015659D03*
X010214Y014911D03*
X010214Y013159D03*
X011033Y013159D03*
X011033Y012411D03*
X010214Y012411D03*
X009387Y012411D03*
X008568Y012411D03*
X008568Y013159D03*
X009387Y013159D03*
X007757Y013159D03*
X006954Y013159D03*
X006954Y012411D03*
X007757Y012411D03*
X007741Y010049D03*
X007741Y009301D03*
X006954Y009301D03*
X006954Y010049D03*
X008544Y010049D03*
X008544Y009301D03*
X009371Y009301D03*
X009371Y010049D03*
X010174Y010049D03*
X010174Y009301D03*
X012254Y014018D03*
X012254Y014766D03*
X007757Y014911D03*
X007757Y015659D03*
X006954Y015659D03*
X006954Y014911D03*
D16*
X009548Y004790D03*
X010296Y004790D03*
X010297Y003988D03*
X009549Y003988D03*
X015218Y004027D03*
X015966Y004027D03*
X015965Y004882D03*
X015217Y004882D03*
D17*
X014437Y013936D03*
X014437Y014436D03*
X014437Y014936D03*
X013177Y014936D03*
X013177Y014436D03*
X013177Y013936D03*
D18*
X013733Y021633D03*
X013733Y022224D03*
X011745Y022224D03*
X011745Y021633D03*
D19*
X012582Y021417D02*
X012584Y021442D01*
X012590Y021466D01*
X012599Y021488D01*
X012612Y021509D01*
X012628Y021528D01*
X012647Y021544D01*
X012668Y021557D01*
X012690Y021566D01*
X012714Y021572D01*
X012739Y021574D01*
X012764Y021572D01*
X012788Y021566D01*
X012810Y021557D01*
X012831Y021544D01*
X012850Y021528D01*
X012866Y021509D01*
X012879Y021488D01*
X012888Y021466D01*
X012894Y021442D01*
X012896Y021417D01*
X012894Y021392D01*
X012888Y021368D01*
X012879Y021346D01*
X012866Y021325D01*
X012850Y021306D01*
X012831Y021290D01*
X012810Y021277D01*
X012788Y021268D01*
X012764Y021262D01*
X012739Y021260D01*
X012714Y021262D01*
X012690Y021268D01*
X012668Y021277D01*
X012647Y021290D01*
X012628Y021306D01*
X012612Y021325D01*
X012599Y021346D01*
X012590Y021368D01*
X012584Y021392D01*
X012582Y021417D01*
X012582Y022440D02*
X012584Y022465D01*
X012590Y022489D01*
X012599Y022511D01*
X012612Y022532D01*
X012628Y022551D01*
X012647Y022567D01*
X012668Y022580D01*
X012690Y022589D01*
X012714Y022595D01*
X012739Y022597D01*
X012764Y022595D01*
X012788Y022589D01*
X012810Y022580D01*
X012831Y022567D01*
X012850Y022551D01*
X012866Y022532D01*
X012879Y022511D01*
X012888Y022489D01*
X012894Y022465D01*
X012896Y022440D01*
X012894Y022415D01*
X012888Y022391D01*
X012879Y022369D01*
X012866Y022348D01*
X012850Y022329D01*
X012831Y022313D01*
X012810Y022300D01*
X012788Y022291D01*
X012764Y022285D01*
X012739Y022283D01*
X012714Y022285D01*
X012690Y022291D01*
X012668Y022300D01*
X012647Y022313D01*
X012628Y022329D01*
X012612Y022348D01*
X012599Y022369D01*
X012590Y022391D01*
X012584Y022415D01*
X012582Y022440D01*
D20*
X012739Y022440D03*
X012739Y021417D03*
D21*
X012351Y008096D03*
X011449Y008096D03*
X010548Y008096D03*
X010996Y007096D03*
X011898Y007096D03*
X012800Y007096D03*
X013701Y007096D03*
X014603Y007096D03*
X014154Y008096D03*
X013252Y008096D03*
X013252Y006096D03*
X012351Y006096D03*
X011449Y006096D03*
X010548Y006096D03*
X014154Y006096D03*
D22*
X017374Y007096D03*
X007532Y007096D03*
D23*
X008204Y022170D03*
X010960Y022170D03*
D24*
X010566Y021136D03*
X008598Y021136D03*
D25*
X012186Y019049D02*
X012186Y018534D01*
X017386Y018534D02*
X017386Y019049D01*
X017386Y011749D02*
X017386Y011234D01*
X012186Y011234D02*
X012186Y011749D01*
D26*
X015330Y021737D03*
X017298Y021776D03*
D27*
X015802Y011540D03*
X014070Y011540D03*
M02*
