G75*
%MOIN*%
%OFA0B0*%
%FSLAX24Y24*%
%IPPOS*%
%LPD*%
%AMOC8*
5,1,8,0,0,1.08239X$1,22.5*
%
%ADD10C,0.0100*%
%ADD11R,0.0551X0.0394*%
%ADD12R,0.0394X0.0551*%
%ADD13C,0.0600*%
%ADD14R,0.0600X0.0600*%
%ADD15R,0.0591X0.0512*%
%ADD16R,0.0512X0.0591*%
%ADD17R,0.0524X0.0209*%
%ADD18R,0.0610X0.0394*%
%ADD19C,0.0000*%
%ADD20C,0.0740*%
%ADD21C,0.2000*%
%ADD22C,0.0679*%
%ADD23C,0.0535*%
%ADD24C,0.0515*%
%ADD25OC8,0.1250*%
%ADD26R,0.0945X0.0945*%
%ADD27R,0.0421X0.0004*%
%ADD28R,0.0465X0.0004*%
%ADD29R,0.0492X0.0004*%
%ADD30R,0.0516X0.0004*%
%ADD31R,0.0531X0.0004*%
%ADD32R,0.0547X0.0004*%
%ADD33R,0.0563X0.0004*%
%ADD34R,0.0575X0.0004*%
%ADD35R,0.0587X0.0004*%
%ADD36R,0.0598X0.0004*%
%ADD37R,0.0610X0.0004*%
%ADD38R,0.0618X0.0004*%
%ADD39R,0.0626X0.0004*%
%ADD40R,0.0638X0.0004*%
%ADD41R,0.0646X0.0004*%
%ADD42R,0.0650X0.0004*%
%ADD43R,0.0657X0.0004*%
%ADD44R,0.0665X0.0004*%
%ADD45R,0.0673X0.0004*%
%ADD46R,0.0677X0.0004*%
%ADD47R,0.0685X0.0004*%
%ADD48R,0.0689X0.0004*%
%ADD49R,0.0693X0.0004*%
%ADD50R,0.0701X0.0004*%
%ADD51R,0.0705X0.0004*%
%ADD52R,0.0709X0.0004*%
%ADD53R,0.0717X0.0004*%
%ADD54R,0.0720X0.0004*%
%ADD55R,0.0724X0.0004*%
%ADD56R,0.0728X0.0004*%
%ADD57R,0.0732X0.0004*%
%ADD58R,0.0736X0.0004*%
%ADD59R,0.0740X0.0004*%
%ADD60R,0.0744X0.0004*%
%ADD61R,0.0748X0.0004*%
%ADD62R,0.0752X0.0004*%
%ADD63R,0.0756X0.0004*%
%ADD64R,0.0760X0.0004*%
%ADD65R,0.0764X0.0004*%
%ADD66R,0.0768X0.0004*%
%ADD67R,0.0772X0.0004*%
%ADD68R,0.0776X0.0004*%
%ADD69R,0.0780X0.0004*%
%ADD70R,0.0783X0.0004*%
%ADD71R,0.0787X0.0004*%
%ADD72R,0.0791X0.0004*%
%ADD73R,0.0795X0.0004*%
%ADD74R,0.0799X0.0004*%
%ADD75R,0.0803X0.0004*%
%ADD76R,0.0807X0.0004*%
%ADD77R,0.0811X0.0004*%
%ADD78R,0.0815X0.0004*%
%ADD79R,0.0819X0.0004*%
%ADD80R,0.0823X0.0004*%
%ADD81R,0.0827X0.0004*%
%ADD82R,0.0831X0.0004*%
%ADD83R,0.0835X0.0004*%
%ADD84R,0.0839X0.0004*%
%ADD85R,0.0909X0.0004*%
%ADD86R,0.0937X0.0004*%
%ADD87R,0.0953X0.0004*%
%ADD88R,0.0961X0.0004*%
%ADD89R,0.0969X0.0004*%
%ADD90R,0.0976X0.0004*%
%ADD91R,0.0980X0.0004*%
%ADD92R,0.0984X0.0004*%
%ADD93R,0.0965X0.0004*%
%ADD94R,0.0957X0.0004*%
%ADD95R,0.0945X0.0004*%
%ADD96R,0.0921X0.0004*%
%ADD97R,0.0232X0.0004*%
%ADD98R,0.0555X0.0004*%
%ADD99R,0.0224X0.0004*%
%ADD100R,0.0543X0.0004*%
%ADD101R,0.0539X0.0004*%
%ADD102R,0.0220X0.0004*%
%ADD103R,0.0535X0.0004*%
%ADD104R,0.0528X0.0004*%
%ADD105R,0.0520X0.0004*%
%ADD106R,0.0512X0.0004*%
%ADD107R,0.0500X0.0004*%
%ADD108R,0.0488X0.0004*%
%ADD109R,0.0484X0.0004*%
%ADD110R,0.0476X0.0004*%
%ADD111R,0.0449X0.0004*%
%ADD112R,0.0370X0.0004*%
%ADD113R,0.0043X0.0004*%
%ADD114R,0.0228X0.0004*%
%ADD115R,0.0358X0.0004*%
%ADD116R,0.0350X0.0004*%
%ADD117R,0.0343X0.0004*%
%ADD118R,0.0331X0.0004*%
%ADD119R,0.0319X0.0004*%
%ADD120R,0.0311X0.0004*%
%ADD121R,0.0307X0.0004*%
%ADD122R,0.0303X0.0004*%
%ADD123R,0.0063X0.0004*%
%ADD124R,0.0130X0.0004*%
%ADD125R,0.0445X0.0004*%
%ADD126R,0.0437X0.0004*%
%ADD127R,0.0433X0.0004*%
%ADD128R,0.0362X0.0004*%
%ADD129R,0.0047X0.0004*%
%ADD130R,0.0354X0.0004*%
%ADD131R,0.0031X0.0004*%
%ADD132R,0.0346X0.0004*%
%ADD133R,0.0339X0.0004*%
%ADD134R,0.0055X0.0004*%
%ADD135R,0.0177X0.0004*%
%ADD136R,0.0035X0.0004*%
%ADD137R,0.0161X0.0004*%
%ADD138R,0.0051X0.0004*%
%ADD139R,0.0142X0.0004*%
%ADD140R,0.0118X0.0004*%
%ADD141R,0.0091X0.0004*%
%ADD142R,0.0024X0.0004*%
%ADD143R,0.0020X0.0004*%
%ADD144R,0.0008X0.0004*%
%ADD145R,0.0004X0.0004*%
%ADD146R,0.0012X0.0004*%
%ADD147R,0.0028X0.0004*%
%ADD148R,0.0059X0.0004*%
%ADD149R,0.0067X0.0004*%
%ADD150R,0.0075X0.0004*%
%ADD151R,0.0083X0.0004*%
%ADD152R,0.0098X0.0004*%
%ADD153R,0.0106X0.0004*%
%ADD154R,0.0114X0.0004*%
%ADD155R,0.0122X0.0004*%
%ADD156R,0.0138X0.0004*%
%ADD157R,0.0146X0.0004*%
%ADD158R,0.0154X0.0004*%
%ADD159R,0.0165X0.0004*%
%ADD160R,0.0169X0.0004*%
%ADD161R,0.0185X0.0004*%
%ADD162R,0.0189X0.0004*%
%ADD163R,0.0193X0.0004*%
%ADD164R,0.0201X0.0004*%
%ADD165R,0.0209X0.0004*%
%ADD166R,0.0213X0.0004*%
%ADD167R,0.0217X0.0004*%
%ADD168R,0.0236X0.0004*%
%ADD169R,0.0240X0.0004*%
%ADD170R,0.0248X0.0004*%
%ADD171R,0.0256X0.0004*%
%ADD172R,0.0264X0.0004*%
%ADD173R,0.0272X0.0004*%
%ADD174R,0.0280X0.0004*%
%ADD175R,0.0287X0.0004*%
%ADD176R,0.0295X0.0004*%
%ADD177R,0.0299X0.0004*%
%ADD178R,0.0126X0.0004*%
%ADD179R,0.0157X0.0004*%
%ADD180R,0.0134X0.0004*%
%ADD181R,0.0173X0.0004*%
%ADD182R,0.0366X0.0004*%
%ADD183R,0.0374X0.0004*%
%ADD184R,0.0382X0.0004*%
%ADD185R,0.0390X0.0004*%
%ADD186R,0.0394X0.0004*%
%ADD187R,0.0398X0.0004*%
%ADD188R,0.0406X0.0004*%
%ADD189R,0.0409X0.0004*%
%ADD190R,0.0417X0.0004*%
%ADD191R,0.0429X0.0004*%
%ADD192R,0.0441X0.0004*%
%ADD193R,0.0453X0.0004*%
%ADD194R,0.0457X0.0004*%
%ADD195R,0.0469X0.0004*%
%ADD196R,0.0480X0.0004*%
%ADD197R,0.0504X0.0004*%
%ADD198R,0.0508X0.0004*%
%ADD199R,0.0551X0.0004*%
%ADD200R,0.0567X0.0004*%
%ADD201R,0.0579X0.0004*%
%ADD202R,0.0413X0.0004*%
%ADD203R,0.0425X0.0004*%
%ADD204R,0.0181X0.0004*%
%ADD205R,0.0634X0.0004*%
%ADD206R,0.0654X0.0004*%
%ADD207R,0.0661X0.0004*%
%ADD208R,0.0669X0.0004*%
%ADD209R,0.0697X0.0004*%
%ADD210R,0.0244X0.0004*%
%ADD211R,0.0252X0.0004*%
%ADD212R,0.0461X0.0004*%
%ADD213R,0.0094X0.0004*%
%ADD214R,0.0622X0.0004*%
%ADD215R,0.0102X0.0004*%
%ADD216R,0.0630X0.0004*%
%ADD217R,0.0614X0.0004*%
%ADD218R,0.0583X0.0004*%
%ADD219R,0.0327X0.0004*%
%ADD220C,0.0396*%
%ADD221C,0.0240*%
D10*
X004503Y003075D02*
X004503Y022760D01*
X020645Y022760D01*
X020645Y003075D01*
X004503Y003075D01*
X004945Y003492D02*
X004945Y003889D01*
X004890Y003880D01*
X004823Y003859D01*
X004763Y003828D01*
X004763Y003986D01*
X004894Y003932D01*
X005097Y003932D01*
X005284Y004009D01*
X005428Y004153D01*
X005495Y004316D01*
X005563Y004153D01*
X005706Y004009D01*
X005870Y003942D01*
X005706Y003874D01*
X005563Y003730D01*
X005485Y003543D01*
X005485Y003340D01*
X005487Y003335D01*
X005434Y003335D01*
X005434Y003336D01*
X005443Y003392D01*
X005045Y003392D01*
X005045Y003492D01*
X004945Y003492D01*
X004945Y003509D02*
X005045Y003509D01*
X005045Y003492D02*
X005045Y003889D01*
X005101Y003880D01*
X005168Y003859D01*
X005231Y003826D01*
X005288Y003785D01*
X005338Y003735D01*
X005380Y003677D01*
X005412Y003614D01*
X005434Y003547D01*
X005443Y003492D01*
X005045Y003492D01*
X005066Y003442D02*
X005566Y003942D01*
X006432Y003942D01*
X007023Y003351D01*
X008676Y003351D01*
X008657Y003370D01*
X008657Y003955D01*
X008706Y004001D02*
X009083Y004001D01*
X009004Y004003D02*
X009004Y004250D01*
X008994Y004288D01*
X008974Y004323D01*
X008946Y004351D01*
X008912Y004370D01*
X008874Y004381D01*
X008706Y004381D01*
X008706Y004003D01*
X009004Y004003D01*
X009004Y003907D02*
X008706Y003907D01*
X008706Y004003D01*
X008609Y004003D01*
X008609Y004377D01*
X008690Y004459D01*
X008690Y004561D01*
X009082Y004561D01*
X009082Y004408D01*
X009101Y004389D01*
X009083Y004371D01*
X009083Y003606D01*
X009206Y003483D01*
X009892Y003483D01*
X009923Y003514D01*
X009954Y003483D01*
X010640Y003483D01*
X010760Y003604D01*
X010768Y003596D01*
X010918Y003533D01*
X011080Y003533D01*
X011230Y003596D01*
X011345Y003710D01*
X011353Y003728D01*
X013072Y003728D01*
X013072Y003514D01*
X013195Y003391D01*
X013763Y003391D01*
X013886Y003514D01*
X013886Y003560D01*
X013891Y003543D01*
X013910Y003509D01*
X013881Y003509D01*
X013910Y003509D02*
X013938Y003481D01*
X013972Y003461D01*
X014011Y003451D01*
X014179Y003451D01*
X014179Y003828D01*
X014276Y003828D01*
X014276Y003925D01*
X014179Y003925D01*
X014179Y004299D01*
X014260Y004380D01*
X014260Y004482D01*
X014768Y004482D01*
X014797Y004454D01*
X014752Y004409D01*
X014752Y003645D01*
X014875Y003522D01*
X015561Y003522D01*
X015592Y003553D01*
X015623Y003522D01*
X016309Y003522D01*
X016432Y003645D01*
X016432Y003680D01*
X016437Y003674D01*
X016587Y003612D01*
X016750Y003612D01*
X016900Y003674D01*
X017014Y003789D01*
X017077Y003939D01*
X017077Y004101D01*
X017014Y004251D01*
X016900Y004366D01*
X016750Y004428D01*
X016587Y004428D01*
X016437Y004366D01*
X016432Y004361D01*
X016432Y004409D01*
X016386Y004455D01*
X016431Y004499D01*
X016431Y005264D01*
X016308Y005387D01*
X016197Y005387D01*
X016180Y005427D01*
X016107Y005501D01*
X015989Y005619D01*
X015893Y005658D01*
X015852Y005658D01*
X015873Y005679D01*
X015935Y005829D01*
X015935Y005991D01*
X015873Y006141D01*
X015758Y006256D01*
X015608Y006318D01*
X015446Y006318D01*
X015296Y006256D01*
X015210Y006170D01*
X014884Y006170D01*
X014789Y006130D01*
X014734Y006075D01*
X014734Y006211D01*
X014646Y006424D01*
X014482Y006587D01*
X014475Y006590D01*
X014481Y006588D01*
X014553Y006577D01*
X014553Y007046D01*
X014084Y007046D01*
X013751Y007046D01*
X013751Y007146D01*
X014553Y007146D01*
X014553Y007046D01*
X014653Y007046D01*
X014653Y007146D01*
X015121Y007146D01*
X015110Y007217D01*
X015085Y007295D01*
X015060Y007343D01*
X015933Y007343D01*
X016028Y007383D01*
X016299Y007654D01*
X016247Y007563D01*
X016164Y007255D01*
X016164Y006936D01*
X016247Y006628D01*
X016406Y006353D01*
X016631Y006127D01*
X016907Y005968D01*
X017215Y005886D01*
X017534Y005886D01*
X017841Y005968D01*
X018117Y006127D01*
X018343Y006353D01*
X018502Y006628D01*
X018584Y006936D01*
X018584Y007131D01*
X018706Y007009D01*
X018870Y006942D01*
X018706Y006874D01*
X018563Y006730D01*
X018485Y006543D01*
X018485Y006340D01*
X018563Y006153D01*
X018706Y006009D01*
X018870Y005942D01*
X018706Y005874D01*
X018563Y005730D01*
X018485Y005543D01*
X018485Y005340D01*
X018563Y005153D01*
X018706Y005009D01*
X018870Y004942D01*
X018706Y004874D01*
X018563Y004730D01*
X018485Y004543D01*
X018485Y004340D01*
X018563Y004153D01*
X018706Y004009D01*
X018894Y003932D01*
X019097Y003932D01*
X019284Y004009D01*
X019428Y004153D01*
X019495Y004316D01*
X019563Y004153D01*
X019706Y004009D01*
X019894Y003932D01*
X020097Y003932D01*
X020284Y004009D01*
X020385Y004110D01*
X020385Y003668D01*
X020380Y003677D01*
X020338Y003735D01*
X020288Y003785D01*
X020231Y003826D01*
X020168Y003859D01*
X020101Y003880D01*
X020045Y003889D01*
X020045Y003492D01*
X019945Y003492D01*
X019945Y003889D01*
X019890Y003880D01*
X019823Y003859D01*
X019759Y003826D01*
X019702Y003785D01*
X019652Y003735D01*
X019610Y003677D01*
X019578Y003614D01*
X019556Y003547D01*
X019548Y003492D01*
X019945Y003492D01*
X019945Y003392D01*
X019548Y003392D01*
X019556Y003336D01*
X019557Y003335D01*
X019434Y003335D01*
X019434Y003336D01*
X019443Y003392D01*
X019045Y003392D01*
X019045Y003492D01*
X018945Y003492D01*
X018945Y003889D01*
X018890Y003880D01*
X018823Y003859D01*
X018759Y003826D01*
X018702Y003785D01*
X018652Y003735D01*
X018610Y003677D01*
X018578Y003614D01*
X018556Y003547D01*
X018548Y003492D01*
X018945Y003492D01*
X018945Y003392D01*
X018548Y003392D01*
X018556Y003336D01*
X018557Y003335D01*
X006503Y003335D01*
X006505Y003340D01*
X006505Y003543D01*
X006428Y003730D01*
X006284Y003874D01*
X006121Y003942D01*
X006284Y004009D01*
X006428Y004153D01*
X006505Y004340D01*
X006505Y004543D01*
X006484Y004594D01*
X006564Y004561D01*
X007877Y004561D01*
X007877Y004459D01*
X007895Y004441D01*
X007626Y004441D01*
X007503Y004318D01*
X007503Y004275D01*
X007490Y004288D01*
X007340Y004350D01*
X007178Y004350D01*
X007028Y004288D01*
X006913Y004173D01*
X006851Y004023D01*
X006851Y003860D01*
X006913Y003710D01*
X007028Y003596D01*
X007178Y003533D01*
X007340Y003533D01*
X007490Y003596D01*
X007503Y003608D01*
X007503Y003592D01*
X007626Y003469D01*
X008193Y003469D01*
X008316Y003592D01*
X008316Y003638D01*
X008321Y003621D01*
X008341Y003587D01*
X008368Y003559D01*
X008403Y003540D01*
X008441Y003529D01*
X008609Y003529D01*
X008609Y003907D01*
X008706Y003907D01*
X008706Y003529D01*
X008874Y003529D01*
X008912Y003540D01*
X008946Y003559D01*
X008974Y003587D01*
X008994Y003621D01*
X009004Y003660D01*
X009004Y003907D01*
X009004Y003903D02*
X009083Y003903D01*
X009083Y003804D02*
X009004Y003804D01*
X009004Y003706D02*
X009083Y003706D01*
X009083Y003607D02*
X008986Y003607D01*
X009180Y003509D02*
X008233Y003509D01*
X008316Y003607D02*
X008329Y003607D01*
X008609Y003607D02*
X008706Y003607D01*
X008706Y003706D02*
X008609Y003706D01*
X008609Y003804D02*
X008706Y003804D01*
X008706Y003903D02*
X008609Y003903D01*
X008609Y004100D02*
X008706Y004100D01*
X008706Y004198D02*
X008609Y004198D01*
X008609Y004297D02*
X008706Y004297D01*
X008627Y004395D02*
X009094Y004395D01*
X009083Y004297D02*
X008989Y004297D01*
X009004Y004198D02*
X009083Y004198D01*
X009083Y004100D02*
X009004Y004100D01*
X009082Y004494D02*
X008690Y004494D01*
X008353Y004336D02*
X008341Y004323D01*
X008321Y004288D01*
X008316Y004271D01*
X008316Y004318D01*
X008298Y004336D01*
X008353Y004336D01*
X008326Y004297D02*
X008316Y004297D01*
X007877Y004494D02*
X006505Y004494D01*
X006505Y004395D02*
X007580Y004395D01*
X007503Y004297D02*
X007468Y004297D01*
X007051Y004297D02*
X006487Y004297D01*
X006447Y004198D02*
X006939Y004198D01*
X006883Y004100D02*
X006375Y004100D01*
X006265Y004001D02*
X006851Y004001D01*
X006851Y003903D02*
X006214Y003903D01*
X006354Y003804D02*
X006874Y003804D01*
X006917Y003706D02*
X006438Y003706D01*
X006479Y003607D02*
X007016Y003607D01*
X007259Y003942D02*
X007896Y003942D01*
X007909Y003955D01*
X007503Y003607D02*
X007502Y003607D01*
X007586Y003509D02*
X006505Y003509D01*
X006505Y003410D02*
X013175Y003410D01*
X013077Y003509D02*
X010666Y003509D01*
X010999Y003942D02*
X010952Y003988D01*
X013393Y003988D01*
X013505Y003876D01*
X013519Y003863D01*
X013505Y003876D02*
X013479Y003876D01*
X013072Y003706D02*
X011341Y003706D01*
X011242Y003607D02*
X013072Y003607D01*
X013082Y004248D02*
X011269Y004248D01*
X011230Y004288D01*
X011080Y004350D01*
X010918Y004350D01*
X010768Y004288D01*
X010763Y004282D01*
X010763Y004371D01*
X010744Y004390D01*
X010762Y004408D01*
X010762Y004530D01*
X011073Y004530D01*
X011168Y004570D01*
X011580Y004981D01*
X011653Y005054D01*
X011692Y005150D01*
X011692Y005568D01*
X011778Y005604D01*
X011900Y005726D01*
X012022Y005604D01*
X012091Y005575D01*
X012091Y005294D01*
X012130Y005199D01*
X012275Y005054D01*
X012348Y004981D01*
X012444Y004941D01*
X012811Y004941D01*
X012756Y004810D01*
X012756Y004648D01*
X012819Y004498D01*
X012933Y004383D01*
X013083Y004321D01*
X013154Y004321D01*
X013082Y004248D01*
X013130Y004297D02*
X011208Y004297D01*
X011191Y004592D02*
X012779Y004592D01*
X012756Y004691D02*
X011289Y004691D01*
X011388Y004789D02*
X012756Y004789D01*
X012789Y004888D02*
X011486Y004888D01*
X011585Y004986D02*
X012343Y004986D01*
X012244Y005085D02*
X011665Y005085D01*
X011692Y005183D02*
X012146Y005183D01*
X012096Y005282D02*
X011692Y005282D01*
X011692Y005380D02*
X012091Y005380D01*
X012091Y005479D02*
X011692Y005479D01*
X011714Y005577D02*
X012086Y005577D01*
X011950Y005676D02*
X011850Y005676D01*
X011432Y006079D02*
X011449Y006096D01*
X011432Y006079D02*
X011432Y005201D01*
X011021Y004790D01*
X010296Y004790D01*
X010762Y005050D02*
X010762Y005172D01*
X010639Y005295D01*
X009953Y005295D01*
X009922Y005264D01*
X009890Y005295D01*
X009205Y005295D01*
X009082Y005172D01*
X009082Y005081D01*
X008690Y005081D01*
X008690Y005184D01*
X008567Y005307D01*
X008000Y005307D01*
X007877Y005184D01*
X007877Y005081D01*
X006723Y005081D01*
X006658Y005146D01*
X006563Y005186D01*
X006441Y005186D01*
X006505Y005340D01*
X006505Y005374D01*
X008571Y005374D01*
X008666Y005414D01*
X008739Y005487D01*
X009330Y006078D01*
X009369Y006173D01*
X009369Y007771D01*
X010395Y008796D01*
X010411Y008835D01*
X010557Y008835D01*
X010680Y008958D01*
X010680Y009644D01*
X010649Y009675D01*
X010680Y009706D01*
X010680Y009789D01*
X013889Y009789D01*
X013889Y009756D01*
X013894Y009744D01*
X013894Y008616D01*
X013825Y008587D01*
X013703Y008465D01*
X013581Y008587D01*
X013368Y008676D01*
X013137Y008676D01*
X012924Y008587D01*
X012802Y008465D01*
X012679Y008587D01*
X012466Y008676D01*
X012235Y008676D01*
X012022Y008587D01*
X011900Y008465D01*
X011778Y008587D01*
X011565Y008676D01*
X011334Y008676D01*
X011121Y008587D01*
X010957Y008424D01*
X010955Y008419D01*
X010944Y008434D01*
X010886Y008492D01*
X010820Y008540D01*
X010747Y008577D01*
X010669Y008603D01*
X010598Y008614D01*
X010598Y008146D01*
X010498Y008146D01*
X010498Y008614D01*
X010426Y008603D01*
X010348Y008577D01*
X010275Y008540D01*
X010209Y008492D01*
X010151Y008434D01*
X010032Y008434D01*
X010103Y008368D02*
X010066Y008295D01*
X010040Y008217D01*
X010029Y008146D01*
X010498Y008146D01*
X010498Y008046D01*
X010029Y008046D01*
X010040Y007974D01*
X010066Y007896D01*
X010103Y007823D01*
X010151Y007757D01*
X010209Y007699D01*
X010275Y007651D01*
X010348Y007614D01*
X010426Y007588D01*
X010498Y007577D01*
X010498Y008046D01*
X010598Y008046D01*
X010598Y007577D01*
X010669Y007588D01*
X010747Y007614D01*
X010820Y007651D01*
X010886Y007699D01*
X010944Y007757D01*
X010955Y007772D01*
X010957Y007767D01*
X011121Y007604D01*
X011142Y007595D01*
X011118Y007603D01*
X011046Y007614D01*
X011046Y007146D01*
X010946Y007146D01*
X010946Y007614D01*
X010875Y007603D01*
X010797Y007577D01*
X010724Y007540D01*
X010658Y007492D01*
X010600Y007434D01*
X010552Y007368D01*
X010515Y007295D01*
X010489Y007217D01*
X010478Y007146D01*
X010946Y007146D01*
X010946Y007046D01*
X010478Y007046D01*
X010489Y006974D01*
X010515Y006896D01*
X010552Y006823D01*
X010600Y006757D01*
X010658Y006699D01*
X010724Y006651D01*
X010729Y006648D01*
X010663Y006676D01*
X010432Y006676D01*
X010219Y006587D01*
X010056Y006424D01*
X009968Y006211D01*
X009968Y005980D01*
X010056Y005767D01*
X010219Y005604D01*
X010432Y005516D01*
X010663Y005516D01*
X010876Y005604D01*
X010998Y005726D01*
X011121Y005604D01*
X011172Y005582D01*
X011172Y005309D01*
X010913Y005050D01*
X010762Y005050D01*
X010762Y005085D02*
X010948Y005085D01*
X011047Y005183D02*
X010750Y005183D01*
X010652Y005282D02*
X011145Y005282D01*
X011172Y005380D02*
X008585Y005380D01*
X008592Y005282D02*
X009191Y005282D01*
X009093Y005183D02*
X008690Y005183D01*
X008690Y005085D02*
X009082Y005085D01*
X009517Y004821D02*
X009548Y004790D01*
X009548Y003990D01*
X009549Y003988D01*
X009917Y003509D02*
X009928Y003509D01*
X010297Y003988D02*
X010952Y003988D01*
X010791Y004297D02*
X010763Y004297D01*
X010749Y004395D02*
X012921Y004395D01*
X012822Y004494D02*
X010762Y004494D01*
X011172Y005479D02*
X008731Y005479D01*
X008830Y005577D02*
X010283Y005577D01*
X010147Y005676D02*
X008928Y005676D01*
X009027Y005774D02*
X010053Y005774D01*
X010012Y005873D02*
X009125Y005873D01*
X009224Y005971D02*
X009971Y005971D01*
X009968Y006070D02*
X009322Y006070D01*
X009367Y006168D02*
X009968Y006168D01*
X009991Y006267D02*
X009369Y006267D01*
X009369Y006365D02*
X010032Y006365D01*
X010096Y006464D02*
X009369Y006464D01*
X009369Y006562D02*
X010194Y006562D01*
X010397Y006661D02*
X009369Y006661D01*
X009369Y006759D02*
X010598Y006759D01*
X010534Y006858D02*
X009369Y006858D01*
X009369Y006956D02*
X010495Y006956D01*
X010479Y007153D02*
X009369Y007153D01*
X009369Y007055D02*
X010946Y007055D01*
X010946Y007046D02*
X011046Y007046D01*
X011046Y006577D01*
X011118Y006588D01*
X011142Y006596D01*
X011121Y006587D01*
X010998Y006465D01*
X010876Y006587D01*
X010869Y006590D01*
X010875Y006588D01*
X010946Y006577D01*
X010946Y007046D01*
X010996Y007096D02*
X010548Y007544D01*
X010548Y008096D01*
X010498Y008138D02*
X009737Y008138D01*
X009638Y008040D02*
X010030Y008040D01*
X010051Y007941D02*
X009540Y007941D01*
X009441Y007843D02*
X010093Y007843D01*
X010163Y007744D02*
X009369Y007744D01*
X009369Y007646D02*
X010284Y007646D01*
X010498Y007646D02*
X010598Y007646D01*
X010598Y007744D02*
X010498Y007744D01*
X010498Y007843D02*
X010598Y007843D01*
X010598Y007941D02*
X010498Y007941D01*
X010498Y008040D02*
X010598Y008040D01*
X010598Y008237D02*
X010498Y008237D01*
X010498Y008335D02*
X010598Y008335D01*
X010598Y008434D02*
X010498Y008434D01*
X010498Y008532D02*
X010598Y008532D01*
X010831Y008532D02*
X011066Y008532D01*
X010967Y008434D02*
X010944Y008434D01*
X011226Y008631D02*
X010229Y008631D01*
X010264Y008532D02*
X010131Y008532D01*
X010151Y008434D02*
X010103Y008368D01*
X010086Y008335D02*
X009934Y008335D01*
X009835Y008237D02*
X010047Y008237D01*
X010328Y008729D02*
X013894Y008729D01*
X013894Y008631D02*
X013475Y008631D01*
X013636Y008532D02*
X013771Y008532D01*
X013894Y008828D02*
X010408Y008828D01*
X010648Y008926D02*
X013894Y008926D01*
X013894Y009025D02*
X010680Y009025D01*
X010680Y009123D02*
X013894Y009123D01*
X013894Y009222D02*
X010680Y009222D01*
X010680Y009320D02*
X013894Y009320D01*
X013894Y009419D02*
X010680Y009419D01*
X010680Y009517D02*
X013894Y009517D01*
X013894Y009616D02*
X010680Y009616D01*
X010680Y009714D02*
X013894Y009714D01*
X014149Y009808D02*
X014149Y010049D01*
X015364Y010049D01*
X015379Y010034D01*
X015400Y010034D01*
X015781Y009645D02*
X015781Y009376D01*
X015904Y009253D01*
X016629Y009253D01*
X016752Y009376D01*
X016752Y009400D01*
X017523Y009400D01*
X017540Y009383D01*
X017690Y009321D01*
X017852Y009321D01*
X018002Y009383D01*
X018117Y009498D01*
X018179Y009648D01*
X018179Y009810D01*
X018117Y009960D01*
X018002Y010075D01*
X017852Y010137D01*
X017690Y010137D01*
X017540Y010075D01*
X017425Y009960D01*
X017408Y009920D01*
X016752Y009920D01*
X016752Y009944D01*
X016629Y010067D01*
X016583Y010067D01*
X016600Y010071D01*
X016634Y010091D01*
X016662Y010119D01*
X016682Y010153D01*
X016692Y010192D01*
X016692Y010360D01*
X016315Y010360D01*
X016315Y010457D01*
X016218Y010457D01*
X016218Y010755D01*
X015971Y010755D01*
X015933Y010745D01*
X015899Y010725D01*
X015871Y010697D01*
X015851Y010663D01*
X015841Y010625D01*
X015841Y010457D01*
X016218Y010457D01*
X016218Y010360D01*
X015844Y010360D01*
X015763Y010441D01*
X015038Y010441D01*
X014915Y010318D01*
X014915Y010309D01*
X010680Y010309D01*
X010680Y010392D01*
X010557Y010515D01*
X009792Y010515D01*
X009773Y010496D01*
X009753Y010515D01*
X008989Y010515D01*
X008958Y010484D01*
X008927Y010515D01*
X008531Y010515D01*
X009102Y011087D01*
X009157Y010954D01*
X009272Y010840D01*
X009422Y010778D01*
X009584Y010778D01*
X009734Y010840D01*
X009849Y010954D01*
X009911Y011104D01*
X009911Y011226D01*
X010434Y011749D01*
X010474Y011845D01*
X010474Y011945D01*
X010596Y011945D01*
X010623Y011973D01*
X010650Y011945D01*
X010773Y011945D01*
X010773Y011839D01*
X010528Y011594D01*
X010406Y011594D01*
X010256Y011532D01*
X010141Y011417D01*
X010079Y011267D01*
X010079Y011104D01*
X010141Y010954D01*
X010256Y010840D01*
X010406Y010778D01*
X010569Y010778D01*
X010719Y010840D01*
X010833Y010954D01*
X010895Y011104D01*
X010895Y011226D01*
X011180Y011511D01*
X011253Y011584D01*
X011293Y011679D01*
X011293Y011945D01*
X011415Y011945D01*
X011538Y012068D01*
X011538Y012754D01*
X011507Y012785D01*
X011538Y012816D01*
X011538Y012899D01*
X012835Y012899D01*
X012835Y012876D01*
X012897Y012726D01*
X013012Y012611D01*
X013162Y012549D01*
X013324Y012549D01*
X013474Y012611D01*
X013589Y012726D01*
X013651Y012876D01*
X013651Y012899D01*
X013750Y012899D01*
X013724Y012874D01*
X013662Y012724D01*
X013662Y012561D01*
X013724Y012411D01*
X013740Y012395D01*
X013740Y012222D01*
X013511Y012222D01*
X013388Y012099D01*
X013388Y010981D01*
X013511Y010858D01*
X014629Y010858D01*
X014752Y010981D01*
X014752Y012099D01*
X014629Y012222D01*
X014400Y012222D01*
X014400Y012395D01*
X014416Y012411D01*
X014478Y012561D01*
X014478Y012724D01*
X014416Y012874D01*
X014390Y012899D01*
X014915Y012899D01*
X014915Y012868D01*
X015038Y012745D01*
X015763Y012745D01*
X015781Y012763D01*
X015781Y012494D01*
X015904Y012371D01*
X016629Y012371D01*
X016752Y012494D01*
X016752Y013062D01*
X016629Y013185D01*
X016583Y013185D01*
X016600Y013190D01*
X016634Y013209D01*
X016662Y013237D01*
X016682Y013271D01*
X016692Y013310D01*
X016692Y013478D01*
X016315Y013478D01*
X016315Y013575D01*
X016692Y013575D01*
X016692Y013743D01*
X016687Y013760D01*
X017217Y013760D01*
X017303Y013674D01*
X017453Y013612D01*
X017616Y013612D01*
X017766Y013674D01*
X017881Y013789D01*
X017943Y013939D01*
X017943Y014101D01*
X017881Y014251D01*
X017766Y014366D01*
X017616Y014428D01*
X017453Y014428D01*
X017303Y014366D01*
X017217Y014280D01*
X015160Y014280D01*
X015065Y014241D01*
X014991Y014168D01*
X014909Y014085D01*
X014909Y014127D01*
X014851Y014186D01*
X014909Y014244D01*
X014909Y014627D01*
X014851Y014686D01*
X014909Y014744D01*
X014909Y015127D01*
X014786Y015250D01*
X014089Y015250D01*
X013966Y015127D01*
X013966Y014744D01*
X014024Y014686D01*
X013966Y014627D01*
X013966Y014244D01*
X014024Y014186D01*
X013966Y014127D01*
X013966Y013744D01*
X013981Y013729D01*
X013549Y013729D01*
X013559Y013739D01*
X013579Y013773D01*
X013589Y013812D01*
X013589Y013934D01*
X013180Y013934D01*
X013180Y013938D01*
X013589Y013938D01*
X013589Y014060D01*
X013579Y014098D01*
X013559Y014132D01*
X013548Y014143D01*
X013649Y014244D01*
X013649Y014627D01*
X013591Y014686D01*
X013649Y014744D01*
X013649Y015127D01*
X013526Y015250D01*
X012829Y015250D01*
X012724Y015145D01*
X012693Y015176D01*
X012723Y015206D01*
X012785Y015356D01*
X012785Y015399D01*
X014951Y015399D01*
X015038Y015312D01*
X015763Y015312D01*
X015781Y015330D01*
X015781Y015061D01*
X015904Y014938D01*
X016629Y014938D01*
X016752Y015061D01*
X016752Y015085D01*
X017153Y015085D01*
X017225Y015013D01*
X017375Y014951D01*
X017537Y014951D01*
X017687Y015013D01*
X017802Y015128D01*
X017864Y015278D01*
X017864Y015440D01*
X017802Y015590D01*
X017687Y015705D01*
X017537Y015767D01*
X017375Y015767D01*
X017225Y015705D01*
X017125Y015605D01*
X016752Y015605D01*
X016752Y015629D01*
X016629Y015752D01*
X016583Y015752D01*
X016600Y015757D01*
X016634Y015776D01*
X016662Y015804D01*
X016682Y015838D01*
X016692Y015877D01*
X016692Y016045D01*
X016315Y016045D01*
X016315Y016142D01*
X016218Y016142D01*
X016218Y016440D01*
X015971Y016440D01*
X015933Y016430D01*
X015899Y016410D01*
X015871Y016382D01*
X015851Y016348D01*
X015841Y016310D01*
X015841Y016142D01*
X016218Y016142D01*
X016218Y016045D01*
X015844Y016045D01*
X015763Y016126D01*
X015611Y016126D01*
X015636Y016151D01*
X015699Y016301D01*
X015699Y016464D01*
X015636Y016614D01*
X015616Y016634D01*
X018162Y016634D01*
X018248Y016548D01*
X018398Y016486D01*
X018485Y016486D01*
X018485Y016340D01*
X018563Y016153D01*
X018706Y016009D01*
X018870Y015942D01*
X018706Y015874D01*
X018563Y015730D01*
X018485Y015543D01*
X018485Y015340D01*
X018563Y015153D01*
X018706Y015009D01*
X018870Y014942D01*
X018706Y014874D01*
X018563Y014730D01*
X018485Y014543D01*
X018485Y014340D01*
X018563Y014153D01*
X018706Y014009D01*
X018870Y013942D01*
X018706Y013874D01*
X018563Y013730D01*
X018485Y013543D01*
X018485Y013340D01*
X018563Y013153D01*
X018706Y013009D01*
X018894Y012932D01*
X019097Y012932D01*
X019284Y013009D01*
X019428Y013153D01*
X019495Y013316D01*
X019563Y013153D01*
X019706Y013009D01*
X019894Y012932D01*
X020097Y012932D01*
X020284Y013009D01*
X020385Y013110D01*
X020385Y012668D01*
X020380Y012677D01*
X020338Y012735D01*
X020288Y012785D01*
X020231Y012826D01*
X020168Y012859D01*
X020101Y012880D01*
X020045Y012889D01*
X020045Y012492D01*
X019945Y012492D01*
X019945Y012889D01*
X019890Y012880D01*
X019823Y012859D01*
X019759Y012826D01*
X019702Y012785D01*
X019652Y012735D01*
X019610Y012677D01*
X019578Y012614D01*
X019556Y012547D01*
X019548Y012492D01*
X019945Y012492D01*
X019945Y012392D01*
X019548Y012392D01*
X019556Y012336D01*
X019578Y012269D01*
X019610Y012206D01*
X019652Y012148D01*
X019702Y012098D01*
X019759Y012057D01*
X019823Y012025D01*
X019890Y012003D01*
X019945Y011994D01*
X019945Y012392D01*
X020045Y012392D01*
X020045Y011994D01*
X020101Y012003D01*
X020168Y012025D01*
X020231Y012057D01*
X020288Y012098D01*
X020338Y012148D01*
X020380Y012206D01*
X020385Y012215D01*
X020385Y011773D01*
X020284Y011874D01*
X020097Y011952D01*
X019894Y011952D01*
X019706Y011874D01*
X019563Y011730D01*
X019495Y011567D01*
X019428Y011730D01*
X019284Y011874D01*
X019097Y011952D01*
X018894Y011952D01*
X018706Y011874D01*
X018563Y011730D01*
X018485Y011543D01*
X018485Y011340D01*
X018563Y011153D01*
X018706Y011009D01*
X018870Y010942D01*
X018706Y010874D01*
X018563Y010730D01*
X018485Y010543D01*
X018485Y010340D01*
X018563Y010153D01*
X018706Y010009D01*
X018870Y009942D01*
X018706Y009874D01*
X018563Y009730D01*
X018485Y009543D01*
X018485Y009340D01*
X018563Y009153D01*
X018706Y009009D01*
X018870Y008942D01*
X018706Y008874D01*
X018563Y008730D01*
X018485Y008543D01*
X018485Y008340D01*
X018563Y008153D01*
X018706Y008009D01*
X018870Y007942D01*
X018706Y007874D01*
X018563Y007730D01*
X018497Y007571D01*
X018343Y007838D01*
X018206Y007975D01*
X018278Y008005D01*
X018392Y008120D01*
X018455Y008270D01*
X018455Y008432D01*
X018392Y008582D01*
X018278Y008697D01*
X018128Y008759D01*
X017965Y008759D01*
X017815Y008697D01*
X017729Y008611D01*
X016577Y008611D01*
X016482Y008571D01*
X016409Y008498D01*
X015773Y007863D01*
X014685Y007863D01*
X014734Y007980D01*
X014734Y008211D01*
X014646Y008424D01*
X014482Y008587D01*
X014414Y008616D01*
X014414Y009789D01*
X014915Y009789D01*
X014915Y009750D01*
X015038Y009627D01*
X015763Y009627D01*
X015781Y009645D01*
X015781Y009616D02*
X014414Y009616D01*
X014414Y009714D02*
X014951Y009714D01*
X014414Y009517D02*
X015781Y009517D01*
X015781Y009419D02*
X014414Y009419D01*
X014414Y009320D02*
X015837Y009320D01*
X016267Y009660D02*
X017702Y009660D01*
X017771Y009729D01*
X018067Y010010D02*
X018706Y010010D01*
X018797Y009911D02*
X018137Y009911D01*
X018178Y009813D02*
X018645Y009813D01*
X018556Y009714D02*
X018179Y009714D01*
X018166Y009616D02*
X018515Y009616D01*
X018485Y009517D02*
X018125Y009517D01*
X018038Y009419D02*
X018485Y009419D01*
X018493Y009320D02*
X016696Y009320D01*
X016686Y010010D02*
X017475Y010010D01*
X017621Y010108D02*
X016651Y010108D01*
X016692Y010207D02*
X018540Y010207D01*
X018500Y010305D02*
X016692Y010305D01*
X016692Y010457D02*
X016315Y010457D01*
X016315Y010755D01*
X016562Y010755D01*
X016600Y010745D01*
X016634Y010725D01*
X016662Y010697D01*
X016682Y010663D01*
X016692Y010625D01*
X016692Y010457D01*
X016692Y010502D02*
X018485Y010502D01*
X018485Y010404D02*
X016315Y010404D01*
X016267Y010408D02*
X016335Y010477D01*
X016905Y010477D01*
X016692Y010601D02*
X018509Y010601D01*
X018550Y010699D02*
X016660Y010699D01*
X016401Y010896D02*
X017063Y010896D01*
X017121Y010838D02*
X017293Y010767D01*
X017479Y010767D01*
X017651Y010838D01*
X017782Y010970D01*
X017853Y011141D01*
X017853Y011842D01*
X017782Y012014D01*
X017651Y012146D01*
X017479Y012217D01*
X017293Y012217D01*
X017121Y012146D01*
X016989Y012014D01*
X016930Y011870D01*
X016485Y011870D01*
X016485Y012099D01*
X016362Y012222D01*
X015243Y012222D01*
X015120Y012099D01*
X015120Y010981D01*
X015243Y010858D01*
X016362Y010858D01*
X016485Y010981D01*
X016485Y011210D01*
X016918Y011210D01*
X016918Y011141D01*
X016989Y010970D01*
X017121Y010838D01*
X017218Y010798D02*
X010618Y010798D01*
X010775Y010896D02*
X011958Y010896D01*
X011972Y010886D02*
X012029Y010857D01*
X012090Y010837D01*
X012154Y010827D01*
X012157Y010827D01*
X012157Y011463D01*
X012215Y011463D01*
X012215Y011521D01*
X012593Y011521D01*
X012593Y011782D01*
X012583Y011845D01*
X012563Y011906D01*
X012534Y011963D01*
X012497Y012015D01*
X012451Y012060D01*
X012399Y012098D01*
X012342Y012127D01*
X012281Y012147D01*
X012218Y012157D01*
X012215Y012157D01*
X012215Y011521D01*
X012157Y011521D01*
X012157Y012157D01*
X012154Y012157D01*
X012090Y012147D01*
X012029Y012127D01*
X011972Y012098D01*
X011920Y012060D01*
X011875Y012015D01*
X011837Y011963D01*
X011808Y011906D01*
X011788Y011845D01*
X011778Y011782D01*
X011778Y011521D01*
X012157Y011521D01*
X012157Y011463D01*
X011778Y011463D01*
X011778Y011202D01*
X011788Y011139D01*
X011808Y011078D01*
X011837Y011021D01*
X011875Y010969D01*
X011920Y010924D01*
X011972Y010886D01*
X011856Y010995D02*
X010850Y010995D01*
X010891Y011093D02*
X011803Y011093D01*
X011780Y011192D02*
X010895Y011192D01*
X010960Y011290D02*
X011778Y011290D01*
X011778Y011389D02*
X011058Y011389D01*
X011157Y011487D02*
X012157Y011487D01*
X012215Y011487D02*
X013388Y011487D01*
X013388Y011389D02*
X012593Y011389D01*
X012593Y011463D02*
X012215Y011463D01*
X012215Y010827D01*
X012218Y010827D01*
X012281Y010837D01*
X012342Y010857D01*
X012399Y010886D01*
X012451Y010924D01*
X012497Y010969D01*
X012534Y011021D01*
X012563Y011078D01*
X012583Y011139D01*
X012593Y011202D01*
X012593Y011463D01*
X012593Y011586D02*
X013388Y011586D01*
X013388Y011684D02*
X012593Y011684D01*
X012593Y011783D02*
X013388Y011783D01*
X013388Y011881D02*
X012571Y011881D01*
X012522Y011980D02*
X013388Y011980D01*
X013388Y012078D02*
X012426Y012078D01*
X012215Y012078D02*
X012157Y012078D01*
X012157Y011980D02*
X012215Y011980D01*
X012215Y011881D02*
X012157Y011881D01*
X012157Y011783D02*
X012215Y011783D01*
X012215Y011684D02*
X012157Y011684D01*
X012157Y011586D02*
X012215Y011586D01*
X012215Y011389D02*
X012157Y011389D01*
X012157Y011290D02*
X012215Y011290D01*
X012215Y011192D02*
X012157Y011192D01*
X012157Y011093D02*
X012215Y011093D01*
X012215Y010995D02*
X012157Y010995D01*
X012157Y010896D02*
X012215Y010896D01*
X012414Y010896D02*
X013472Y010896D01*
X013388Y010995D02*
X012515Y010995D01*
X012568Y011093D02*
X013388Y011093D01*
X013388Y011192D02*
X012592Y011192D01*
X012593Y011290D02*
X013388Y011290D01*
X013465Y012177D02*
X011538Y012177D01*
X011538Y012275D02*
X013740Y012275D01*
X013740Y012374D02*
X011538Y012374D01*
X011538Y012472D02*
X013699Y012472D01*
X013662Y012571D02*
X013377Y012571D01*
X013533Y012669D02*
X013662Y012669D01*
X013680Y012768D02*
X013607Y012768D01*
X013647Y012866D02*
X013721Y012866D01*
X013243Y012957D02*
X013243Y013159D01*
X015094Y013159D01*
X015101Y013152D01*
X015400Y013152D01*
X015133Y013154D02*
X015128Y013159D01*
X015094Y013159D01*
X015118Y013559D02*
X015582Y013559D01*
X015582Y013760D01*
X015319Y013760D01*
X015118Y013559D01*
X015214Y013654D02*
X015582Y013654D01*
X015582Y013753D02*
X015312Y013753D01*
X015212Y014020D02*
X015802Y014020D01*
X015842Y013981D01*
X015842Y013115D01*
X016178Y012778D01*
X016267Y012778D01*
X015803Y012472D02*
X014441Y012472D01*
X014478Y012571D02*
X015781Y012571D01*
X015781Y012669D02*
X014478Y012669D01*
X014460Y012768D02*
X015015Y012768D01*
X014917Y012866D02*
X014419Y012866D01*
X014400Y012374D02*
X015901Y012374D01*
X016407Y012177D02*
X017196Y012177D01*
X017054Y012078D02*
X016485Y012078D01*
X016485Y011980D02*
X016975Y011980D01*
X016934Y011881D02*
X016485Y011881D01*
X016632Y012374D02*
X018550Y012374D01*
X018548Y012392D02*
X018556Y012336D01*
X018578Y012269D01*
X018610Y012206D01*
X018652Y012148D01*
X018702Y012098D01*
X018759Y012057D01*
X018823Y012025D01*
X018890Y012003D01*
X018945Y011994D01*
X018945Y012392D01*
X018548Y012392D01*
X018548Y012492D02*
X018945Y012492D01*
X018945Y012889D01*
X018890Y012880D01*
X018823Y012859D01*
X018759Y012826D01*
X018702Y012785D01*
X018652Y012735D01*
X018610Y012677D01*
X018578Y012614D01*
X018556Y012547D01*
X018548Y012492D01*
X018564Y012571D02*
X016752Y012571D01*
X016752Y012669D02*
X018606Y012669D01*
X018685Y012768D02*
X016752Y012768D01*
X016752Y012866D02*
X018847Y012866D01*
X018945Y012866D02*
X019045Y012866D01*
X019045Y012889D02*
X019045Y012492D01*
X018945Y012492D01*
X018945Y012392D01*
X019045Y012392D01*
X019045Y012492D01*
X019443Y012492D01*
X019434Y012547D01*
X019412Y012614D01*
X019380Y012677D01*
X019338Y012735D01*
X019288Y012785D01*
X019231Y012826D01*
X019168Y012859D01*
X019101Y012880D01*
X019045Y012889D01*
X019144Y012866D02*
X019847Y012866D01*
X019945Y012866D02*
X020045Y012866D01*
X020045Y012768D02*
X019945Y012768D01*
X019945Y012669D02*
X020045Y012669D01*
X020045Y012571D02*
X019945Y012571D01*
X019945Y012472D02*
X019045Y012472D01*
X018995Y012442D02*
X018838Y012442D01*
X017731Y013548D01*
X016983Y013548D01*
X016962Y013526D01*
X016267Y013526D01*
X016315Y013556D02*
X018491Y013556D01*
X018485Y013457D02*
X016692Y013457D01*
X016692Y013359D02*
X018485Y013359D01*
X018518Y013260D02*
X016676Y013260D01*
X016652Y013162D02*
X018559Y013162D01*
X018652Y013063D02*
X016751Y013063D01*
X016752Y012965D02*
X018813Y012965D01*
X018945Y012768D02*
X019045Y012768D01*
X019045Y012669D02*
X018945Y012669D01*
X018945Y012571D02*
X019045Y012571D01*
X018995Y012442D02*
X019995Y012442D01*
X019945Y012374D02*
X020045Y012374D01*
X020045Y012275D02*
X019945Y012275D01*
X019945Y012177D02*
X020045Y012177D01*
X020045Y012078D02*
X019945Y012078D01*
X019729Y012078D02*
X019261Y012078D01*
X019288Y012098D02*
X019338Y012148D01*
X019380Y012206D01*
X019412Y012269D01*
X019434Y012336D01*
X019443Y012392D01*
X019045Y012392D01*
X019045Y011994D01*
X019101Y012003D01*
X019168Y012025D01*
X019231Y012057D01*
X019288Y012098D01*
X019359Y012177D02*
X019631Y012177D01*
X019576Y012275D02*
X019414Y012275D01*
X019440Y012374D02*
X019550Y012374D01*
X019564Y012571D02*
X019426Y012571D01*
X019384Y012669D02*
X019606Y012669D01*
X019685Y012768D02*
X019305Y012768D01*
X019177Y012965D02*
X019813Y012965D01*
X019652Y013063D02*
X019338Y013063D01*
X019431Y013162D02*
X019559Y013162D01*
X019518Y013260D02*
X019472Y013260D01*
X019495Y013567D02*
X019428Y013730D01*
X019284Y013874D01*
X019121Y013942D01*
X019284Y014009D01*
X019428Y014153D01*
X019495Y014316D01*
X019563Y014153D01*
X019706Y014009D01*
X019870Y013942D01*
X019706Y013874D01*
X019563Y013730D01*
X019495Y013567D01*
X019459Y013654D02*
X019531Y013654D01*
X019585Y013753D02*
X019405Y013753D01*
X019307Y013851D02*
X019684Y013851D01*
X019849Y013950D02*
X019141Y013950D01*
X019323Y014048D02*
X019667Y014048D01*
X019569Y014147D02*
X019422Y014147D01*
X019466Y014245D02*
X019524Y014245D01*
X019495Y014567D02*
X019428Y014730D01*
X019284Y014874D01*
X019121Y014942D01*
X019284Y015009D01*
X019428Y015153D01*
X019495Y015316D01*
X019563Y015153D01*
X019706Y015009D01*
X019870Y014942D01*
X019706Y014874D01*
X019563Y014730D01*
X019495Y014567D01*
X019465Y014639D02*
X019525Y014639D01*
X019570Y014738D02*
X019420Y014738D01*
X019322Y014836D02*
X019669Y014836D01*
X019682Y015033D02*
X019308Y015033D01*
X019407Y015132D02*
X019584Y015132D01*
X019531Y015230D02*
X019460Y015230D01*
X019137Y014935D02*
X019854Y014935D01*
X020121Y014942D02*
X020284Y015009D01*
X020385Y015110D01*
X020385Y014773D01*
X020284Y014874D01*
X020121Y014942D01*
X020137Y014935D02*
X020385Y014935D01*
X020385Y015033D02*
X020308Y015033D01*
X020322Y014836D02*
X020385Y014836D01*
X020385Y014110D02*
X020385Y013773D01*
X020284Y013874D01*
X020121Y013942D01*
X020284Y014009D01*
X020385Y014110D01*
X020385Y014048D02*
X020323Y014048D01*
X020385Y013950D02*
X020141Y013950D01*
X020307Y013851D02*
X020385Y013851D01*
X020385Y013063D02*
X020338Y013063D01*
X020385Y012965D02*
X020177Y012965D01*
X020144Y012866D02*
X020385Y012866D01*
X020385Y012768D02*
X020305Y012768D01*
X020384Y012669D02*
X020385Y012669D01*
X020359Y012177D02*
X020385Y012177D01*
X020385Y012078D02*
X020261Y012078D01*
X020385Y011980D02*
X017796Y011980D01*
X017837Y011881D02*
X018725Y011881D01*
X018615Y011783D02*
X017853Y011783D01*
X017853Y011684D02*
X018544Y011684D01*
X018503Y011586D02*
X017853Y011586D01*
X017853Y011487D02*
X018485Y011487D01*
X018485Y011389D02*
X017853Y011389D01*
X017853Y011290D02*
X018506Y011290D01*
X018547Y011192D02*
X017853Y011192D01*
X017833Y011093D02*
X018622Y011093D01*
X018741Y010995D02*
X017793Y010995D01*
X017709Y010896D02*
X018761Y010896D01*
X018630Y010798D02*
X017554Y010798D01*
X016979Y010995D02*
X016485Y010995D01*
X016485Y011093D02*
X016938Y011093D01*
X016918Y011192D02*
X016485Y011192D01*
X016315Y010699D02*
X016218Y010699D01*
X016218Y010601D02*
X016315Y010601D01*
X016315Y010502D02*
X016218Y010502D01*
X016218Y010404D02*
X015800Y010404D01*
X015841Y010502D02*
X010569Y010502D01*
X010668Y010404D02*
X015001Y010404D01*
X015204Y010896D02*
X014668Y010896D01*
X014752Y010995D02*
X015120Y010995D01*
X015120Y011093D02*
X014752Y011093D01*
X014752Y011192D02*
X015120Y011192D01*
X015120Y011290D02*
X014752Y011290D01*
X014752Y011389D02*
X015120Y011389D01*
X015120Y011487D02*
X014752Y011487D01*
X014752Y011586D02*
X015120Y011586D01*
X015120Y011684D02*
X014752Y011684D01*
X014752Y011783D02*
X015120Y011783D01*
X015120Y011881D02*
X014752Y011881D01*
X014752Y011980D02*
X015120Y011980D01*
X015120Y012078D02*
X014752Y012078D01*
X014675Y012177D02*
X015197Y012177D01*
X014400Y012275D02*
X018576Y012275D01*
X018631Y012177D02*
X017575Y012177D01*
X017718Y012078D02*
X018729Y012078D01*
X018945Y012078D02*
X019045Y012078D01*
X019045Y012177D02*
X018945Y012177D01*
X018945Y012275D02*
X019045Y012275D01*
X019045Y012374D02*
X018945Y012374D01*
X018945Y012472D02*
X016730Y012472D01*
X016692Y013654D02*
X017351Y013654D01*
X017225Y013753D02*
X016689Y013753D01*
X017281Y014344D02*
X014909Y014344D01*
X014909Y014442D02*
X018485Y014442D01*
X018485Y014344D02*
X017788Y014344D01*
X017883Y014245D02*
X018524Y014245D01*
X018569Y014147D02*
X017924Y014147D01*
X017943Y014048D02*
X018667Y014048D01*
X018684Y013851D02*
X017906Y013851D01*
X017943Y013950D02*
X018849Y013950D01*
X018585Y013753D02*
X017844Y013753D01*
X017718Y013654D02*
X018531Y013654D01*
X018485Y014541D02*
X014909Y014541D01*
X014897Y014639D02*
X018525Y014639D01*
X018570Y014738D02*
X014903Y014738D01*
X014909Y014836D02*
X018669Y014836D01*
X018682Y015033D02*
X017708Y015033D01*
X017804Y015132D02*
X018584Y015132D01*
X018531Y015230D02*
X017844Y015230D01*
X017864Y015329D02*
X018490Y015329D01*
X018485Y015427D02*
X017864Y015427D01*
X017828Y015526D02*
X018485Y015526D01*
X018519Y015624D02*
X017767Y015624D01*
X017643Y015723D02*
X018560Y015723D01*
X018654Y015821D02*
X016672Y015821D01*
X016658Y015723D02*
X017268Y015723D01*
X017144Y015624D02*
X016752Y015624D01*
X016692Y015920D02*
X018818Y015920D01*
X018697Y016018D02*
X016692Y016018D01*
X016692Y016142D02*
X016692Y016310D01*
X016682Y016348D01*
X016662Y016382D01*
X016634Y016410D01*
X016600Y016430D01*
X016562Y016440D01*
X016315Y016440D01*
X016315Y016142D01*
X016692Y016142D01*
X016692Y016215D02*
X018537Y016215D01*
X018496Y016314D02*
X016691Y016314D01*
X016630Y016412D02*
X018485Y016412D01*
X018339Y016511D02*
X015679Y016511D01*
X015699Y016412D02*
X015903Y016412D01*
X015842Y016314D02*
X015699Y016314D01*
X015663Y016215D02*
X015841Y016215D01*
X015772Y016117D02*
X016218Y016117D01*
X016267Y016093D02*
X016280Y016107D01*
X016787Y016107D01*
X016315Y016117D02*
X018599Y016117D01*
X019121Y015942D02*
X019284Y016009D01*
X019428Y016153D01*
X019495Y016316D01*
X019563Y016153D01*
X019706Y016009D01*
X019870Y015942D01*
X019706Y015874D01*
X019563Y015730D01*
X019495Y015567D01*
X019428Y015730D01*
X019284Y015874D01*
X019121Y015942D01*
X019173Y015920D02*
X019818Y015920D01*
X019697Y016018D02*
X019293Y016018D01*
X019392Y016117D02*
X019599Y016117D01*
X019537Y016215D02*
X019454Y016215D01*
X019494Y016314D02*
X019496Y016314D01*
X019495Y016567D02*
X019428Y016730D01*
X019284Y016874D01*
X019121Y016942D01*
X019284Y017009D01*
X019428Y017153D01*
X019495Y017316D01*
X019563Y017153D01*
X019706Y017009D01*
X019870Y016942D01*
X019706Y016874D01*
X019563Y016730D01*
X019495Y016567D01*
X019478Y016609D02*
X019513Y016609D01*
X019554Y016708D02*
X019437Y016708D01*
X019352Y016806D02*
X019639Y016806D01*
X019781Y016905D02*
X019209Y016905D01*
X019270Y017003D02*
X019720Y017003D01*
X019614Y017102D02*
X019377Y017102D01*
X019447Y017200D02*
X019543Y017200D01*
X019502Y017299D02*
X019488Y017299D01*
X019495Y017567D02*
X019428Y017730D01*
X019284Y017874D01*
X019121Y017942D01*
X019284Y018009D01*
X019428Y018153D01*
X019495Y018316D01*
X019563Y018153D01*
X019706Y018009D01*
X019870Y017942D01*
X019706Y017874D01*
X019563Y017730D01*
X019495Y017567D01*
X019484Y017594D02*
X019507Y017594D01*
X019547Y017693D02*
X019443Y017693D01*
X019367Y017791D02*
X019624Y017791D01*
X019745Y017890D02*
X019245Y017890D01*
X019234Y017988D02*
X019756Y017988D01*
X019629Y018087D02*
X019362Y018087D01*
X019441Y018185D02*
X019549Y018185D01*
X019508Y018284D02*
X019482Y018284D01*
X019495Y018567D02*
X019428Y018730D01*
X019284Y018874D01*
X019121Y018942D01*
X019284Y019009D01*
X019428Y019153D01*
X019495Y019316D01*
X019563Y019153D01*
X019706Y019009D01*
X019870Y018942D01*
X019706Y018874D01*
X019563Y018730D01*
X019495Y018567D01*
X019490Y018579D02*
X019500Y018579D01*
X019541Y018678D02*
X019449Y018678D01*
X019382Y018776D02*
X019609Y018776D01*
X019709Y018875D02*
X019282Y018875D01*
X019198Y018973D02*
X019793Y018973D01*
X019644Y019072D02*
X019347Y019072D01*
X019435Y019170D02*
X019556Y019170D01*
X019515Y019269D02*
X019476Y019269D01*
X019495Y019567D02*
X019428Y019730D01*
X019284Y019874D01*
X019121Y019942D01*
X019284Y020009D01*
X019428Y020153D01*
X019495Y020316D01*
X019563Y020153D01*
X019706Y020009D01*
X019870Y019942D01*
X019706Y019874D01*
X019563Y019730D01*
X019495Y019567D01*
X019456Y019663D02*
X019535Y019663D01*
X019594Y019761D02*
X019397Y019761D01*
X019298Y019860D02*
X019692Y019860D01*
X019829Y019958D02*
X019162Y019958D01*
X019332Y020057D02*
X019659Y020057D01*
X019562Y020155D02*
X019429Y020155D01*
X019470Y020254D02*
X019521Y020254D01*
X019495Y020567D02*
X019428Y020730D01*
X019284Y020874D01*
X019121Y020942D01*
X019284Y021009D01*
X019428Y021153D01*
X019495Y021316D01*
X019563Y021153D01*
X019706Y021009D01*
X019870Y020942D01*
X019706Y020874D01*
X019563Y020730D01*
X019495Y020567D01*
X019462Y020648D02*
X019529Y020648D01*
X019579Y020746D02*
X019412Y020746D01*
X019313Y020845D02*
X019677Y020845D01*
X019674Y021042D02*
X019317Y021042D01*
X019415Y021140D02*
X019575Y021140D01*
X019527Y021239D02*
X019463Y021239D01*
X019495Y021567D02*
X019428Y021730D01*
X019284Y021874D01*
X019097Y021952D01*
X018894Y021952D01*
X018706Y021874D01*
X018563Y021730D01*
X018485Y021543D01*
X018485Y021340D01*
X018563Y021153D01*
X018706Y021009D01*
X018870Y020942D01*
X018706Y020874D01*
X018563Y020730D01*
X018485Y020543D01*
X018485Y020340D01*
X018563Y020153D01*
X018706Y020009D01*
X018870Y019942D01*
X018706Y019874D01*
X018563Y019730D01*
X018485Y019543D01*
X018485Y019340D01*
X018563Y019153D01*
X018706Y019009D01*
X018870Y018942D01*
X018706Y018874D01*
X018563Y018730D01*
X018485Y018543D01*
X018485Y018340D01*
X018487Y018335D01*
X017809Y018335D01*
X017853Y018441D01*
X017853Y019142D01*
X017782Y019314D01*
X017651Y019446D01*
X017479Y019517D01*
X017293Y019517D01*
X017121Y019446D01*
X016989Y019314D01*
X016918Y019142D01*
X016918Y019122D01*
X013766Y019122D01*
X013169Y019719D01*
X013076Y019812D01*
X012955Y019862D01*
X011603Y019862D01*
X011482Y019812D01*
X011098Y019428D01*
X011075Y019428D01*
X010979Y019389D01*
X010928Y019440D01*
X010928Y019444D01*
X010924Y019448D01*
X010924Y019452D01*
X010920Y019456D01*
X010920Y019460D01*
X010916Y019464D01*
X010912Y019468D01*
X010912Y019471D01*
X010908Y019475D01*
X010785Y019598D01*
X010765Y019618D01*
X010761Y019618D01*
X010753Y019626D01*
X010750Y019626D01*
X010746Y019630D01*
X010742Y019630D01*
X010738Y019634D01*
X010730Y019634D01*
X010726Y019638D01*
X010714Y019638D01*
X010710Y019642D01*
X010666Y019642D01*
X010668Y019644D01*
X010668Y019648D01*
X010680Y019660D01*
X010680Y019664D01*
X010688Y019672D01*
X010688Y019675D01*
X010695Y019683D01*
X010695Y019683D01*
X010699Y019687D01*
X010699Y019691D01*
X010711Y019703D01*
X010711Y019707D01*
X010723Y019719D01*
X010723Y019723D01*
X010735Y019735D01*
X010735Y019738D01*
X010743Y019746D01*
X010743Y019750D01*
X010754Y019762D01*
X010754Y019766D01*
X010766Y019778D01*
X010766Y019782D01*
X010778Y019794D01*
X010778Y019798D01*
X010790Y019809D01*
X010790Y019813D01*
X010798Y019821D01*
X010798Y019825D01*
X010810Y019837D01*
X010810Y019841D01*
X010821Y019853D01*
X010821Y019857D01*
X010833Y019868D01*
X010833Y019872D01*
X010845Y019884D01*
X010845Y019888D01*
X010857Y019900D01*
X010857Y019904D01*
X010861Y019908D01*
X010865Y019912D01*
X010865Y019916D01*
X010877Y019927D01*
X010877Y019931D01*
X010888Y019943D01*
X010888Y019947D01*
X010900Y019959D01*
X010900Y019963D01*
X010912Y019975D01*
X010912Y019979D01*
X010920Y019986D01*
X010920Y020164D01*
X010916Y020168D01*
X010912Y020172D01*
X010828Y020256D01*
X011248Y020256D01*
X011343Y020296D01*
X011416Y020369D01*
X011456Y020408D01*
X011495Y020504D01*
X011495Y021157D01*
X011565Y021226D01*
X012137Y021226D01*
X012260Y021349D01*
X012260Y021489D01*
X012445Y021674D01*
X012477Y021674D01*
X012428Y021625D01*
X012372Y021490D01*
X012372Y021344D01*
X012428Y021209D01*
X012531Y021105D01*
X012666Y021049D01*
X012812Y021049D01*
X012948Y021105D01*
X013051Y021209D01*
X013107Y021344D01*
X013107Y021427D01*
X013135Y021398D01*
X013218Y021364D01*
X013218Y021349D01*
X013341Y021226D01*
X014126Y021226D01*
X014249Y021349D01*
X014249Y021917D01*
X014182Y021984D01*
X014189Y022007D01*
X014189Y022175D01*
X013782Y022175D01*
X013782Y022272D01*
X014189Y022272D01*
X014189Y022440D01*
X014178Y022479D01*
X014166Y022500D01*
X014913Y022500D01*
X014495Y022083D01*
X014495Y021391D01*
X014984Y020902D01*
X015676Y020902D01*
X016165Y021391D01*
X016165Y022083D01*
X015747Y022500D01*
X016927Y022500D01*
X016523Y022097D01*
X016523Y021826D01*
X017248Y021826D01*
X017248Y021726D01*
X016523Y021726D01*
X016523Y021455D01*
X016977Y021001D01*
X017248Y021001D01*
X017248Y021726D01*
X017348Y021726D01*
X017348Y021001D01*
X017619Y021001D01*
X018073Y021455D01*
X018073Y021726D01*
X017348Y021726D01*
X017348Y021826D01*
X018073Y021826D01*
X018073Y022097D01*
X017670Y022500D01*
X018545Y022500D01*
X018545Y022492D01*
X018945Y022492D01*
X018945Y022392D01*
X018545Y022392D01*
X018545Y022122D01*
X018555Y022084D01*
X018575Y022049D01*
X018603Y022022D01*
X018637Y022002D01*
X018675Y021992D01*
X018945Y021992D01*
X018945Y022392D01*
X019045Y022392D01*
X019045Y022492D01*
X019445Y022492D01*
X019445Y022500D01*
X019485Y022500D01*
X019485Y022340D01*
X019563Y022153D01*
X019706Y022009D01*
X019870Y021942D01*
X019706Y021874D01*
X019563Y021730D01*
X019495Y021567D01*
X019468Y021633D02*
X019523Y021633D01*
X019564Y021731D02*
X019427Y021731D01*
X019328Y021830D02*
X019662Y021830D01*
X019689Y022027D02*
X019393Y022027D01*
X019387Y022022D02*
X019415Y022049D01*
X019435Y022084D01*
X019445Y022122D01*
X019445Y022392D01*
X019045Y022392D01*
X019045Y021992D01*
X019315Y021992D01*
X019353Y022002D01*
X019387Y022022D01*
X019445Y022126D02*
X019590Y022126D01*
X019533Y022224D02*
X019445Y022224D01*
X019445Y022323D02*
X019493Y022323D01*
X019485Y022421D02*
X019045Y022421D01*
X019045Y022323D02*
X018945Y022323D01*
X018945Y022421D02*
X017750Y022421D01*
X017848Y022323D02*
X018545Y022323D01*
X018545Y022224D02*
X017947Y022224D01*
X018045Y022126D02*
X018545Y022126D01*
X018598Y022027D02*
X018073Y022027D01*
X018073Y021929D02*
X018838Y021929D01*
X018945Y022027D02*
X019045Y022027D01*
X019045Y022126D02*
X018945Y022126D01*
X018945Y022224D02*
X019045Y022224D01*
X019152Y021929D02*
X019838Y021929D01*
X020121Y021942D02*
X020284Y022009D01*
X020385Y022110D01*
X020385Y021773D01*
X020284Y021874D01*
X020121Y021942D01*
X020152Y021929D02*
X020385Y021929D01*
X020385Y022027D02*
X020302Y022027D01*
X020328Y021830D02*
X020385Y021830D01*
X020385Y021110D02*
X020385Y020773D01*
X020284Y020874D01*
X020121Y020942D01*
X020284Y021009D01*
X020385Y021110D01*
X020385Y021042D02*
X020317Y021042D01*
X020385Y020943D02*
X020125Y020943D01*
X020313Y020845D02*
X020385Y020845D01*
X019865Y020943D02*
X019125Y020943D01*
X018865Y020943D02*
X015717Y020943D01*
X015816Y021042D02*
X016937Y021042D01*
X016838Y021140D02*
X015914Y021140D01*
X016013Y021239D02*
X016740Y021239D01*
X016641Y021337D02*
X016111Y021337D01*
X016165Y021436D02*
X016543Y021436D01*
X016523Y021534D02*
X016165Y021534D01*
X016165Y021633D02*
X016523Y021633D01*
X016523Y021830D02*
X016165Y021830D01*
X016165Y021929D02*
X016523Y021929D01*
X016523Y022027D02*
X016165Y022027D01*
X016122Y022126D02*
X016552Y022126D01*
X016650Y022224D02*
X016024Y022224D01*
X015925Y022323D02*
X016749Y022323D01*
X016847Y022421D02*
X015827Y022421D01*
X016165Y021731D02*
X017248Y021731D01*
X017248Y021633D02*
X017348Y021633D01*
X017348Y021731D02*
X018564Y021731D01*
X018523Y021633D02*
X018073Y021633D01*
X018073Y021534D02*
X018485Y021534D01*
X018485Y021436D02*
X018054Y021436D01*
X017956Y021337D02*
X018486Y021337D01*
X018527Y021239D02*
X017857Y021239D01*
X017759Y021140D02*
X018575Y021140D01*
X018674Y021042D02*
X017660Y021042D01*
X017348Y021042D02*
X017248Y021042D01*
X017248Y021140D02*
X017348Y021140D01*
X017348Y021239D02*
X017248Y021239D01*
X017248Y021337D02*
X017348Y021337D01*
X017348Y021436D02*
X017248Y021436D01*
X017248Y021534D02*
X017348Y021534D01*
X018073Y021830D02*
X018662Y021830D01*
X018677Y020845D02*
X011495Y020845D01*
X011495Y020943D02*
X014942Y020943D01*
X014844Y021042D02*
X011495Y021042D01*
X011495Y021140D02*
X012496Y021140D01*
X012415Y021239D02*
X012150Y021239D01*
X012248Y021337D02*
X012374Y021337D01*
X012372Y021436D02*
X012260Y021436D01*
X012306Y021534D02*
X012390Y021534D01*
X012405Y021633D02*
X012436Y021633D01*
X012338Y021934D02*
X012968Y021934D01*
X013283Y021619D01*
X013719Y021619D01*
X013733Y021633D01*
X014249Y021633D02*
X014495Y021633D01*
X014495Y021731D02*
X014249Y021731D01*
X014249Y021830D02*
X014495Y021830D01*
X014495Y021929D02*
X014237Y021929D01*
X014189Y022027D02*
X014495Y022027D01*
X014538Y022126D02*
X014189Y022126D01*
X014346Y022170D02*
X013787Y022170D01*
X013733Y022224D01*
X013685Y022224D02*
X013043Y022224D01*
X013051Y022232D02*
X013012Y022194D01*
X013019Y022194D01*
X013115Y022154D01*
X013284Y021985D01*
X013278Y022007D01*
X013278Y022175D01*
X013685Y022175D01*
X013685Y022272D01*
X013278Y022272D01*
X013278Y022440D01*
X013289Y022479D01*
X013301Y022500D01*
X013107Y022500D01*
X013107Y022367D01*
X013051Y022232D01*
X013088Y022323D02*
X013278Y022323D01*
X013278Y022421D02*
X013107Y022421D01*
X013144Y022126D02*
X013278Y022126D01*
X013278Y022027D02*
X013242Y022027D01*
X013782Y022224D02*
X014636Y022224D01*
X014735Y022323D02*
X014189Y022323D01*
X014189Y022421D02*
X014833Y022421D01*
X014495Y021534D02*
X014249Y021534D01*
X014249Y021436D02*
X014495Y021436D01*
X014548Y021337D02*
X014237Y021337D01*
X014138Y021239D02*
X014647Y021239D01*
X014745Y021140D02*
X012983Y021140D01*
X013063Y021239D02*
X013329Y021239D01*
X013230Y021337D02*
X013104Y021337D01*
X012338Y021934D02*
X012037Y021633D01*
X011745Y021633D01*
X011604Y021633D01*
X011235Y021264D01*
X011235Y020556D01*
X011196Y020516D01*
X007102Y020516D01*
X007388Y020225D02*
X007419Y020256D01*
X009828Y020256D01*
X009740Y020168D01*
X009740Y019983D01*
X009748Y019975D01*
X009748Y019971D01*
X009760Y019959D01*
X009760Y019955D01*
X009771Y019943D01*
X009771Y019939D01*
X009783Y019927D01*
X009783Y019923D01*
X009795Y019912D01*
X009795Y019908D01*
X009807Y019896D01*
X009807Y019892D01*
X009819Y019880D01*
X009819Y019876D01*
X009831Y019864D01*
X009831Y019860D01*
X009543Y019860D01*
X009641Y019761D02*
X009906Y019761D01*
X009909Y019758D02*
X009909Y019754D01*
X009921Y019742D01*
X009921Y019738D01*
X009933Y019727D01*
X009933Y019723D01*
X009945Y019711D01*
X009945Y019707D01*
X009957Y019695D01*
X009957Y019691D01*
X009964Y019683D01*
X009968Y019679D01*
X009968Y019675D01*
X009980Y019664D01*
X009980Y019660D01*
X009992Y019648D01*
X009992Y019644D01*
X009996Y019640D01*
X009961Y019606D01*
X009910Y019606D01*
X009906Y019602D01*
X009898Y019602D01*
X009894Y019598D01*
X009891Y019598D01*
X009887Y019594D01*
X009883Y019594D01*
X009763Y019475D01*
X009763Y019584D01*
X009724Y019679D01*
X009650Y019753D01*
X009217Y020186D01*
X009122Y020225D01*
X007388Y020225D01*
X007416Y020254D02*
X009826Y020254D01*
X009740Y020155D02*
X009247Y020155D01*
X009346Y020057D02*
X009740Y020057D01*
X009760Y019958D02*
X009444Y019958D01*
X009070Y019965D02*
X009503Y019532D01*
X009503Y018942D01*
X010133Y018312D01*
X011550Y018312D01*
X011787Y018075D01*
X017850Y018075D01*
X017850Y017839D01*
X017850Y018075D02*
X018629Y018075D01*
X018995Y018442D01*
X018968Y018469D01*
X018609Y018776D02*
X017853Y018776D01*
X017853Y018678D02*
X018541Y018678D01*
X018500Y018579D02*
X017853Y018579D01*
X017853Y018481D02*
X018485Y018481D01*
X018485Y018382D02*
X017829Y018382D01*
X017853Y018875D02*
X018709Y018875D01*
X018793Y018973D02*
X017853Y018973D01*
X017853Y019072D02*
X018644Y019072D01*
X018556Y019170D02*
X017842Y019170D01*
X017801Y019269D02*
X018515Y019269D01*
X018485Y019367D02*
X017729Y019367D01*
X017602Y019466D02*
X018485Y019466D01*
X018494Y019564D02*
X013323Y019564D01*
X013422Y019466D02*
X017170Y019466D01*
X017043Y019367D02*
X013520Y019367D01*
X013619Y019269D02*
X016971Y019269D01*
X016930Y019170D02*
X013717Y019170D01*
X013276Y018678D02*
X012593Y018678D01*
X012593Y018763D02*
X012215Y018763D01*
X012215Y018821D01*
X012593Y018821D01*
X012593Y019082D01*
X012583Y019145D01*
X012565Y019202D01*
X012752Y019202D01*
X013442Y018512D01*
X013563Y018462D01*
X016918Y018462D01*
X016918Y018441D01*
X016962Y018335D01*
X012542Y018335D01*
X012563Y018378D01*
X012583Y018439D01*
X012593Y018502D01*
X012593Y018763D01*
X012593Y018875D02*
X013079Y018875D01*
X012981Y018973D02*
X012593Y018973D01*
X012593Y019072D02*
X012882Y019072D01*
X012784Y019170D02*
X012575Y019170D01*
X012215Y018776D02*
X013178Y018776D01*
X013375Y018579D02*
X012593Y018579D01*
X012590Y018481D02*
X013518Y018481D01*
X012565Y018382D02*
X016943Y018382D01*
X017441Y017815D02*
X017441Y017758D01*
X017504Y017608D01*
X017618Y017493D01*
X017768Y017431D01*
X017931Y017431D01*
X018081Y017493D01*
X018196Y017608D01*
X018258Y017758D01*
X018258Y017815D01*
X018648Y017815D01*
X018563Y017730D01*
X018485Y017543D01*
X018485Y017340D01*
X018501Y017302D01*
X018398Y017302D01*
X018248Y017240D01*
X018162Y017154D01*
X006501Y017154D01*
X006461Y017193D01*
X006389Y017223D01*
X006412Y017269D01*
X006434Y017336D01*
X006443Y017392D01*
X006045Y017392D01*
X006045Y017492D01*
X006373Y017492D01*
X006442Y017422D01*
X006538Y017382D01*
X007271Y017382D01*
X007367Y017422D01*
X007642Y017697D01*
X008413Y017697D01*
X010885Y017697D01*
X010889Y017687D01*
X011004Y017572D01*
X011154Y017510D01*
X011317Y017510D01*
X011467Y017572D01*
X011581Y017687D01*
X011644Y017837D01*
X011644Y017853D01*
X011735Y017815D01*
X017441Y017815D01*
X017441Y017791D02*
X011625Y017791D01*
X011584Y017693D02*
X017468Y017693D01*
X017517Y017594D02*
X011489Y017594D01*
X011235Y017918D02*
X011196Y017957D01*
X008361Y017957D01*
X008249Y018070D01*
X008249Y018902D01*
X008230Y018883D01*
X008243Y018870D01*
X008736Y018875D02*
X009249Y018875D01*
X009243Y018890D02*
X009283Y018794D01*
X009860Y018217D01*
X008509Y018217D01*
X008509Y018417D01*
X008613Y018417D01*
X008736Y018540D01*
X008736Y019226D01*
X008704Y019257D01*
X008736Y019288D01*
X008736Y019705D01*
X008962Y019705D01*
X009243Y019424D01*
X009243Y018890D01*
X009243Y018973D02*
X008736Y018973D01*
X008736Y019072D02*
X009243Y019072D01*
X009243Y019170D02*
X008736Y019170D01*
X008716Y019269D02*
X009243Y019269D01*
X009243Y019367D02*
X008736Y019367D01*
X008736Y019466D02*
X009202Y019466D01*
X009103Y019564D02*
X008736Y019564D01*
X008736Y019663D02*
X009005Y019663D01*
X009070Y019965D02*
X008243Y019965D01*
X008230Y019952D01*
X008230Y019631D01*
X007889Y019965D02*
X007868Y019945D01*
X007889Y019965D02*
X008243Y019965D01*
X007889Y019965D02*
X007062Y019965D01*
X007127Y019900D01*
X007127Y019630D01*
X007062Y019965D02*
X005472Y019965D01*
X004995Y020442D01*
X005313Y020845D02*
X005677Y020845D01*
X005706Y020874D02*
X005563Y020730D01*
X005495Y020567D01*
X005428Y020730D01*
X005284Y020874D01*
X005121Y020942D01*
X005284Y021009D01*
X005428Y021153D01*
X005505Y021340D01*
X005505Y021543D01*
X005428Y021730D01*
X005284Y021874D01*
X005097Y021952D01*
X004894Y021952D01*
X004763Y021897D01*
X004763Y021992D01*
X004945Y021992D01*
X004945Y022392D01*
X005045Y022392D01*
X005045Y022492D01*
X005445Y022492D01*
X005445Y022500D01*
X005485Y022500D01*
X005485Y022340D01*
X005563Y022153D01*
X005706Y022009D01*
X005894Y021932D01*
X006097Y021932D01*
X006284Y022009D01*
X006428Y022153D01*
X006505Y022340D01*
X006505Y022500D01*
X007842Y022500D01*
X007830Y022489D01*
X007785Y022427D01*
X007750Y022358D01*
X007726Y022285D01*
X007716Y022220D01*
X008154Y022220D01*
X008154Y022120D01*
X008254Y022120D01*
X008254Y022220D01*
X008692Y022220D01*
X008681Y022285D01*
X008658Y022358D01*
X008623Y022427D01*
X008577Y022489D01*
X008566Y022500D01*
X010598Y022500D01*
X010586Y022489D01*
X010541Y022427D01*
X010506Y022358D01*
X010482Y022285D01*
X010472Y022220D01*
X010910Y022220D01*
X010910Y022120D01*
X011010Y022120D01*
X011010Y022220D01*
X011448Y022220D01*
X011439Y022272D01*
X011697Y022272D01*
X011697Y022175D01*
X011290Y022175D01*
X011290Y022120D01*
X011010Y022120D01*
X011010Y021682D01*
X011074Y021692D01*
X011148Y021716D01*
X011216Y021751D01*
X011230Y021761D01*
X011230Y021627D01*
X011088Y021485D01*
X011015Y021412D01*
X010992Y021356D01*
X010971Y021407D01*
X010836Y021541D01*
X010661Y021614D01*
X010471Y021614D01*
X010296Y021541D01*
X010161Y021407D01*
X010089Y021231D01*
X010089Y021042D01*
X009075Y021042D01*
X009002Y020866D01*
X008913Y020776D01*
X010251Y020776D01*
X010161Y020866D01*
X010089Y021042D01*
X010089Y021140D02*
X009075Y021140D01*
X009075Y021231D02*
X009002Y021407D01*
X008868Y021541D01*
X008693Y021614D01*
X008503Y021614D01*
X008327Y021541D01*
X008193Y021407D01*
X008120Y021231D01*
X008120Y021042D01*
X006202Y021042D01*
X006231Y021057D02*
X006288Y021098D01*
X006338Y021148D01*
X006380Y021206D01*
X006412Y021269D01*
X006434Y021336D01*
X006443Y021392D01*
X006045Y021392D01*
X006045Y021492D01*
X005945Y021492D01*
X005945Y021889D01*
X005890Y021880D01*
X005823Y021859D01*
X005759Y021826D01*
X005702Y021785D01*
X005652Y021735D01*
X005610Y021677D01*
X005578Y021614D01*
X005556Y021547D01*
X005548Y021492D01*
X005945Y021492D01*
X005945Y021392D01*
X005548Y021392D01*
X005556Y021336D01*
X005578Y021269D01*
X005610Y021206D01*
X005652Y021148D01*
X005702Y021098D01*
X005759Y021057D01*
X005823Y021025D01*
X005890Y021003D01*
X005945Y020994D01*
X005945Y021392D01*
X006045Y021392D01*
X006045Y020994D01*
X006101Y021003D01*
X006168Y021025D01*
X006231Y021057D01*
X006331Y021140D02*
X008120Y021140D01*
X008120Y021042D02*
X008193Y020866D01*
X008283Y020776D01*
X007419Y020776D01*
X007333Y020862D01*
X007183Y020924D01*
X007020Y020924D01*
X006870Y020862D01*
X006756Y020748D01*
X006693Y020598D01*
X006693Y020435D01*
X006756Y020285D01*
X006816Y020225D01*
X006458Y020225D01*
X006505Y020340D01*
X006505Y020543D01*
X006428Y020730D01*
X006284Y020874D01*
X006097Y020952D01*
X005894Y020952D01*
X005706Y020874D01*
X005579Y020746D02*
X005412Y020746D01*
X005462Y020648D02*
X005529Y020648D01*
X005495Y020316D02*
X005493Y020311D01*
X005500Y020305D01*
X005495Y020316D01*
X005126Y019944D02*
X005132Y019937D01*
X005121Y019942D01*
X005126Y019944D01*
X004870Y019942D02*
X004763Y019897D01*
X004763Y019986D01*
X004870Y019942D01*
X004829Y019958D02*
X004763Y019958D01*
X005438Y019705D02*
X005552Y019705D01*
X005495Y019567D01*
X005438Y019705D01*
X005456Y019663D02*
X005535Y019663D01*
X005495Y019316D02*
X005448Y019202D01*
X005543Y019202D01*
X005495Y019316D01*
X005476Y019269D02*
X005515Y019269D01*
X005495Y018942D02*
X007107Y018942D01*
X007127Y018882D01*
X007141Y018868D01*
X007141Y018351D01*
X007527Y018217D02*
X007549Y018270D01*
X007549Y018432D01*
X007542Y018449D01*
X007632Y018539D01*
X007632Y019225D01*
X007601Y019256D01*
X007632Y019287D01*
X007632Y019705D01*
X007725Y019705D01*
X007725Y019288D01*
X007756Y019257D01*
X007725Y019226D01*
X007725Y018540D01*
X007848Y018417D01*
X007989Y018417D01*
X007989Y018217D01*
X007527Y018217D01*
X007549Y018284D02*
X007989Y018284D01*
X007989Y018382D02*
X007549Y018382D01*
X007575Y018481D02*
X007784Y018481D01*
X007725Y018579D02*
X007632Y018579D01*
X007632Y018678D02*
X007725Y018678D01*
X007725Y018776D02*
X007632Y018776D01*
X007632Y018875D02*
X007725Y018875D01*
X007725Y018973D02*
X007632Y018973D01*
X007632Y019072D02*
X007725Y019072D01*
X007725Y019170D02*
X007632Y019170D01*
X007615Y019269D02*
X007744Y019269D01*
X007725Y019367D02*
X007632Y019367D01*
X007632Y019466D02*
X007725Y019466D01*
X007725Y019564D02*
X007632Y019564D01*
X007632Y019663D02*
X007725Y019663D01*
X006622Y019663D02*
X006456Y019663D01*
X006438Y019705D02*
X006622Y019705D01*
X006622Y019287D01*
X006653Y019256D01*
X006622Y019225D01*
X006622Y019202D01*
X006448Y019202D01*
X006505Y019340D01*
X006505Y019543D01*
X006438Y019705D01*
X006496Y019564D02*
X006622Y019564D01*
X006622Y019466D02*
X006505Y019466D01*
X006505Y019367D02*
X006622Y019367D01*
X006640Y019269D02*
X006476Y019269D01*
X006448Y018682D02*
X006622Y018682D01*
X006622Y018539D01*
X006733Y018428D01*
X006733Y018270D01*
X006795Y018120D01*
X006910Y018005D01*
X007060Y017943D01*
X007153Y017943D01*
X007112Y017902D01*
X006697Y017902D01*
X006433Y018166D01*
X006505Y018340D01*
X006505Y018543D01*
X006448Y018682D01*
X006449Y018678D02*
X006622Y018678D01*
X006622Y018579D02*
X006490Y018579D01*
X006505Y018481D02*
X006680Y018481D01*
X006733Y018382D02*
X006505Y018382D01*
X006482Y018284D02*
X006733Y018284D01*
X006768Y018185D02*
X006441Y018185D01*
X006513Y018087D02*
X006828Y018087D01*
X006950Y017988D02*
X006611Y017988D01*
X006275Y017957D02*
X006590Y017642D01*
X007220Y017642D01*
X007535Y017957D01*
X008361Y017957D01*
X008509Y018284D02*
X009793Y018284D01*
X009695Y018382D02*
X008509Y018382D01*
X008676Y018481D02*
X009596Y018481D01*
X009498Y018579D02*
X008736Y018579D01*
X008736Y018678D02*
X009399Y018678D01*
X009301Y018776D02*
X008736Y018776D01*
X009763Y019564D02*
X009853Y019564D01*
X009730Y019663D02*
X009980Y019663D01*
X009964Y019683D02*
X009964Y019683D01*
X009909Y019758D02*
X009897Y019770D01*
X009897Y019774D01*
X009886Y019786D01*
X009886Y019790D01*
X009882Y019794D01*
X009882Y019794D01*
X009874Y019801D01*
X009874Y019805D01*
X009866Y019813D01*
X009866Y019817D01*
X009854Y019829D01*
X009854Y019833D01*
X009842Y019845D01*
X009842Y019849D01*
X009831Y019860D01*
X010680Y019663D02*
X011333Y019663D01*
X011431Y019761D02*
X010754Y019761D01*
X010825Y019860D02*
X011598Y019860D01*
X011234Y019564D02*
X010819Y019564D01*
X010785Y019598D02*
X010785Y019598D01*
X010913Y019466D02*
X011136Y019466D01*
X010861Y019908D02*
X010861Y019908D01*
X010900Y019958D02*
X018829Y019958D01*
X018692Y019860D02*
X012960Y019860D01*
X013126Y019761D02*
X018594Y019761D01*
X018535Y019663D02*
X013225Y019663D01*
X012157Y018821D02*
X012157Y018763D01*
X011778Y018763D01*
X011778Y018502D01*
X011788Y018442D01*
X011698Y018532D01*
X011602Y018572D01*
X010241Y018572D01*
X010154Y018659D01*
X010628Y018659D01*
X010631Y018663D01*
X010651Y018663D01*
X010655Y018667D01*
X010663Y018667D01*
X010667Y018671D01*
X010675Y018671D01*
X010679Y018674D01*
X010683Y018674D01*
X010687Y018678D01*
X010690Y018678D01*
X010694Y018682D01*
X010698Y018682D01*
X010702Y018686D01*
X010706Y018686D01*
X010710Y018690D01*
X010714Y018694D01*
X010718Y018694D01*
X010722Y018698D01*
X010726Y018702D01*
X010730Y018706D01*
X010734Y018710D01*
X010738Y018710D01*
X010742Y018714D01*
X010814Y018786D01*
X010925Y018674D01*
X011075Y018612D01*
X011238Y018612D01*
X011388Y018674D01*
X011503Y018789D01*
X011565Y018939D01*
X011565Y018962D01*
X011805Y019202D01*
X011807Y019202D01*
X011788Y019145D01*
X011778Y019082D01*
X011778Y018821D01*
X012157Y018821D01*
X012157Y018776D02*
X011490Y018776D01*
X011538Y018875D02*
X011778Y018875D01*
X011778Y018973D02*
X011577Y018973D01*
X011675Y019072D02*
X011778Y019072D01*
X011774Y019170D02*
X011797Y019170D01*
X011778Y018678D02*
X011391Y018678D01*
X011778Y018579D02*
X010233Y018579D01*
X010686Y018678D02*
X010922Y018678D01*
X010823Y018776D02*
X010804Y018776D01*
X011749Y018481D02*
X011782Y018481D01*
X011983Y017524D02*
X011983Y017288D01*
X016708Y017288D01*
X016983Y017564D01*
X017616Y017496D02*
X007441Y017496D01*
X007539Y017594D02*
X010982Y017594D01*
X010887Y017693D02*
X007638Y017693D01*
X007308Y017397D02*
X018485Y017397D01*
X018485Y017496D02*
X018084Y017496D01*
X018182Y017594D02*
X018507Y017594D01*
X018547Y017693D02*
X018231Y017693D01*
X018258Y017791D02*
X018624Y017791D01*
X018858Y017937D02*
X018865Y017944D01*
X018870Y017942D01*
X018858Y017937D01*
X018390Y017299D02*
X006422Y017299D01*
X006445Y017200D02*
X018209Y017200D01*
X018479Y016894D02*
X006393Y016894D01*
X006314Y016973D01*
X005527Y016973D01*
X005505Y017381D02*
X005505Y017543D01*
X005493Y017572D01*
X005619Y017697D01*
X005625Y017697D01*
X005610Y017677D01*
X005578Y017614D01*
X005556Y017547D01*
X005548Y017492D01*
X005945Y017492D01*
X005945Y017392D01*
X005548Y017392D01*
X005549Y017381D01*
X005505Y017381D01*
X005505Y017397D02*
X005945Y017397D01*
X005995Y017442D02*
X006149Y017288D01*
X011983Y017288D01*
X010703Y016018D02*
X014930Y016018D01*
X014915Y016003D02*
X015004Y016092D01*
X014945Y016151D01*
X014924Y016201D01*
X007537Y016201D01*
X007461Y016125D01*
X008139Y016125D01*
X008163Y016102D01*
X008186Y016125D01*
X008950Y016125D01*
X008978Y016098D01*
X009005Y016125D01*
X009769Y016125D01*
X009800Y016094D01*
X009831Y016125D01*
X010596Y016125D01*
X010719Y016002D01*
X010719Y015919D01*
X014915Y015919D01*
X014915Y016003D01*
X014915Y015920D02*
X010719Y015920D01*
X010604Y016117D02*
X014979Y016117D01*
X015291Y016383D02*
X015289Y016398D01*
X015285Y016413D01*
X015278Y016427D01*
X015268Y016439D01*
X015256Y016449D01*
X015242Y016456D01*
X015227Y016460D01*
X015212Y016462D01*
X015212Y016461D02*
X007220Y016461D01*
X006839Y016314D02*
X006494Y016314D01*
X006505Y016340D02*
X006505Y016543D01*
X006467Y016634D01*
X006850Y016634D01*
X006812Y016542D01*
X006812Y016380D01*
X006874Y016230D01*
X006979Y016125D01*
X006572Y016125D01*
X006449Y016002D01*
X006449Y015680D01*
X006428Y015730D01*
X006284Y015874D01*
X006121Y015942D01*
X006284Y016009D01*
X006428Y016153D01*
X006505Y016340D01*
X006505Y016412D02*
X006812Y016412D01*
X006812Y016511D02*
X006505Y016511D01*
X006478Y016609D02*
X006839Y016609D01*
X006888Y016215D02*
X006454Y016215D01*
X006392Y016117D02*
X006563Y016117D01*
X006465Y016018D02*
X006293Y016018D01*
X006173Y015920D02*
X006449Y015920D01*
X006449Y015821D02*
X006337Y015821D01*
X006431Y015723D02*
X006449Y015723D01*
X006954Y015659D02*
X007757Y015659D01*
X007757Y015648D01*
X007771Y015634D01*
X007757Y015659D02*
X008568Y015659D01*
X009387Y015659D01*
X010214Y015659D01*
X012377Y015659D01*
X012377Y015438D01*
X012377Y015659D02*
X015341Y015659D01*
X015400Y015719D01*
X015780Y015329D02*
X015781Y015329D01*
X015781Y015230D02*
X014806Y015230D01*
X014857Y015280D02*
X015054Y015083D01*
X015054Y014768D01*
X015251Y014571D01*
X016747Y014571D01*
X016724Y015033D02*
X017204Y015033D01*
X017442Y015345D02*
X017456Y015359D01*
X017442Y015345D02*
X016267Y015345D01*
X015809Y015033D02*
X014909Y015033D01*
X014909Y014935D02*
X018854Y014935D01*
X019472Y015624D02*
X019519Y015624D01*
X019560Y015723D02*
X019431Y015723D01*
X019337Y015821D02*
X019654Y015821D01*
X020121Y015942D02*
X020284Y016009D01*
X020385Y016110D01*
X020385Y015773D01*
X020284Y015874D01*
X020121Y015942D01*
X020173Y015920D02*
X020385Y015920D01*
X020385Y016018D02*
X020293Y016018D01*
X020337Y015821D02*
X020385Y015821D01*
X020385Y016773D02*
X020284Y016874D01*
X020121Y016942D01*
X020284Y017009D01*
X020385Y017110D01*
X020385Y016773D01*
X020385Y016806D02*
X020352Y016806D01*
X020385Y016905D02*
X020209Y016905D01*
X020270Y017003D02*
X020385Y017003D01*
X020377Y017102D02*
X020385Y017102D01*
X020385Y017773D02*
X020385Y018110D01*
X020284Y018009D01*
X020121Y017942D01*
X020284Y017874D01*
X020385Y017773D01*
X020385Y017791D02*
X020367Y017791D01*
X020385Y017890D02*
X020245Y017890D01*
X020234Y017988D02*
X020385Y017988D01*
X020385Y018087D02*
X020362Y018087D01*
X020385Y018773D02*
X020284Y018874D01*
X020121Y018942D01*
X020284Y019009D01*
X020385Y019110D01*
X020385Y018773D01*
X020385Y018776D02*
X020382Y018776D01*
X020385Y018875D02*
X020282Y018875D01*
X020198Y018973D02*
X020385Y018973D01*
X020385Y019072D02*
X020347Y019072D01*
X020385Y019773D02*
X020284Y019874D01*
X020121Y019942D01*
X020284Y020009D01*
X020385Y020110D01*
X020385Y019773D01*
X020385Y019860D02*
X020298Y019860D01*
X020385Y019958D02*
X020162Y019958D01*
X020332Y020057D02*
X020385Y020057D01*
X018659Y020057D02*
X010920Y020057D01*
X010920Y020155D02*
X018562Y020155D01*
X018521Y020254D02*
X010830Y020254D01*
X010881Y020776D02*
X010971Y020866D01*
X010975Y020877D01*
X010975Y020776D01*
X010881Y020776D01*
X010950Y020845D02*
X010975Y020845D01*
X011495Y020746D02*
X018579Y020746D01*
X018529Y020648D02*
X011495Y020648D01*
X011495Y020549D02*
X018488Y020549D01*
X018485Y020451D02*
X011473Y020451D01*
X011400Y020352D02*
X018485Y020352D01*
X016668Y019729D02*
X016472Y019926D01*
X014424Y019926D01*
X012466Y022194D02*
X012286Y022194D01*
X012200Y022158D01*
X012200Y022175D01*
X011794Y022175D01*
X011794Y022272D01*
X012200Y022272D01*
X012200Y022440D01*
X012190Y022479D01*
X012178Y022500D01*
X012372Y022500D01*
X012372Y022367D01*
X012428Y022232D01*
X012466Y022194D01*
X012436Y022224D02*
X011794Y022224D01*
X011745Y022224D02*
X011526Y022224D01*
X011039Y021737D01*
X010999Y021737D01*
X010960Y021776D01*
X010960Y022170D01*
X011010Y022126D02*
X011290Y022126D01*
X011447Y022224D02*
X011697Y022224D01*
X012200Y022323D02*
X012390Y022323D01*
X012372Y022421D02*
X012200Y022421D01*
X011230Y021731D02*
X011178Y021731D01*
X011230Y021633D02*
X006403Y021633D01*
X006412Y021614D02*
X006380Y021677D01*
X006338Y021735D01*
X006288Y021785D01*
X006231Y021826D01*
X006168Y021859D01*
X006101Y021880D01*
X006045Y021889D01*
X006045Y021492D01*
X006443Y021492D01*
X006434Y021547D01*
X006412Y021614D01*
X006436Y021534D02*
X008321Y021534D01*
X008222Y021436D02*
X006045Y021436D01*
X005995Y021442D02*
X008027Y021442D01*
X008204Y021619D01*
X008204Y022170D01*
X008254Y022126D02*
X010910Y022126D01*
X010910Y022120D02*
X010472Y022120D01*
X010482Y022055D01*
X010506Y021982D01*
X010541Y021913D01*
X010586Y021851D01*
X010641Y021796D01*
X010703Y021751D01*
X010772Y021716D01*
X010845Y021692D01*
X010910Y021682D01*
X010910Y022120D01*
X010910Y022027D02*
X011010Y022027D01*
X011010Y021929D02*
X010910Y021929D01*
X010910Y021830D02*
X011010Y021830D01*
X010999Y021737D02*
X008322Y021737D01*
X008204Y021619D01*
X008254Y021682D02*
X008319Y021692D01*
X008392Y021716D01*
X008460Y021751D01*
X008523Y021796D01*
X008577Y021851D01*
X008623Y021913D01*
X008658Y021982D01*
X008681Y022055D01*
X008692Y022120D01*
X008254Y022120D01*
X008254Y021682D01*
X008254Y021731D02*
X008154Y021731D01*
X008154Y021682D02*
X008154Y022120D01*
X007716Y022120D01*
X007726Y022055D01*
X007750Y021982D01*
X007785Y021913D01*
X007830Y021851D01*
X007885Y021796D01*
X007947Y021751D01*
X008016Y021716D01*
X008089Y021692D01*
X008154Y021682D01*
X008154Y021830D02*
X008254Y021830D01*
X008254Y021929D02*
X008154Y021929D01*
X008154Y022027D02*
X008254Y022027D01*
X008154Y022126D02*
X006400Y022126D01*
X006457Y022224D02*
X007717Y022224D01*
X007739Y022323D02*
X006498Y022323D01*
X006505Y022421D02*
X007782Y022421D01*
X007736Y022027D02*
X006302Y022027D01*
X006224Y021830D02*
X007851Y021830D01*
X007777Y021929D02*
X005152Y021929D01*
X005045Y021992D02*
X005315Y021992D01*
X005353Y022002D01*
X005387Y022022D01*
X005415Y022049D01*
X005435Y022084D01*
X005445Y022122D01*
X005445Y022392D01*
X005045Y022392D01*
X005045Y021992D01*
X005045Y022027D02*
X004945Y022027D01*
X004945Y022126D02*
X005045Y022126D01*
X005045Y022224D02*
X004945Y022224D01*
X004945Y022323D02*
X005045Y022323D01*
X005045Y022421D02*
X005485Y022421D01*
X005493Y022323D02*
X005445Y022323D01*
X005445Y022224D02*
X005533Y022224D01*
X005590Y022126D02*
X005445Y022126D01*
X005393Y022027D02*
X005689Y022027D01*
X005766Y021830D02*
X005328Y021830D01*
X005427Y021731D02*
X005650Y021731D01*
X005588Y021633D02*
X005468Y021633D01*
X005505Y021534D02*
X005554Y021534D01*
X005505Y021436D02*
X005945Y021436D01*
X005995Y021442D02*
X004995Y022442D01*
X004838Y021929D02*
X004763Y021929D01*
X005504Y021337D02*
X005556Y021337D01*
X005593Y021239D02*
X005463Y021239D01*
X005415Y021140D02*
X005660Y021140D01*
X005788Y021042D02*
X005317Y021042D01*
X005125Y020943D02*
X005874Y020943D01*
X005945Y021042D02*
X006045Y021042D01*
X006045Y021140D02*
X005945Y021140D01*
X005945Y021239D02*
X006045Y021239D01*
X006045Y021337D02*
X005945Y021337D01*
X005945Y021534D02*
X006045Y021534D01*
X006045Y021633D02*
X005945Y021633D01*
X005945Y021731D02*
X006045Y021731D01*
X006045Y021830D02*
X005945Y021830D01*
X006341Y021731D02*
X007986Y021731D01*
X008164Y021337D02*
X006434Y021337D01*
X006397Y021239D02*
X008123Y021239D01*
X008161Y020943D02*
X006116Y020943D01*
X006313Y020845D02*
X006853Y020845D01*
X006755Y020746D02*
X006412Y020746D01*
X006462Y020648D02*
X006714Y020648D01*
X006693Y020549D02*
X006503Y020549D01*
X006505Y020451D02*
X006693Y020451D01*
X006728Y020352D02*
X006505Y020352D01*
X006470Y020254D02*
X006787Y020254D01*
X007350Y020845D02*
X008214Y020845D01*
X008981Y020845D02*
X010183Y020845D01*
X010129Y020943D02*
X009034Y020943D01*
X009075Y021042D02*
X009075Y021231D01*
X009072Y021239D02*
X010092Y021239D01*
X010133Y021337D02*
X009031Y021337D01*
X008973Y021436D02*
X010191Y021436D01*
X010289Y021534D02*
X008875Y021534D01*
X008556Y021830D02*
X010607Y021830D01*
X010533Y021929D02*
X008630Y021929D01*
X008672Y022027D02*
X010491Y022027D01*
X010473Y022224D02*
X008691Y022224D01*
X008669Y022323D02*
X010495Y022323D01*
X010538Y022421D02*
X008625Y022421D01*
X008422Y021731D02*
X010742Y021731D01*
X010910Y021731D02*
X011010Y021731D01*
X011138Y021534D02*
X010843Y021534D01*
X010942Y021436D02*
X011039Y021436D01*
X006501Y017397D02*
X006045Y017397D01*
X005622Y017693D02*
X005614Y017693D01*
X005572Y017594D02*
X005516Y017594D01*
X005505Y017496D02*
X005548Y017496D01*
X005511Y017957D02*
X006275Y017957D01*
X005511Y017957D02*
X004995Y017442D01*
X004763Y017897D02*
X004870Y017942D01*
X004763Y017986D01*
X004763Y017897D01*
X005121Y017942D02*
X005126Y017940D01*
X005132Y017946D01*
X005121Y017942D01*
X005453Y018215D02*
X005495Y018316D01*
X005536Y018217D01*
X005459Y018217D01*
X005453Y018215D01*
X005482Y018284D02*
X005508Y018284D01*
X005495Y018567D02*
X005500Y018579D01*
X005493Y018572D01*
X005495Y018567D01*
X005495Y018942D02*
X004995Y018442D01*
X004763Y018897D02*
X004870Y018942D01*
X004763Y018986D01*
X004763Y018897D01*
X004763Y018973D02*
X004793Y018973D01*
X005121Y018942D02*
X005126Y018940D01*
X005132Y018946D01*
X005121Y018942D01*
X004763Y016986D02*
X004763Y016897D01*
X004870Y016942D01*
X004763Y016986D01*
X004763Y016905D02*
X004781Y016905D01*
X005495Y016316D02*
X005563Y016153D01*
X005706Y016009D01*
X005870Y015942D01*
X005706Y015874D01*
X005563Y015730D01*
X005495Y015567D01*
X005428Y015730D01*
X005284Y015874D01*
X005121Y015942D01*
X005284Y016009D01*
X005428Y016153D01*
X005495Y016316D01*
X005494Y016314D02*
X005496Y016314D01*
X005454Y016215D02*
X005537Y016215D01*
X005599Y016117D02*
X005392Y016117D01*
X005293Y016018D02*
X005697Y016018D01*
X005818Y015920D02*
X005173Y015920D01*
X005337Y015821D02*
X005654Y015821D01*
X005560Y015723D02*
X005431Y015723D01*
X005472Y015624D02*
X005519Y015624D01*
X005495Y015316D02*
X005557Y015166D01*
X005503Y015112D01*
X005270Y014880D01*
X005121Y014942D01*
X005284Y015009D01*
X005428Y015153D01*
X005495Y015316D01*
X005460Y015230D02*
X005531Y015230D01*
X005523Y015132D02*
X005407Y015132D01*
X005424Y015033D02*
X005308Y015033D01*
X005326Y014935D02*
X005137Y014935D01*
X004870Y014942D02*
X004763Y014897D01*
X004763Y014986D01*
X004870Y014942D01*
X004854Y014935D02*
X004763Y014935D01*
X005487Y014729D02*
X005724Y014965D01*
X006963Y014965D01*
X006954Y014911D01*
X006686Y014445D02*
X006645Y014404D01*
X006452Y014210D01*
X006505Y014340D01*
X006505Y014512D01*
X006572Y014445D01*
X006686Y014445D01*
X006684Y014442D02*
X006505Y014442D01*
X006505Y014344D02*
X006585Y014344D01*
X006487Y014245D02*
X006466Y014245D01*
X006226Y013985D02*
X006165Y013923D01*
X006121Y013942D01*
X006226Y013985D01*
X006191Y013950D02*
X006141Y013950D01*
X005870Y013942D02*
X005747Y013992D01*
X005747Y013891D01*
X005870Y013942D01*
X005849Y013950D02*
X005747Y013950D01*
X005487Y013934D02*
X005487Y014729D01*
X005487Y013934D02*
X004995Y013442D01*
X004813Y012965D02*
X004763Y012965D01*
X004763Y012986D02*
X004763Y012897D01*
X004870Y012942D01*
X004763Y012986D01*
X005121Y012942D02*
X005284Y012874D01*
X005428Y012730D01*
X005495Y012567D01*
X005563Y012730D01*
X005706Y012874D01*
X005870Y012942D01*
X005706Y013009D01*
X005563Y013153D01*
X005495Y013316D01*
X005428Y013153D01*
X005284Y013009D01*
X005121Y012942D01*
X005177Y012965D02*
X005813Y012965D01*
X005699Y012866D02*
X005292Y012866D01*
X005390Y012768D02*
X005600Y012768D01*
X005538Y012669D02*
X005453Y012669D01*
X005494Y012571D02*
X005497Y012571D01*
X005495Y012316D02*
X005445Y012194D01*
X005546Y012194D01*
X005495Y012316D01*
X005478Y012275D02*
X005512Y012275D01*
X005448Y011934D02*
X006492Y011934D01*
X006954Y012411D01*
X006865Y011945D02*
X006713Y011789D01*
X006713Y011786D01*
X006678Y011751D01*
X006643Y011716D01*
X006641Y011715D01*
X006639Y011713D01*
X006594Y011694D01*
X006548Y011675D01*
X006546Y011675D01*
X006544Y011674D01*
X006494Y011674D01*
X006451Y011673D01*
X006505Y011543D01*
X006505Y011340D01*
X006451Y011209D01*
X007052Y011209D01*
X007031Y011230D01*
X006969Y011380D01*
X006969Y011542D01*
X007031Y011692D01*
X007146Y011807D01*
X007296Y011869D01*
X007418Y011869D01*
X007494Y011945D01*
X007375Y011945D01*
X007355Y011965D01*
X007336Y011945D01*
X006865Y011945D01*
X006803Y011881D02*
X007430Y011881D01*
X007122Y011783D02*
X006709Y011783D01*
X006571Y011684D02*
X007028Y011684D01*
X006987Y011586D02*
X006487Y011586D01*
X006505Y011487D02*
X006969Y011487D01*
X006969Y011389D02*
X006505Y011389D01*
X006485Y011290D02*
X007006Y011290D01*
X007377Y011461D02*
X007757Y011841D01*
X007757Y012411D01*
X008017Y011945D02*
X008139Y011945D01*
X008163Y011969D01*
X008186Y011945D01*
X008308Y011945D01*
X008308Y011933D01*
X008298Y011923D01*
X008259Y011884D01*
X007785Y011410D01*
X007785Y011502D01*
X007977Y011694D01*
X008017Y011789D01*
X008017Y011945D01*
X008017Y011881D02*
X008256Y011881D01*
X008158Y011783D02*
X008014Y011783D01*
X008059Y011684D02*
X007968Y011684D01*
X007961Y011586D02*
X007870Y011586D01*
X007862Y011487D02*
X007785Y011487D01*
X008204Y011093D02*
X008374Y011093D01*
X008302Y011192D02*
X008472Y011192D01*
X008401Y011290D02*
X008571Y011290D01*
X008499Y011389D02*
X008669Y011389D01*
X008598Y011487D02*
X008768Y011487D01*
X008696Y011586D02*
X008866Y011586D01*
X008788Y011678D02*
X008828Y011774D01*
X008828Y011945D01*
X008950Y011945D01*
X008978Y011973D01*
X009005Y011945D01*
X009125Y011945D01*
X009125Y011845D01*
X008214Y010934D01*
X008044Y010934D01*
X008627Y011516D01*
X008666Y011556D01*
X008788Y011678D01*
X008791Y011684D02*
X008965Y011684D01*
X009063Y011783D02*
X008828Y011783D01*
X008828Y011881D02*
X009125Y011881D01*
X009385Y011737D02*
X009385Y012409D01*
X009387Y012411D01*
X009645Y011945D02*
X009645Y011695D01*
X009895Y011945D01*
X009831Y011945D01*
X009800Y011976D01*
X009769Y011945D01*
X009645Y011945D01*
X009645Y011881D02*
X009831Y011881D01*
X009733Y011783D02*
X009645Y011783D01*
X009385Y011737D02*
X008322Y010674D01*
X006432Y010674D01*
X006200Y010442D01*
X005995Y010442D01*
X005607Y010108D02*
X005383Y010108D01*
X005428Y010153D02*
X005495Y010316D01*
X005563Y010153D01*
X005706Y010009D01*
X005870Y009942D01*
X005706Y009874D01*
X005563Y009730D01*
X005495Y009567D01*
X005428Y009730D01*
X005284Y009874D01*
X005121Y009942D01*
X005284Y010009D01*
X005428Y010153D01*
X005450Y010207D02*
X005540Y010207D01*
X005500Y010305D02*
X005491Y010305D01*
X005285Y010010D02*
X005706Y010010D01*
X005797Y009911D02*
X005194Y009911D01*
X005345Y009813D02*
X005645Y009813D01*
X005556Y009714D02*
X005434Y009714D01*
X005475Y009616D02*
X005515Y009616D01*
X005495Y009316D02*
X005563Y009153D01*
X005706Y009009D01*
X005870Y008942D01*
X005706Y008874D01*
X005563Y008730D01*
X005495Y008567D01*
X005428Y008730D01*
X005428Y008729D02*
X005562Y008729D01*
X005522Y008631D02*
X005469Y008631D01*
X005428Y008730D02*
X005284Y008874D01*
X005121Y008942D01*
X005284Y009009D01*
X005428Y009153D01*
X005495Y009316D01*
X005456Y009222D02*
X005534Y009222D01*
X005592Y009123D02*
X005398Y009123D01*
X005300Y009025D02*
X005691Y009025D01*
X005833Y008926D02*
X005157Y008926D01*
X005330Y008828D02*
X005660Y008828D01*
X006121Y008942D02*
X006284Y008874D01*
X006330Y008828D01*
X006330Y008989D01*
X006369Y009084D01*
X006442Y009157D01*
X006449Y009163D01*
X006449Y009203D01*
X006428Y009153D01*
X006284Y009009D01*
X006121Y008942D01*
X006157Y008926D02*
X006330Y008926D01*
X006345Y009025D02*
X006300Y009025D01*
X006398Y009123D02*
X006409Y009123D01*
X006590Y008937D02*
X006590Y008351D01*
X006196Y007957D01*
X005511Y007957D01*
X004995Y007442D01*
X005330Y007055D02*
X005661Y007055D01*
X005706Y007009D02*
X005870Y006942D01*
X005706Y006874D01*
X005563Y006730D01*
X005495Y006567D01*
X005428Y006730D01*
X005284Y006874D01*
X005121Y006942D01*
X005284Y007009D01*
X005428Y007153D01*
X005563Y007153D01*
X005706Y007009D01*
X005834Y006956D02*
X005157Y006956D01*
X005300Y006858D02*
X005690Y006858D01*
X005592Y006759D02*
X005399Y006759D01*
X005456Y006661D02*
X005534Y006661D01*
X005495Y006316D02*
X005563Y006153D01*
X005706Y006009D01*
X005870Y005942D01*
X005706Y005874D01*
X005563Y005730D01*
X005495Y005567D01*
X005428Y005730D01*
X005284Y005874D01*
X005121Y005942D01*
X005284Y006009D01*
X005428Y006153D01*
X005495Y006316D01*
X005475Y006267D02*
X005516Y006267D01*
X005556Y006168D02*
X005434Y006168D01*
X005345Y006070D02*
X005646Y006070D01*
X005798Y005971D02*
X005193Y005971D01*
X005285Y005873D02*
X005705Y005873D01*
X005607Y005774D02*
X005384Y005774D01*
X005450Y005676D02*
X005540Y005676D01*
X005500Y005577D02*
X005491Y005577D01*
X005495Y005316D02*
X005441Y005186D01*
X005549Y005186D01*
X005495Y005316D01*
X005481Y005282D02*
X005509Y005282D01*
X005132Y004946D02*
X005126Y004940D01*
X005121Y004942D01*
X005132Y004946D01*
X004870Y004942D02*
X004763Y004897D01*
X004763Y004986D01*
X004870Y004942D01*
X004995Y004442D02*
X005479Y004926D01*
X006511Y004926D01*
X006616Y004821D01*
X008283Y004821D01*
X009517Y004821D01*
X009904Y005282D02*
X009939Y005282D01*
X010813Y005577D02*
X011172Y005577D01*
X011048Y005676D02*
X010948Y005676D01*
X010901Y006562D02*
X011096Y006562D01*
X011046Y006661D02*
X010946Y006661D01*
X010946Y006759D02*
X011046Y006759D01*
X011046Y006858D02*
X010946Y006858D01*
X010946Y006956D02*
X011046Y006956D01*
X011046Y007153D02*
X010946Y007153D01*
X010946Y007252D02*
X011046Y007252D01*
X011046Y007350D02*
X010946Y007350D01*
X010946Y007449D02*
X011046Y007449D01*
X011046Y007547D02*
X010946Y007547D01*
X011078Y007646D02*
X010811Y007646D01*
X010738Y007547D02*
X009369Y007547D01*
X009369Y007449D02*
X010614Y007449D01*
X010543Y007350D02*
X009369Y007350D01*
X009369Y007252D02*
X010501Y007252D01*
X010698Y006661D02*
X010710Y006661D01*
X011247Y006639D02*
X011269Y006651D01*
X011335Y006699D01*
X011393Y006757D01*
X011404Y006772D01*
X011406Y006767D01*
X011498Y006676D01*
X011334Y006676D01*
X011247Y006639D01*
X011283Y006661D02*
X011299Y006661D01*
X011395Y006759D02*
X011414Y006759D01*
X011849Y006516D02*
X011951Y006516D01*
X011900Y006465D01*
X011849Y006516D01*
X012298Y006676D02*
X012390Y006767D01*
X012392Y006772D01*
X012403Y006757D01*
X012461Y006699D01*
X012527Y006651D01*
X012532Y006648D01*
X012466Y006676D01*
X012298Y006676D01*
X012382Y006759D02*
X012401Y006759D01*
X012501Y006661D02*
X012513Y006661D01*
X012672Y006590D02*
X012678Y006588D01*
X012750Y006577D01*
X012750Y007046D01*
X012850Y007046D01*
X012850Y007146D01*
X013318Y007146D01*
X013651Y007146D01*
X013651Y007046D01*
X012850Y007046D01*
X012850Y006577D01*
X012921Y006588D01*
X012945Y006596D01*
X012924Y006587D01*
X012802Y006465D01*
X012679Y006587D01*
X012672Y006590D01*
X012704Y006562D02*
X012899Y006562D01*
X012850Y006661D02*
X012750Y006661D01*
X012750Y006759D02*
X012850Y006759D01*
X012850Y006858D02*
X012750Y006858D01*
X012750Y006956D02*
X012850Y006956D01*
X012850Y007055D02*
X013651Y007055D01*
X013651Y007046D02*
X013751Y007046D01*
X013751Y006577D01*
X013823Y006588D01*
X013847Y006596D01*
X013825Y006587D01*
X013703Y006465D01*
X013581Y006587D01*
X013574Y006590D01*
X013579Y006588D01*
X013651Y006577D01*
X013651Y007046D01*
X013701Y007096D02*
X012800Y007096D01*
X013050Y006639D02*
X013072Y006651D01*
X013138Y006699D01*
X013196Y006757D01*
X013244Y006823D01*
X013250Y006835D01*
X013256Y006823D01*
X013305Y006757D01*
X013362Y006699D01*
X013429Y006651D01*
X013434Y006648D01*
X013368Y006676D01*
X013137Y006676D01*
X013050Y006639D01*
X013086Y006661D02*
X013102Y006661D01*
X013198Y006759D02*
X013303Y006759D01*
X013403Y006661D02*
X013415Y006661D01*
X013606Y006562D02*
X013801Y006562D01*
X013751Y006661D02*
X013651Y006661D01*
X013651Y006759D02*
X013751Y006759D01*
X013751Y006858D02*
X013651Y006858D01*
X013651Y006956D02*
X013751Y006956D01*
X013751Y007055D02*
X014553Y007055D01*
X014603Y007096D02*
X015837Y007096D01*
X015842Y007091D01*
X015920Y007091D01*
X015842Y007091D02*
X016117Y006816D01*
X016117Y006068D01*
X017535Y004650D01*
X017535Y003509D01*
X017377Y003351D01*
X018905Y003351D01*
X018995Y003442D01*
X019995Y003442D01*
X019945Y003410D02*
X019045Y003410D01*
X019045Y003492D02*
X019443Y003492D01*
X019434Y003547D01*
X019412Y003614D01*
X019380Y003677D01*
X019338Y003735D01*
X019288Y003785D01*
X019231Y003826D01*
X019168Y003859D01*
X019101Y003880D01*
X019045Y003889D01*
X019045Y003492D01*
X019045Y003509D02*
X018945Y003509D01*
X018945Y003607D02*
X019045Y003607D01*
X019045Y003706D02*
X018945Y003706D01*
X018945Y003804D02*
X019045Y003804D01*
X019261Y003804D02*
X019729Y003804D01*
X019631Y003706D02*
X019359Y003706D01*
X019415Y003607D02*
X019576Y003607D01*
X019550Y003509D02*
X019440Y003509D01*
X019945Y003509D02*
X020045Y003509D01*
X020045Y003607D02*
X019945Y003607D01*
X019945Y003706D02*
X020045Y003706D01*
X020045Y003804D02*
X019945Y003804D01*
X019725Y004001D02*
X019265Y004001D01*
X019375Y004100D02*
X019616Y004100D01*
X019544Y004198D02*
X019447Y004198D01*
X019487Y004297D02*
X019503Y004297D01*
X019495Y004567D02*
X019428Y004730D01*
X019284Y004874D01*
X019121Y004942D01*
X019284Y005009D01*
X019428Y005153D01*
X019495Y005316D01*
X019563Y005153D01*
X019706Y005009D01*
X019870Y004942D01*
X019706Y004874D01*
X019563Y004730D01*
X019495Y004567D01*
X019485Y004592D02*
X019506Y004592D01*
X019547Y004691D02*
X019444Y004691D01*
X019369Y004789D02*
X019622Y004789D01*
X019740Y004888D02*
X019250Y004888D01*
X019229Y004986D02*
X019761Y004986D01*
X019631Y005085D02*
X019360Y005085D01*
X019440Y005183D02*
X019550Y005183D01*
X019509Y005282D02*
X019481Y005282D01*
X019495Y005567D02*
X019428Y005730D01*
X019284Y005874D01*
X019121Y005942D01*
X019284Y006009D01*
X019428Y006153D01*
X019495Y006316D01*
X019563Y006153D01*
X019706Y006009D01*
X019870Y005942D01*
X019706Y005874D01*
X019563Y005730D01*
X019495Y005567D01*
X019491Y005577D02*
X019500Y005577D01*
X019540Y005676D02*
X019450Y005676D01*
X019384Y005774D02*
X019607Y005774D01*
X019705Y005873D02*
X019285Y005873D01*
X019193Y005971D02*
X019798Y005971D01*
X019646Y006070D02*
X019345Y006070D01*
X019434Y006168D02*
X019556Y006168D01*
X019516Y006267D02*
X019475Y006267D01*
X019495Y006567D02*
X019428Y006730D01*
X019284Y006874D01*
X019121Y006942D01*
X019284Y007009D01*
X019428Y007153D01*
X019563Y007153D01*
X019706Y007009D01*
X019870Y006942D01*
X019706Y006874D01*
X019563Y006730D01*
X019495Y006567D01*
X019456Y006661D02*
X019534Y006661D01*
X019592Y006759D02*
X019399Y006759D01*
X019300Y006858D02*
X019690Y006858D01*
X019834Y006956D02*
X019157Y006956D01*
X019330Y007055D02*
X019661Y007055D01*
X019563Y007153D02*
X019495Y007316D01*
X019428Y007153D01*
X019469Y007252D02*
X019522Y007252D01*
X019495Y007567D02*
X019428Y007730D01*
X019284Y007874D01*
X019121Y007942D01*
X019284Y008009D01*
X019428Y008153D01*
X019495Y008316D01*
X019563Y008153D01*
X019706Y008009D01*
X019870Y007942D01*
X019706Y007874D01*
X019563Y007730D01*
X019495Y007567D01*
X019463Y007646D02*
X019528Y007646D01*
X019577Y007744D02*
X019414Y007744D01*
X019315Y007843D02*
X019675Y007843D01*
X019676Y008040D02*
X019315Y008040D01*
X019413Y008138D02*
X019577Y008138D01*
X019528Y008237D02*
X019463Y008237D01*
X019495Y008567D02*
X019428Y008730D01*
X019428Y008729D02*
X019562Y008729D01*
X019563Y008730D02*
X019495Y008567D01*
X019469Y008631D02*
X019522Y008631D01*
X019563Y008730D02*
X019706Y008874D01*
X019870Y008942D01*
X019706Y009009D01*
X019563Y009153D01*
X019495Y009316D01*
X019428Y009153D01*
X019284Y009009D01*
X019121Y008942D01*
X019284Y008874D01*
X019428Y008730D01*
X019330Y008828D02*
X019660Y008828D01*
X019833Y008926D02*
X019157Y008926D01*
X019300Y009025D02*
X019691Y009025D01*
X019592Y009123D02*
X019398Y009123D01*
X019456Y009222D02*
X019534Y009222D01*
X019495Y009567D02*
X019428Y009730D01*
X019284Y009874D01*
X019121Y009942D01*
X019284Y010009D01*
X019428Y010153D01*
X019495Y010316D01*
X019563Y010153D01*
X019706Y010009D01*
X019870Y009942D01*
X019706Y009874D01*
X019563Y009730D01*
X019495Y009567D01*
X019475Y009616D02*
X019515Y009616D01*
X019556Y009714D02*
X019434Y009714D01*
X019345Y009813D02*
X019645Y009813D01*
X019797Y009911D02*
X019194Y009911D01*
X019285Y010010D02*
X019706Y010010D01*
X019607Y010108D02*
X019383Y010108D01*
X019450Y010207D02*
X019540Y010207D01*
X019500Y010305D02*
X019491Y010305D01*
X019495Y010567D02*
X019428Y010730D01*
X019284Y010874D01*
X019121Y010942D01*
X019284Y011009D01*
X019428Y011153D01*
X019495Y011316D01*
X019563Y011153D01*
X019706Y011009D01*
X019870Y010942D01*
X019706Y010874D01*
X019563Y010730D01*
X019495Y010567D01*
X019481Y010601D02*
X019509Y010601D01*
X019550Y010699D02*
X019440Y010699D01*
X019360Y010798D02*
X019630Y010798D01*
X019761Y010896D02*
X019230Y010896D01*
X019250Y010995D02*
X019741Y010995D01*
X019622Y011093D02*
X019368Y011093D01*
X019444Y011192D02*
X019547Y011192D01*
X019506Y011290D02*
X019485Y011290D01*
X019487Y011586D02*
X019503Y011586D01*
X019544Y011684D02*
X019447Y011684D01*
X019375Y011783D02*
X019615Y011783D01*
X019725Y011881D02*
X019266Y011881D01*
X020266Y011881D02*
X020385Y011881D01*
X020375Y011783D02*
X020385Y011783D01*
X020385Y011110D02*
X020385Y010773D01*
X020284Y010874D01*
X020121Y010942D01*
X020284Y011009D01*
X020385Y011110D01*
X020385Y011093D02*
X020368Y011093D01*
X020385Y010995D02*
X020250Y010995D01*
X020230Y010896D02*
X020385Y010896D01*
X020385Y010798D02*
X020360Y010798D01*
X020385Y010110D02*
X020385Y009773D01*
X020284Y009874D01*
X020121Y009942D01*
X020284Y010009D01*
X020385Y010110D01*
X020383Y010108D02*
X020385Y010108D01*
X020385Y010010D02*
X020285Y010010D01*
X020194Y009911D02*
X020385Y009911D01*
X020385Y009813D02*
X020345Y009813D01*
X020385Y009110D02*
X020385Y008773D01*
X020284Y008874D01*
X020121Y008942D01*
X020284Y009009D01*
X020385Y009110D01*
X020385Y009025D02*
X020300Y009025D01*
X020385Y008926D02*
X020157Y008926D01*
X020330Y008828D02*
X020385Y008828D01*
X020385Y008110D02*
X020385Y007773D01*
X020284Y007874D01*
X020121Y007942D01*
X020284Y008009D01*
X020385Y008110D01*
X020385Y008040D02*
X020315Y008040D01*
X020385Y007941D02*
X020121Y007941D01*
X020315Y007843D02*
X020385Y007843D01*
X019869Y007941D02*
X019121Y007941D01*
X018869Y007941D02*
X018240Y007941D01*
X018313Y008040D02*
X018676Y008040D01*
X018577Y008138D02*
X018400Y008138D01*
X018441Y008237D02*
X018528Y008237D01*
X018487Y008335D02*
X018455Y008335D01*
X018454Y008434D02*
X018485Y008434D01*
X018485Y008532D02*
X018413Y008532D01*
X018344Y008631D02*
X018522Y008631D01*
X018562Y008729D02*
X018199Y008729D01*
X017894Y008729D02*
X014414Y008729D01*
X014414Y008631D02*
X017749Y008631D01*
X018046Y008351D02*
X016629Y008351D01*
X015881Y007603D01*
X012405Y007603D01*
X011898Y007096D01*
X011431Y007449D02*
X011378Y007449D01*
X011393Y007434D02*
X011335Y007492D01*
X011269Y007540D01*
X011247Y007552D01*
X011334Y007516D01*
X011498Y007516D01*
X011406Y007424D01*
X011404Y007419D01*
X011393Y007434D01*
X011257Y007547D02*
X011255Y007547D01*
X010980Y007744D02*
X010932Y007744D01*
X011849Y007676D02*
X011900Y007726D01*
X011951Y007676D01*
X011849Y007676D01*
X011832Y008532D02*
X011967Y008532D01*
X012128Y008631D02*
X011672Y008631D01*
X012574Y008631D02*
X013029Y008631D01*
X012869Y008532D02*
X012734Y008532D01*
X014154Y008096D02*
X014154Y009803D01*
X014149Y009808D01*
X014149Y010049D02*
X010174Y010049D01*
X009371Y010049D01*
X008544Y010049D01*
X007741Y010049D01*
X006954Y010049D01*
X006449Y010010D02*
X006285Y010010D01*
X006284Y010009D02*
X006428Y010153D01*
X006449Y010203D01*
X006449Y009706D01*
X006480Y009675D01*
X006459Y009654D01*
X006428Y009730D01*
X006284Y009874D01*
X006121Y009942D01*
X006284Y010009D01*
X006194Y009911D02*
X006449Y009911D01*
X006449Y009813D02*
X006345Y009813D01*
X006434Y009714D02*
X006449Y009714D01*
X006449Y010108D02*
X006383Y010108D01*
X006954Y009301D02*
X006590Y008937D01*
X006850Y008829D02*
X006856Y008835D01*
X007100Y008835D01*
X006850Y008585D01*
X006850Y008829D01*
X006850Y008828D02*
X007093Y008828D01*
X006994Y008729D02*
X006850Y008729D01*
X006850Y008631D02*
X006896Y008631D01*
X007281Y008281D02*
X007835Y008835D01*
X008124Y008835D01*
X008143Y008854D01*
X008162Y008835D01*
X008284Y008835D01*
X008284Y008077D01*
X008301Y008038D01*
X008275Y008064D01*
X007999Y008223D01*
X007691Y008306D01*
X007373Y008306D01*
X007281Y008281D01*
X007336Y008335D02*
X008284Y008335D01*
X008284Y008237D02*
X007947Y008237D01*
X008145Y008138D02*
X008284Y008138D01*
X008299Y008040D02*
X008300Y008040D01*
X008544Y008129D02*
X008794Y007879D01*
X008794Y006383D01*
X008322Y005910D01*
X006527Y005910D01*
X005995Y006442D01*
X006358Y006800D02*
X006284Y006874D01*
X006121Y006942D01*
X006284Y007009D01*
X006322Y007047D01*
X006322Y006936D01*
X006358Y006800D01*
X006343Y006858D02*
X006300Y006858D01*
X006322Y006956D02*
X006157Y006956D01*
X006074Y007442D02*
X005995Y007442D01*
X006074Y007442D02*
X007741Y009109D01*
X007741Y009301D01*
X007828Y008828D02*
X008284Y008828D01*
X008284Y008729D02*
X007730Y008729D01*
X007631Y008631D02*
X008284Y008631D01*
X008284Y008532D02*
X007533Y008532D01*
X007434Y008434D02*
X008284Y008434D01*
X008544Y008129D02*
X008544Y009301D01*
X008804Y008835D02*
X008804Y008688D01*
X008842Y008779D01*
X008898Y008835D01*
X008804Y008835D01*
X008804Y008828D02*
X008891Y008828D01*
X008822Y008729D02*
X008804Y008729D01*
X009188Y008548D02*
X009371Y008731D01*
X009371Y009301D01*
X009631Y008835D02*
X009698Y008835D01*
X009631Y008768D01*
X009631Y008835D01*
X009631Y008828D02*
X009691Y008828D01*
X010174Y008944D02*
X010174Y009301D01*
X010174Y008944D02*
X009109Y007879D01*
X009109Y006225D01*
X008519Y005634D01*
X006188Y005634D01*
X005995Y005442D01*
X006481Y005282D02*
X007975Y005282D01*
X007877Y005183D02*
X006568Y005183D01*
X006720Y005085D02*
X007877Y005085D01*
X006746Y006170D02*
X006634Y006170D01*
X006493Y006311D01*
X006505Y006340D01*
X006505Y006454D01*
X006564Y006353D01*
X006746Y006170D01*
X006649Y006267D02*
X006538Y006267D01*
X006556Y006365D02*
X006505Y006365D01*
X006126Y005944D02*
X006132Y005937D01*
X006121Y005942D01*
X006126Y005944D01*
X004870Y005942D02*
X004763Y005897D01*
X004763Y005986D01*
X004870Y005942D01*
X004798Y005971D02*
X004763Y005971D01*
X004763Y006897D02*
X004763Y006986D01*
X004870Y006942D01*
X004763Y006897D01*
X004763Y006956D02*
X004834Y006956D01*
X005428Y007153D02*
X005495Y007316D01*
X005563Y007153D01*
X005522Y007252D02*
X005469Y007252D01*
X005495Y007567D02*
X005500Y007579D01*
X005493Y007572D01*
X005495Y007567D01*
X005126Y007940D02*
X005121Y007942D01*
X005132Y007946D01*
X005126Y007940D01*
X005127Y007941D02*
X005121Y007941D01*
X004870Y007942D02*
X004763Y007897D01*
X004763Y007986D01*
X004870Y007942D01*
X004869Y007941D02*
X004763Y007941D01*
X005453Y008215D02*
X005495Y008316D01*
X005536Y008217D01*
X005459Y008217D01*
X005453Y008215D01*
X005463Y008237D02*
X005528Y008237D01*
X004870Y008942D02*
X004763Y008986D01*
X004763Y008897D01*
X004870Y008942D01*
X004833Y008926D02*
X004763Y008926D01*
X004763Y009897D02*
X004763Y009986D01*
X004870Y009942D01*
X004763Y009897D01*
X004763Y009911D02*
X004797Y009911D01*
X004995Y010442D02*
X004995Y010497D01*
X005448Y010949D01*
X007692Y010949D01*
X008479Y011737D01*
X008519Y011776D01*
X008568Y011825D01*
X008568Y012411D01*
X008568Y013159D02*
X007757Y013159D01*
X006954Y013159D01*
X006449Y013162D02*
X006431Y013162D01*
X006428Y013153D02*
X006449Y013203D01*
X006449Y012816D01*
X006480Y012785D01*
X006449Y012754D01*
X006449Y012680D01*
X006428Y012730D01*
X006284Y012874D01*
X006121Y012942D01*
X006284Y013009D01*
X006428Y013153D01*
X006449Y013063D02*
X006338Y013063D01*
X006449Y012965D02*
X006177Y012965D01*
X006292Y012866D02*
X006449Y012866D01*
X006462Y012768D02*
X006390Y012768D01*
X006050Y013442D02*
X006865Y014257D01*
X007613Y014257D01*
X007810Y014453D01*
X007810Y014901D01*
X007757Y014911D01*
X007875Y014150D02*
X007875Y014136D01*
X007937Y013986D01*
X008051Y013871D01*
X008201Y013809D01*
X008364Y013809D01*
X008514Y013871D01*
X008629Y013986D01*
X008691Y014136D01*
X008691Y014258D01*
X008715Y014282D01*
X008715Y014282D01*
X008775Y014342D01*
X008741Y014259D01*
X008741Y014097D01*
X008803Y013947D01*
X008918Y013832D01*
X009068Y013770D01*
X009230Y013770D01*
X009380Y013832D01*
X009495Y013947D01*
X009557Y014097D01*
X009557Y014218D01*
X009607Y014269D01*
X009647Y014364D01*
X009647Y014445D01*
X009769Y014445D01*
X009800Y014476D01*
X009827Y014449D01*
X009787Y014409D01*
X009725Y014259D01*
X009725Y014097D01*
X009787Y013947D01*
X009902Y013832D01*
X010052Y013770D01*
X010214Y013770D01*
X010364Y013832D01*
X010479Y013947D01*
X010541Y014097D01*
X010541Y014259D01*
X010479Y014409D01*
X010474Y014414D01*
X010474Y014445D01*
X010548Y014445D01*
X010571Y014422D01*
X010721Y014360D01*
X010884Y014360D01*
X011034Y014422D01*
X011119Y014508D01*
X011749Y014508D01*
X011749Y014423D01*
X011780Y014392D01*
X011749Y014361D01*
X011749Y013675D01*
X011872Y013552D01*
X012359Y013552D01*
X012492Y013419D01*
X011538Y013419D01*
X011538Y013502D01*
X011415Y013625D01*
X010650Y013625D01*
X010623Y013598D01*
X010596Y013625D01*
X009831Y013625D01*
X009800Y013594D01*
X009769Y013625D01*
X009005Y013625D01*
X008978Y013598D01*
X008950Y013625D01*
X008186Y013625D01*
X008163Y013602D01*
X008139Y013625D01*
X007375Y013625D01*
X007355Y013606D01*
X007336Y013625D01*
X006602Y013625D01*
X006973Y013997D01*
X007665Y013997D01*
X007761Y014036D01*
X007875Y014150D01*
X007875Y014147D02*
X007871Y014147D01*
X007911Y014048D02*
X007773Y014048D01*
X007973Y013950D02*
X006926Y013950D01*
X006828Y013851D02*
X008099Y013851D01*
X008466Y013851D02*
X008898Y013851D01*
X008801Y013950D02*
X008593Y013950D01*
X008655Y014048D02*
X008761Y014048D01*
X008741Y014147D02*
X008691Y014147D01*
X008691Y014245D02*
X008741Y014245D01*
X008816Y014422D02*
X008826Y014445D01*
X008839Y014445D01*
X008816Y014422D01*
X008825Y014442D02*
X008836Y014442D01*
X008568Y014503D02*
X008283Y014217D01*
X008568Y014503D02*
X008568Y014911D01*
X009387Y014911D02*
X009387Y014416D01*
X009149Y014178D01*
X009400Y013851D02*
X009882Y013851D01*
X009786Y013950D02*
X009496Y013950D01*
X009537Y014048D02*
X009745Y014048D01*
X009725Y014147D02*
X009557Y014147D01*
X009584Y014245D02*
X009725Y014245D01*
X009760Y014344D02*
X009639Y014344D01*
X009647Y014442D02*
X009821Y014442D01*
X010133Y014178D02*
X010214Y014259D01*
X010214Y014911D01*
X010474Y014442D02*
X010551Y014442D01*
X010506Y014344D02*
X011749Y014344D01*
X011749Y014442D02*
X011054Y014442D01*
X010802Y014768D02*
X012252Y014768D01*
X012254Y014766D01*
X012256Y014768D01*
X012535Y014768D01*
X012867Y014436D01*
X013177Y014436D01*
X013552Y014147D02*
X013986Y014147D01*
X013966Y014245D02*
X013649Y014245D01*
X013649Y014344D02*
X013966Y014344D01*
X013966Y014442D02*
X013649Y014442D01*
X013649Y014541D02*
X013966Y014541D01*
X013978Y014639D02*
X013637Y014639D01*
X013643Y014738D02*
X013972Y014738D01*
X013966Y014836D02*
X013649Y014836D01*
X013649Y014935D02*
X013966Y014935D01*
X013966Y015033D02*
X013649Y015033D01*
X013644Y015132D02*
X013971Y015132D01*
X013834Y015123D02*
X013991Y015280D01*
X014857Y015280D01*
X014904Y015132D02*
X015781Y015132D01*
X015886Y015734D02*
X015886Y015789D01*
X015899Y015776D01*
X015933Y015757D01*
X015950Y015752D01*
X015904Y015752D01*
X015886Y015734D01*
X016218Y016215D02*
X016315Y016215D01*
X016315Y016314D02*
X016218Y016314D01*
X016218Y016412D02*
X016315Y016412D01*
X015638Y016609D02*
X018187Y016609D01*
X017535Y014020D02*
X015802Y014020D01*
X015212Y014020D02*
X014661Y013469D01*
X012810Y013469D01*
X012261Y014018D01*
X012254Y014018D01*
X012759Y014048D02*
X012766Y014048D01*
X012766Y014060D02*
X012766Y013938D01*
X013175Y013938D01*
X013175Y013934D01*
X012766Y013934D01*
X012766Y013881D01*
X012759Y013888D01*
X012759Y014191D01*
X012807Y014143D01*
X012796Y014132D01*
X012776Y014098D01*
X012766Y014060D01*
X012759Y014147D02*
X012803Y014147D01*
X012766Y013950D02*
X012759Y013950D01*
X013177Y013936D02*
X013710Y013936D01*
X013834Y014060D01*
X013834Y015123D01*
X014069Y015230D02*
X013546Y015230D01*
X012809Y015230D02*
X012733Y015230D01*
X012774Y015329D02*
X015021Y015329D01*
X015076Y014245D02*
X014909Y014245D01*
X014889Y014147D02*
X014971Y014147D01*
X013966Y014048D02*
X013589Y014048D01*
X013589Y013950D02*
X013966Y013950D01*
X013966Y013851D02*
X013589Y013851D01*
X013567Y013753D02*
X013966Y013753D01*
X013243Y013159D02*
X010214Y013159D01*
X011033Y013159D01*
X009387Y013159D01*
X008568Y013159D01*
X010214Y012411D02*
X010214Y011896D01*
X009503Y011186D01*
X009911Y011192D02*
X010079Y011192D01*
X010084Y011093D02*
X009907Y011093D01*
X009866Y010995D02*
X010125Y010995D01*
X010199Y010896D02*
X009791Y010896D01*
X009634Y010798D02*
X010357Y010798D01*
X010487Y011186D02*
X011033Y011731D01*
X011033Y012411D01*
X011538Y012571D02*
X013110Y012571D01*
X012954Y012669D02*
X011538Y012669D01*
X011524Y012768D02*
X012880Y012768D01*
X012839Y012866D02*
X011538Y012866D01*
X011538Y013457D02*
X012454Y013457D01*
X011868Y013556D02*
X011484Y013556D01*
X011770Y013654D02*
X006631Y013654D01*
X006729Y013753D02*
X011749Y013753D01*
X011749Y013851D02*
X010384Y013851D01*
X010480Y013950D02*
X011749Y013950D01*
X011749Y014048D02*
X010521Y014048D01*
X010541Y014147D02*
X011749Y014147D01*
X011749Y014245D02*
X010541Y014245D01*
X010719Y015176D02*
X010719Y015254D01*
X010688Y015285D01*
X010719Y015316D01*
X010719Y015399D01*
X011969Y015399D01*
X011969Y015356D01*
X012020Y015232D01*
X011872Y015232D01*
X011749Y015109D01*
X011749Y015028D01*
X011119Y015028D01*
X011034Y015114D01*
X010884Y015176D01*
X010721Y015176D01*
X010719Y015176D01*
X010719Y015230D02*
X011870Y015230D01*
X011771Y015132D02*
X010991Y015132D01*
X011114Y015033D02*
X011749Y015033D01*
X011980Y015329D02*
X010719Y015329D01*
X009823Y016117D02*
X009777Y016117D01*
X008997Y016117D02*
X008959Y016117D01*
X008178Y016117D02*
X008148Y016117D01*
X006449Y014705D02*
X006449Y014680D01*
X006438Y014705D01*
X006449Y014705D01*
X006050Y013442D02*
X005995Y013442D01*
X005518Y013260D02*
X005472Y013260D01*
X005431Y013162D02*
X005559Y013162D01*
X005652Y013063D02*
X005338Y013063D01*
X005495Y013567D02*
X005500Y013579D01*
X005493Y013572D01*
X005495Y013567D01*
X005126Y013940D02*
X005121Y013942D01*
X005132Y013946D01*
X005126Y013940D01*
X004870Y013942D02*
X004763Y013897D01*
X004763Y013986D01*
X004870Y013942D01*
X004849Y013950D02*
X004763Y013950D01*
X004763Y015897D02*
X004763Y015986D01*
X004870Y015942D01*
X004763Y015897D01*
X004763Y015920D02*
X004818Y015920D01*
X004763Y011986D02*
X004763Y011897D01*
X004870Y011942D01*
X004763Y011986D01*
X004763Y011980D02*
X004777Y011980D01*
X004995Y011481D02*
X005448Y011934D01*
X005528Y011646D02*
X005495Y011567D01*
X005482Y011600D01*
X005528Y011646D01*
X005503Y011586D02*
X005487Y011586D01*
X005495Y011316D02*
X005451Y011209D01*
X005539Y011209D01*
X005495Y011316D01*
X005485Y011290D02*
X005506Y011290D01*
X004995Y011442D02*
X004995Y011481D01*
X004763Y010986D02*
X004763Y010897D01*
X004870Y010942D01*
X004763Y010986D01*
X005477Y010611D02*
X005539Y010673D01*
X005495Y010567D01*
X005477Y010611D01*
X005481Y010601D02*
X005509Y010601D01*
X008105Y010995D02*
X008275Y010995D01*
X008617Y010601D02*
X015841Y010601D01*
X015873Y010699D02*
X008715Y010699D01*
X008814Y010798D02*
X009373Y010798D01*
X009215Y010896D02*
X008912Y010896D01*
X009011Y010995D02*
X009140Y010995D01*
X008976Y010502D02*
X008939Y010502D01*
X009766Y010502D02*
X009780Y010502D01*
X009976Y011290D02*
X010089Y011290D01*
X010074Y011389D02*
X010130Y011389D01*
X010173Y011487D02*
X010212Y011487D01*
X010271Y011586D02*
X010387Y011586D01*
X010370Y011684D02*
X010618Y011684D01*
X010717Y011783D02*
X010448Y011783D01*
X010474Y011881D02*
X010773Y011881D01*
X011293Y011881D02*
X011800Y011881D01*
X011779Y011783D02*
X011293Y011783D01*
X011293Y011684D02*
X011778Y011684D01*
X011778Y011586D02*
X011254Y011586D01*
X011450Y011980D02*
X011850Y011980D01*
X011945Y012078D02*
X011538Y012078D01*
X014414Y009222D02*
X018534Y009222D01*
X018592Y009123D02*
X014414Y009123D01*
X014414Y009025D02*
X018691Y009025D01*
X018833Y008926D02*
X014414Y008926D01*
X014414Y008828D02*
X018660Y008828D01*
X018675Y007843D02*
X018338Y007843D01*
X018397Y007744D02*
X018577Y007744D01*
X018528Y007646D02*
X018454Y007646D01*
X018584Y007055D02*
X018661Y007055D01*
X018584Y006956D02*
X018834Y006956D01*
X018690Y006858D02*
X018563Y006858D01*
X018537Y006759D02*
X018592Y006759D01*
X018534Y006661D02*
X018511Y006661D01*
X018493Y006562D02*
X018464Y006562D01*
X018485Y006464D02*
X018407Y006464D01*
X018350Y006365D02*
X018485Y006365D01*
X018516Y006267D02*
X018257Y006267D01*
X018159Y006168D02*
X018556Y006168D01*
X018646Y006070D02*
X018018Y006070D01*
X017847Y005971D02*
X018798Y005971D01*
X018705Y005873D02*
X015935Y005873D01*
X015935Y005971D02*
X016901Y005971D01*
X016731Y006070D02*
X015902Y006070D01*
X015846Y006168D02*
X016590Y006168D01*
X016492Y006267D02*
X015732Y006267D01*
X015322Y006267D02*
X014711Y006267D01*
X014734Y006168D02*
X014881Y006168D01*
X014936Y005910D02*
X015527Y005910D01*
X015912Y005774D02*
X018607Y005774D01*
X018540Y005676D02*
X015870Y005676D01*
X016030Y005577D02*
X018500Y005577D01*
X018485Y005479D02*
X016129Y005479D01*
X016314Y005380D02*
X018485Y005380D01*
X018509Y005282D02*
X016413Y005282D01*
X016431Y005183D02*
X018550Y005183D01*
X018631Y005085D02*
X016431Y005085D01*
X016431Y004986D02*
X018761Y004986D01*
X018740Y004888D02*
X016431Y004888D01*
X016431Y004789D02*
X018622Y004789D01*
X018547Y004691D02*
X016431Y004691D01*
X016431Y004592D02*
X018506Y004592D01*
X018485Y004494D02*
X016425Y004494D01*
X016432Y004395D02*
X016508Y004395D01*
X016662Y004027D02*
X016668Y004020D01*
X016662Y004027D02*
X015966Y004027D01*
X016395Y003607D02*
X018576Y003607D01*
X018550Y003509D02*
X014544Y003509D01*
X014564Y003543D01*
X014574Y003581D01*
X014574Y003828D01*
X014276Y003828D01*
X014276Y003451D01*
X014444Y003451D01*
X014482Y003461D01*
X014516Y003481D01*
X014544Y003509D01*
X014574Y003607D02*
X014789Y003607D01*
X014752Y003706D02*
X014574Y003706D01*
X014574Y003804D02*
X014752Y003804D01*
X014752Y003903D02*
X014276Y003903D01*
X014276Y003925D02*
X014574Y003925D01*
X014574Y004172D01*
X014564Y004210D01*
X014544Y004244D01*
X014516Y004272D01*
X014482Y004292D01*
X014444Y004302D01*
X014276Y004302D01*
X014276Y003925D01*
X014227Y003876D02*
X014227Y003391D01*
X014267Y003351D01*
X017377Y003351D01*
X016931Y003706D02*
X018631Y003706D01*
X018729Y003804D02*
X017021Y003804D01*
X017062Y003903D02*
X020385Y003903D01*
X020385Y004001D02*
X020265Y004001D01*
X020375Y004100D02*
X020385Y004100D01*
X020385Y003804D02*
X020261Y003804D01*
X020359Y003706D02*
X020385Y003706D01*
X020385Y004773D02*
X020284Y004874D01*
X020121Y004942D01*
X020284Y005009D01*
X020385Y005110D01*
X020385Y004773D01*
X020385Y004789D02*
X020369Y004789D01*
X020385Y004888D02*
X020250Y004888D01*
X020229Y004986D02*
X020385Y004986D01*
X020385Y005085D02*
X020360Y005085D01*
X020385Y005773D02*
X020284Y005874D01*
X020121Y005942D01*
X020284Y006009D01*
X020385Y006110D01*
X020385Y005773D01*
X020384Y005774D02*
X020385Y005774D01*
X020385Y005873D02*
X020285Y005873D01*
X020193Y005971D02*
X020385Y005971D01*
X020385Y006070D02*
X020345Y006070D01*
X020385Y006773D02*
X020284Y006874D01*
X020121Y006942D01*
X020284Y007009D01*
X020385Y007110D01*
X020385Y006773D01*
X020385Y006858D02*
X020300Y006858D01*
X020385Y006956D02*
X020157Y006956D01*
X020330Y007055D02*
X020385Y007055D01*
X018485Y004395D02*
X016829Y004395D01*
X016969Y004297D02*
X018503Y004297D01*
X018544Y004198D02*
X017036Y004198D01*
X017077Y004100D02*
X018616Y004100D01*
X018725Y004001D02*
X017077Y004001D01*
X015965Y004882D02*
X015960Y004887D01*
X015960Y005280D01*
X015842Y005398D01*
X014818Y005398D01*
X014621Y005201D01*
X012495Y005201D01*
X012351Y005346D01*
X012351Y006096D01*
X012751Y005676D02*
X012852Y005676D01*
X012802Y005726D02*
X012924Y005604D01*
X012992Y005575D01*
X012992Y005574D01*
X013032Y005478D01*
X013049Y005461D01*
X012611Y005461D01*
X012611Y005575D01*
X012679Y005604D01*
X012802Y005726D01*
X012987Y005577D02*
X012616Y005577D01*
X012611Y005479D02*
X013032Y005479D01*
X013252Y005625D02*
X013440Y005438D01*
X014464Y005438D01*
X014936Y005910D01*
X014670Y006365D02*
X016399Y006365D01*
X016342Y006464D02*
X014606Y006464D01*
X014653Y006577D02*
X014724Y006588D01*
X014802Y006614D01*
X014875Y006651D01*
X014941Y006699D01*
X014999Y006757D01*
X015047Y006823D01*
X015085Y006896D01*
X015110Y006974D01*
X015121Y007046D01*
X014653Y007046D01*
X014653Y006577D01*
X014653Y006661D02*
X014553Y006661D01*
X014553Y006759D02*
X014653Y006759D01*
X014653Y006858D02*
X014553Y006858D01*
X014553Y006956D02*
X014653Y006956D01*
X014653Y007055D02*
X016164Y007055D01*
X016164Y007153D02*
X015120Y007153D01*
X015099Y007252D02*
X016164Y007252D01*
X016190Y007350D02*
X015951Y007350D01*
X016095Y007449D02*
X016216Y007449D01*
X016193Y007547D02*
X016243Y007547D01*
X016292Y007646D02*
X016295Y007646D01*
X015950Y008040D02*
X014734Y008040D01*
X014734Y008138D02*
X016049Y008138D01*
X016147Y008237D02*
X014723Y008237D01*
X014682Y008335D02*
X016246Y008335D01*
X016344Y008434D02*
X014636Y008434D01*
X014537Y008532D02*
X016443Y008532D01*
X015852Y007941D02*
X014718Y007941D01*
X014603Y007096D02*
X013701Y007096D01*
X013951Y006639D02*
X013974Y006651D01*
X014040Y006699D01*
X014098Y006757D01*
X014146Y006823D01*
X014152Y006835D01*
X014158Y006823D01*
X014206Y006757D01*
X014264Y006699D01*
X014330Y006651D01*
X014335Y006648D01*
X014269Y006676D01*
X014039Y006676D01*
X013951Y006639D01*
X013988Y006661D02*
X014003Y006661D01*
X014100Y006759D02*
X014204Y006759D01*
X014304Y006661D02*
X014316Y006661D01*
X014507Y006562D02*
X016285Y006562D01*
X016238Y006661D02*
X014889Y006661D01*
X015001Y006759D02*
X016212Y006759D01*
X016185Y006858D02*
X015065Y006858D01*
X015104Y006956D02*
X016164Y006956D01*
X015217Y004882D02*
X015217Y004028D01*
X015218Y004027D01*
X014752Y004001D02*
X014574Y004001D01*
X014574Y004100D02*
X014752Y004100D01*
X014752Y004198D02*
X014567Y004198D01*
X014462Y004297D02*
X014752Y004297D01*
X014752Y004395D02*
X014260Y004395D01*
X014276Y004297D02*
X014179Y004297D01*
X014179Y004198D02*
X014276Y004198D01*
X014276Y004100D02*
X014179Y004100D01*
X014179Y004001D02*
X014276Y004001D01*
X014276Y003804D02*
X014179Y003804D01*
X014179Y003706D02*
X014276Y003706D01*
X014276Y003607D02*
X014179Y003607D01*
X014179Y003509D02*
X014276Y003509D01*
X014267Y003351D02*
X008676Y003351D01*
X006488Y004592D02*
X006485Y004592D01*
X005725Y004001D02*
X005265Y004001D01*
X005375Y004100D02*
X005616Y004100D01*
X005544Y004198D02*
X005447Y004198D01*
X005487Y004297D02*
X005503Y004297D01*
X005495Y004567D02*
X005500Y004579D01*
X005493Y004572D01*
X005495Y004567D01*
X005776Y003903D02*
X004763Y003903D01*
X004945Y003804D02*
X005045Y003804D01*
X005045Y003706D02*
X004945Y003706D01*
X004945Y003607D02*
X005045Y003607D01*
X005066Y003442D02*
X004995Y003442D01*
X005045Y003410D02*
X005485Y003410D01*
X005485Y003509D02*
X005440Y003509D01*
X005415Y003607D02*
X005512Y003607D01*
X005553Y003706D02*
X005359Y003706D01*
X005261Y003804D02*
X005637Y003804D01*
X008952Y008089D02*
X008942Y008099D01*
X008804Y008236D01*
X008804Y008408D01*
X008842Y008317D01*
X008957Y008202D01*
X009033Y008170D01*
X008962Y008099D01*
X008952Y008089D01*
X008902Y008138D02*
X009002Y008138D01*
X008922Y008237D02*
X008804Y008237D01*
X008804Y008335D02*
X008834Y008335D01*
X013252Y006096D02*
X013252Y005625D01*
X013675Y005698D02*
X013703Y005726D01*
X013732Y005698D01*
X013675Y005698D01*
X013853Y004742D02*
X013840Y004729D01*
X013165Y004729D01*
X013446Y004434D02*
X013446Y004380D01*
X013464Y004362D01*
X013345Y004362D01*
X013396Y004383D01*
X013446Y004434D01*
X013446Y004395D02*
X013408Y004395D01*
X013868Y004257D02*
X013923Y004257D01*
X013910Y004244D01*
X013891Y004210D01*
X013886Y004193D01*
X013886Y004239D01*
X013868Y004257D01*
X013886Y004198D02*
X013887Y004198D01*
X013853Y004742D02*
X015078Y004742D01*
X015217Y004882D01*
X013783Y003410D02*
X018945Y003410D01*
X015950Y010067D02*
X015904Y010067D01*
X015886Y010049D01*
X015886Y010104D01*
X015899Y010091D01*
X015933Y010071D01*
X015950Y010067D01*
X017921Y010108D02*
X018607Y010108D01*
X004870Y020942D02*
X004763Y020897D01*
X004763Y020986D01*
X004870Y020942D01*
X004865Y020943D02*
X004763Y020943D01*
D11*
X015400Y015719D03*
X016267Y015345D03*
X016267Y016093D03*
X016267Y013526D03*
X016267Y012778D03*
X015400Y013152D03*
X016267Y010408D03*
X016267Y009660D03*
X015400Y010034D03*
D12*
X013853Y004742D03*
X013479Y003876D03*
X014227Y003876D03*
X008657Y003955D03*
X007909Y003955D03*
X008283Y004821D03*
D13*
X005995Y004442D03*
X004995Y004442D03*
X004995Y003442D03*
X005995Y003442D03*
X005995Y005442D03*
X005995Y006442D03*
X005995Y007442D03*
X005995Y008442D03*
X004995Y008442D03*
X004995Y007442D03*
X004995Y006442D03*
X004995Y005442D03*
X004995Y009442D03*
X004995Y010442D03*
X004995Y011442D03*
X005995Y011442D03*
X005995Y010442D03*
X005995Y009442D03*
X005995Y012442D03*
X005995Y013442D03*
X005995Y014442D03*
X005995Y015442D03*
X004995Y015442D03*
X004995Y014442D03*
X004995Y013442D03*
X004995Y012442D03*
X004995Y016442D03*
X004995Y017442D03*
X004995Y018442D03*
X004995Y019442D03*
X005995Y019442D03*
X005995Y018442D03*
X005995Y017442D03*
X005995Y016442D03*
X005995Y020442D03*
X005995Y021442D03*
X005995Y022442D03*
X004995Y021442D03*
X004995Y020442D03*
X018995Y020442D03*
X018995Y021442D03*
X019995Y021442D03*
X019995Y022442D03*
X019995Y020442D03*
X019995Y019442D03*
X018995Y019442D03*
X018995Y018442D03*
X019995Y018442D03*
X019995Y017442D03*
X018995Y017442D03*
X018995Y016442D03*
X019995Y016442D03*
X019995Y015442D03*
X018995Y015442D03*
X018995Y014442D03*
X019995Y014442D03*
X019995Y013442D03*
X018995Y013442D03*
X018995Y012442D03*
X019995Y012442D03*
X019995Y011442D03*
X018995Y011442D03*
X018995Y010442D03*
X019995Y010442D03*
X019995Y009442D03*
X018995Y009442D03*
X018995Y008442D03*
X019995Y008442D03*
X019995Y007442D03*
X018995Y007442D03*
X018995Y006442D03*
X019995Y006442D03*
X019995Y005442D03*
X018995Y005442D03*
X018995Y004442D03*
X019995Y004442D03*
X019995Y003442D03*
X018995Y003442D03*
D14*
X018995Y022442D03*
X004995Y022442D03*
D15*
X007127Y019630D03*
X007127Y018882D03*
X008230Y018883D03*
X008230Y019631D03*
X008568Y015659D03*
X008568Y014911D03*
X009387Y014911D03*
X009387Y015659D03*
X010214Y015659D03*
X010214Y014911D03*
X010214Y013159D03*
X011033Y013159D03*
X011033Y012411D03*
X010214Y012411D03*
X009387Y012411D03*
X008568Y012411D03*
X008568Y013159D03*
X009387Y013159D03*
X007757Y013159D03*
X006954Y013159D03*
X006954Y012411D03*
X007757Y012411D03*
X007741Y010049D03*
X007741Y009301D03*
X006954Y009301D03*
X006954Y010049D03*
X008544Y010049D03*
X008544Y009301D03*
X009371Y009301D03*
X009371Y010049D03*
X010174Y010049D03*
X010174Y009301D03*
X012254Y014018D03*
X012254Y014766D03*
X007757Y014911D03*
X007757Y015659D03*
X006954Y015659D03*
X006954Y014911D03*
D16*
X009548Y004790D03*
X010296Y004790D03*
X010297Y003988D03*
X009549Y003988D03*
X015218Y004027D03*
X015966Y004027D03*
X015965Y004882D03*
X015217Y004882D03*
D17*
X014437Y013936D03*
X014437Y014436D03*
X014437Y014936D03*
X013177Y014936D03*
X013177Y014436D03*
X013177Y013936D03*
D18*
X013733Y021633D03*
X013733Y022224D03*
X011745Y022224D03*
X011745Y021633D03*
D19*
X012582Y021417D02*
X012584Y021442D01*
X012590Y021466D01*
X012599Y021488D01*
X012612Y021509D01*
X012628Y021528D01*
X012647Y021544D01*
X012668Y021557D01*
X012690Y021566D01*
X012714Y021572D01*
X012739Y021574D01*
X012764Y021572D01*
X012788Y021566D01*
X012810Y021557D01*
X012831Y021544D01*
X012850Y021528D01*
X012866Y021509D01*
X012879Y021488D01*
X012888Y021466D01*
X012894Y021442D01*
X012896Y021417D01*
X012894Y021392D01*
X012888Y021368D01*
X012879Y021346D01*
X012866Y021325D01*
X012850Y021306D01*
X012831Y021290D01*
X012810Y021277D01*
X012788Y021268D01*
X012764Y021262D01*
X012739Y021260D01*
X012714Y021262D01*
X012690Y021268D01*
X012668Y021277D01*
X012647Y021290D01*
X012628Y021306D01*
X012612Y021325D01*
X012599Y021346D01*
X012590Y021368D01*
X012584Y021392D01*
X012582Y021417D01*
X012582Y022440D02*
X012584Y022465D01*
X012590Y022489D01*
X012599Y022511D01*
X012612Y022532D01*
X012628Y022551D01*
X012647Y022567D01*
X012668Y022580D01*
X012690Y022589D01*
X012714Y022595D01*
X012739Y022597D01*
X012764Y022595D01*
X012788Y022589D01*
X012810Y022580D01*
X012831Y022567D01*
X012850Y022551D01*
X012866Y022532D01*
X012879Y022511D01*
X012888Y022489D01*
X012894Y022465D01*
X012896Y022440D01*
X012894Y022415D01*
X012888Y022391D01*
X012879Y022369D01*
X012866Y022348D01*
X012850Y022329D01*
X012831Y022313D01*
X012810Y022300D01*
X012788Y022291D01*
X012764Y022285D01*
X012739Y022283D01*
X012714Y022285D01*
X012690Y022291D01*
X012668Y022300D01*
X012647Y022313D01*
X012628Y022329D01*
X012612Y022348D01*
X012599Y022369D01*
X012590Y022391D01*
X012584Y022415D01*
X012582Y022440D01*
D20*
X012351Y008096D03*
X011449Y008096D03*
X010548Y008096D03*
X010996Y007096D03*
X011898Y007096D03*
X012800Y007096D03*
X013701Y007096D03*
X014603Y007096D03*
X014154Y008096D03*
X013252Y008096D03*
X013252Y006096D03*
X012351Y006096D03*
X011449Y006096D03*
X010548Y006096D03*
X014154Y006096D03*
D21*
X017374Y007096D03*
X007532Y007096D03*
D22*
X008204Y022170D03*
X010960Y022170D03*
D23*
X010566Y021136D03*
X008598Y021136D03*
D24*
X012186Y019049D02*
X012186Y018534D01*
X017386Y018534D02*
X017386Y019049D01*
X017386Y011749D02*
X017386Y011234D01*
X012186Y011234D02*
X012186Y011749D01*
D25*
X015330Y021737D03*
X017298Y021776D03*
D26*
X015802Y011540D03*
X014070Y011540D03*
D27*
X010330Y018871D03*
X010330Y019847D03*
D28*
X010328Y019875D03*
X010210Y019386D03*
X010332Y018875D03*
D29*
X010330Y018879D03*
X010330Y019894D03*
X010330Y020146D03*
D30*
X010330Y020142D03*
X010330Y019910D03*
X010330Y018883D03*
D31*
X010330Y018886D03*
X010330Y019922D03*
X010330Y020138D03*
D32*
X010330Y020134D03*
X010208Y019339D03*
X010330Y018890D03*
D33*
X010330Y018894D03*
X010330Y019942D03*
D34*
X010328Y019949D03*
X010332Y018898D03*
D35*
X010330Y018902D03*
D36*
X010332Y018906D03*
X010328Y020123D03*
D37*
X010330Y018910D03*
D38*
X010330Y018914D03*
X010267Y020064D03*
D39*
X010263Y020071D03*
X010263Y020075D03*
X010271Y020083D03*
X010330Y019985D03*
X010330Y018918D03*
D40*
X010332Y018922D03*
X010328Y019993D03*
D41*
X010328Y019997D03*
X010328Y020111D03*
X010332Y018926D03*
D42*
X010330Y018930D03*
X010330Y020001D03*
D43*
X010330Y018934D03*
D44*
X010330Y018938D03*
D45*
X010330Y018942D03*
X010330Y020016D03*
X010330Y020103D03*
D46*
X010328Y020020D03*
X010332Y018946D03*
D47*
X010332Y018949D03*
X010328Y020024D03*
D48*
X010330Y018953D03*
D49*
X010332Y018957D03*
X010328Y020028D03*
D50*
X010332Y018961D03*
D51*
X010330Y018965D03*
D52*
X010332Y018969D03*
D53*
X010332Y018973D03*
D54*
X010330Y018977D03*
D55*
X010332Y018981D03*
X010328Y020052D03*
D56*
X010330Y018985D03*
D57*
X010332Y018989D03*
D58*
X010330Y018993D03*
D59*
X010332Y018997D03*
D60*
X010330Y019001D03*
D61*
X010332Y019005D03*
D62*
X010330Y019009D03*
D63*
X010332Y019012D03*
X010332Y019016D03*
D64*
X010330Y019020D03*
D65*
X010332Y019024D03*
D66*
X010330Y019028D03*
D67*
X010332Y019032D03*
X010332Y019036D03*
D68*
X010330Y019040D03*
D69*
X010332Y019044D03*
D70*
X010330Y019048D03*
X010330Y019052D03*
D71*
X010332Y019056D03*
D72*
X010330Y019060D03*
X010330Y019064D03*
X010330Y019331D03*
D73*
X010328Y019327D03*
X010332Y019071D03*
X010332Y019068D03*
D74*
X010330Y019075D03*
X010330Y019320D03*
X010330Y019323D03*
D75*
X010328Y019316D03*
X010328Y019312D03*
X010332Y019083D03*
X010332Y019079D03*
D76*
X010330Y019087D03*
X010330Y019091D03*
X010330Y019300D03*
X010330Y019304D03*
X010330Y019308D03*
D77*
X010332Y019099D03*
X010332Y019095D03*
D78*
X010330Y019103D03*
D79*
X010332Y019107D03*
X010332Y019111D03*
X010332Y019115D03*
D80*
X010330Y019119D03*
X010330Y019123D03*
D81*
X010332Y019127D03*
X010332Y019131D03*
D82*
X010330Y019134D03*
X010330Y019138D03*
D83*
X010332Y019142D03*
X010332Y019146D03*
D84*
X010330Y019150D03*
X010330Y019154D03*
D85*
X010330Y019158D03*
D86*
X010328Y019162D03*
D87*
X010328Y019166D03*
D88*
X010328Y019170D03*
D89*
X010328Y019174D03*
X010328Y019253D03*
D90*
X010328Y019249D03*
X010328Y019245D03*
X010328Y019182D03*
X010328Y019178D03*
D91*
X010330Y019186D03*
X010330Y019241D03*
D92*
X010328Y019237D03*
X010328Y019233D03*
X010328Y019229D03*
X010328Y019225D03*
X010328Y019221D03*
X010328Y019217D03*
X010328Y019213D03*
X010328Y019209D03*
X010328Y019205D03*
X010328Y019201D03*
X010328Y019197D03*
X010328Y019194D03*
X010328Y019190D03*
D93*
X010330Y019257D03*
D94*
X010330Y019260D03*
D95*
X010328Y019264D03*
D96*
X010328Y019268D03*
D97*
X010550Y019414D03*
X010562Y019406D03*
X010566Y019402D03*
X010609Y019335D03*
X010330Y019717D03*
X010102Y020099D03*
D98*
X010330Y019938D03*
X010212Y019335D03*
D99*
X010527Y019426D03*
X010578Y019394D03*
X010582Y019390D03*
X010586Y019386D03*
X010590Y019383D03*
X010594Y019375D03*
X010598Y019371D03*
X010602Y019363D03*
X010605Y019355D03*
X010609Y019347D03*
X010609Y019343D03*
X010609Y019339D03*
X010330Y019713D03*
X010330Y020186D03*
D100*
X010328Y019930D03*
X010210Y019343D03*
D101*
X010208Y019347D03*
X010330Y019926D03*
D102*
X010592Y019379D03*
X010600Y019367D03*
X010604Y019359D03*
X010607Y019351D03*
D103*
X010210Y019351D03*
D104*
X010210Y019355D03*
X010210Y019359D03*
X010328Y019918D03*
D105*
X010328Y019914D03*
X010210Y019363D03*
D106*
X010210Y019367D03*
D107*
X010208Y019371D03*
X010330Y019898D03*
D108*
X010328Y019890D03*
X010206Y019375D03*
D109*
X010208Y019379D03*
D110*
X010208Y019383D03*
X010330Y019883D03*
X010330Y020150D03*
D111*
X010450Y020099D03*
X010454Y020095D03*
X010210Y019390D03*
D112*
X010245Y019394D03*
X010328Y019812D03*
D113*
X010330Y019591D03*
X010208Y019485D03*
X010019Y019394D03*
D114*
X010537Y019422D03*
X010544Y019418D03*
X010556Y019410D03*
X010572Y019398D03*
D115*
X010243Y019398D03*
X010330Y020170D03*
D116*
X010243Y019402D03*
D117*
X010239Y019406D03*
D118*
X010237Y019410D03*
D119*
X010235Y019414D03*
D120*
X010231Y019418D03*
D121*
X010233Y019422D03*
X010241Y019430D03*
D122*
X010235Y019426D03*
D123*
X010214Y019473D03*
X010592Y019430D03*
D124*
X010472Y019430D03*
X010330Y019650D03*
X010228Y019788D03*
D125*
X010330Y019863D03*
X010314Y019438D03*
X010314Y019434D03*
D126*
X010314Y019442D03*
D127*
X010316Y019446D03*
X010328Y019855D03*
D128*
X010352Y019449D03*
D129*
X010336Y019493D03*
X010210Y019481D03*
X010131Y019449D03*
D130*
X010352Y019453D03*
X010352Y019457D03*
D131*
X010332Y019583D03*
X010206Y019489D03*
X010127Y019453D03*
D132*
X010352Y019461D03*
X010352Y019465D03*
D133*
X010352Y019469D03*
D134*
X010489Y019473D03*
D135*
X010346Y019473D03*
X010330Y019682D03*
X010417Y019800D03*
X010330Y020190D03*
D136*
X010330Y019587D03*
X010495Y019477D03*
D137*
X010346Y019477D03*
X010330Y019670D03*
X010401Y019768D03*
X010409Y019776D03*
X010413Y019784D03*
X010117Y019957D03*
X010113Y019961D03*
X010109Y019965D03*
X010109Y019969D03*
D138*
X010330Y019599D03*
X010330Y019595D03*
X010212Y019477D03*
D139*
X010344Y019481D03*
X010226Y019796D03*
X010226Y019800D03*
D140*
X010340Y019485D03*
D141*
X010338Y019489D03*
X010330Y019623D03*
D142*
X010206Y019493D03*
D143*
X010204Y019497D03*
X010330Y019575D03*
D144*
X010202Y019501D03*
D145*
X010330Y019564D03*
D146*
X010330Y019568D03*
X010330Y019571D03*
D147*
X010330Y019579D03*
D148*
X010330Y019603D03*
D149*
X010330Y019607D03*
D150*
X010330Y019611D03*
X010330Y019615D03*
D151*
X010330Y019619D03*
D152*
X010330Y019627D03*
X010330Y019631D03*
X010657Y020071D03*
D153*
X010330Y020194D03*
X010330Y019634D03*
D154*
X010330Y019638D03*
D155*
X010330Y019642D03*
X010330Y019646D03*
X010235Y019772D03*
D156*
X010330Y019654D03*
D157*
X010330Y019658D03*
X010330Y019662D03*
D158*
X010330Y019666D03*
X010228Y019804D03*
D159*
X010328Y019674D03*
X010415Y019788D03*
X010107Y019973D03*
D160*
X010417Y019792D03*
X010330Y019678D03*
D161*
X010330Y019686D03*
D162*
X010328Y019690D03*
X010415Y019804D03*
D163*
X010330Y019694D03*
D164*
X010330Y019697D03*
D165*
X010330Y019701D03*
D166*
X010328Y019705D03*
D167*
X010330Y019709D03*
D168*
X010328Y019721D03*
X010096Y020095D03*
D169*
X010330Y019725D03*
X010558Y020036D03*
X010562Y020040D03*
D170*
X010330Y019729D03*
D171*
X010330Y019733D03*
X010330Y019737D03*
X010090Y020087D03*
D172*
X010330Y020182D03*
X010330Y019741D03*
D173*
X010330Y019745D03*
D174*
X010330Y019749D03*
X010330Y019753D03*
D175*
X010330Y019757D03*
D176*
X010330Y019760D03*
X010330Y020178D03*
D177*
X010328Y019764D03*
D178*
X010241Y019768D03*
X010233Y019776D03*
X010229Y019780D03*
X010229Y019784D03*
D179*
X010407Y019772D03*
X010411Y019780D03*
D180*
X010226Y019792D03*
D181*
X010415Y019796D03*
X010107Y019977D03*
D182*
X010330Y019808D03*
D183*
X010330Y019816D03*
D184*
X010330Y019820D03*
X010330Y020166D03*
D185*
X010330Y019823D03*
D186*
X010328Y019827D03*
D187*
X010330Y019831D03*
D188*
X010330Y019835D03*
X010420Y019961D03*
X010424Y019965D03*
X010330Y020162D03*
D189*
X010426Y019969D03*
X010418Y019957D03*
X010328Y019839D03*
D190*
X010328Y019843D03*
X010426Y019977D03*
D191*
X010330Y019851D03*
X010330Y020158D03*
D192*
X010328Y019859D03*
D193*
X010330Y019867D03*
X010204Y020036D03*
X010200Y020040D03*
X010330Y020154D03*
D194*
X010458Y020091D03*
X010328Y019871D03*
X010198Y020044D03*
D195*
X010330Y019879D03*
X010460Y020087D03*
D196*
X010328Y019886D03*
D197*
X010328Y019902D03*
D198*
X010330Y019906D03*
D199*
X010328Y019934D03*
D200*
X010328Y019946D03*
X010328Y020131D03*
D201*
X010330Y019953D03*
D202*
X010428Y019973D03*
D203*
X010426Y019981D03*
D204*
X010107Y019981D03*
D205*
X010330Y019989D03*
D206*
X010328Y020005D03*
D207*
X010328Y020009D03*
X010328Y020107D03*
D208*
X010328Y020012D03*
D209*
X010330Y020032D03*
D210*
X010564Y020044D03*
X010092Y020091D03*
D211*
X010564Y020048D03*
D212*
X010200Y020048D03*
D213*
X010647Y020056D03*
X010651Y020060D03*
X010655Y020064D03*
X010655Y020068D03*
D214*
X010273Y020056D03*
X010269Y020060D03*
X010265Y020068D03*
D215*
X010651Y020083D03*
X010655Y020079D03*
X010659Y020075D03*
D216*
X010328Y020115D03*
X010265Y020079D03*
D217*
X010328Y020119D03*
D218*
X010328Y020127D03*
D219*
X010330Y020174D03*
D220*
X011157Y019020D03*
X011235Y017918D03*
X011983Y017524D03*
X012377Y015438D03*
X010802Y014768D03*
X010133Y014178D03*
X009149Y014178D03*
X008283Y014217D03*
X007220Y016461D03*
X005527Y016973D03*
X007141Y018351D03*
X007102Y020516D03*
X014424Y019926D03*
X016668Y019729D03*
X017850Y017839D03*
X016983Y017564D03*
X016787Y016107D03*
X017456Y015359D03*
X016747Y014571D03*
X017535Y014020D03*
X016983Y013548D03*
X014070Y012642D03*
X013243Y012957D03*
X010487Y011186D03*
X009503Y011186D03*
X007377Y011461D03*
X009188Y008548D03*
X013165Y004729D03*
X010999Y003942D03*
X007259Y003942D03*
X015527Y005910D03*
X015920Y007091D03*
X018046Y008351D03*
X017771Y009729D03*
X016905Y010477D03*
X015291Y016383D03*
X018479Y016894D03*
X014346Y022170D03*
X016668Y004020D03*
D221*
X017386Y011492D02*
X017384Y011504D01*
X017380Y011516D01*
X017372Y011526D01*
X017362Y011534D01*
X017350Y011538D01*
X017338Y011540D01*
X015802Y011540D01*
X014070Y011540D02*
X014070Y012642D01*
X013629Y018792D02*
X012889Y019532D01*
X011668Y019532D01*
X011157Y019020D01*
X013629Y018792D02*
X017386Y018792D01*
M02*
