G75*
%MOIN*%
%OFA0B0*%
%FSLAX24Y24*%
%IPPOS*%
%LPD*%
%AMOC8*
5,1,8,0,0,1.08239X$1,22.5*
%
%ADD10C,0.0240*%
%ADD11C,0.0100*%
%ADD12C,0.0440*%
%ADD13C,0.0040*%
%ADD14C,0.0050*%
%ADD15C,0.0000*%
%ADD16C,0.0080*%
%ADD17C,0.0020*%
%ADD18C,0.0060*%
%ADD19R,0.1455X0.0013*%
%ADD20R,0.1573X0.0013*%
%ADD21R,0.1665X0.0013*%
%ADD22R,0.1731X0.0013*%
%ADD23R,0.1796X0.0013*%
%ADD24R,0.1849X0.0013*%
%ADD25R,0.1888X0.0013*%
%ADD26R,0.1927X0.0013*%
%ADD27R,0.1967X0.0013*%
%ADD28R,0.2006X0.0013*%
%ADD29R,0.2045X0.0013*%
%ADD30R,0.2071X0.0013*%
%ADD31R,0.2098X0.0013*%
%ADD32R,0.2137X0.0013*%
%ADD33R,0.2150X0.0013*%
%ADD34R,0.2176X0.0013*%
%ADD35R,0.2203X0.0013*%
%ADD36R,0.2229X0.0013*%
%ADD37R,0.2242X0.0013*%
%ADD38R,0.2268X0.0013*%
%ADD39R,0.2281X0.0013*%
%ADD40R,0.2307X0.0013*%
%ADD41R,0.2321X0.0013*%
%ADD42R,0.2334X0.0013*%
%ADD43R,0.2360X0.0013*%
%ADD44R,0.2373X0.0013*%
%ADD45R,0.2386X0.0013*%
%ADD46R,0.2399X0.0013*%
%ADD47R,0.2412X0.0013*%
%ADD48R,0.2439X0.0013*%
%ADD49R,0.2452X0.0013*%
%ADD50R,0.2465X0.0013*%
%ADD51R,0.2478X0.0013*%
%ADD52R,0.2491X0.0013*%
%ADD53R,0.2504X0.0013*%
%ADD54R,0.2517X0.0013*%
%ADD55R,0.2530X0.0013*%
%ADD56R,0.2543X0.0013*%
%ADD57R,0.2556X0.0013*%
%ADD58R,0.2570X0.0013*%
%ADD59R,0.2583X0.0013*%
%ADD60R,0.2596X0.0013*%
%ADD61R,0.2609X0.0013*%
%ADD62R,0.2622X0.0013*%
%ADD63R,0.2635X0.0013*%
%ADD64R,0.2648X0.0013*%
%ADD65R,0.2661X0.0013*%
%ADD66R,0.2674X0.0013*%
%ADD67R,0.2688X0.0013*%
%ADD68R,0.2701X0.0013*%
%ADD69R,0.2714X0.0013*%
%ADD70R,0.2727X0.0013*%
%ADD71R,0.2740X0.0013*%
%ADD72R,0.2753X0.0013*%
%ADD73R,0.2766X0.0013*%
%ADD74R,0.2779X0.0013*%
%ADD75R,0.2792X0.0013*%
%ADD76R,0.2806X0.0013*%
%ADD77R,0.3081X0.0013*%
%ADD78R,0.3146X0.0013*%
%ADD79R,0.3186X0.0013*%
%ADD80R,0.3225X0.0013*%
%ADD81R,0.3251X0.0013*%
%ADD82R,0.3264X0.0013*%
%ADD83R,0.3278X0.0013*%
%ADD84R,0.3238X0.0013*%
%ADD85R,0.3199X0.0013*%
%ADD86R,0.3160X0.0013*%
%ADD87R,0.3107X0.0013*%
%ADD88R,0.0774X0.0013*%
%ADD89R,0.0760X0.0013*%
%ADD90R,0.1822X0.0013*%
%ADD91R,0.0747X0.0013*%
%ADD92R,0.0734X0.0013*%
%ADD93R,0.1783X0.0013*%
%ADD94R,0.1770X0.0013*%
%ADD95R,0.1757X0.0013*%
%ADD96R,0.1704X0.0013*%
%ADD97R,0.1678X0.0013*%
%ADD98R,0.1639X0.0013*%
%ADD99R,0.1613X0.0013*%
%ADD100R,0.1586X0.0013*%
%ADD101R,0.1560X0.0013*%
%ADD102R,0.1508X0.0013*%
%ADD103R,0.1232X0.0013*%
%ADD104R,0.0184X0.0013*%
%ADD105R,0.1193X0.0013*%
%ADD106R,0.1180X0.0013*%
%ADD107R,0.1141X0.0013*%
%ADD108R,0.1101X0.0013*%
%ADD109R,0.1075X0.0013*%
%ADD110R,0.1036X0.0013*%
%ADD111R,0.1023X0.0013*%
%ADD112R,0.1009X0.0013*%
%ADD113R,0.0249X0.0013*%
%ADD114R,0.0446X0.0013*%
%ADD115R,0.1495X0.0013*%
%ADD116R,0.1481X0.0013*%
%ADD117R,0.1468X0.0013*%
%ADD118R,0.1442X0.0013*%
%ADD119R,0.1206X0.0013*%
%ADD120R,0.0197X0.0013*%
%ADD121R,0.0118X0.0013*%
%ADD122R,0.0052X0.0013*%
%ADD123R,0.1154X0.0013*%
%ADD124R,0.0210X0.0013*%
%ADD125R,0.0616X0.0013*%
%ADD126R,0.0144X0.0013*%
%ADD127R,0.0564X0.0013*%
%ADD128R,0.0026X0.0013*%
%ADD129R,0.0498X0.0013*%
%ADD130R,0.0170X0.0013*%
%ADD131R,0.0420X0.0013*%
%ADD132R,0.0341X0.0013*%
%ADD133R,0.0105X0.0013*%
%ADD134R,0.0066X0.0013*%
%ADD135R,0.0039X0.0013*%
%ADD136R,0.0013X0.0013*%
%ADD137R,0.0092X0.0013*%
%ADD138R,0.0223X0.0013*%
%ADD139R,0.0275X0.0013*%
%ADD140R,0.0302X0.0013*%
%ADD141R,0.0328X0.0013*%
%ADD142R,0.0354X0.0013*%
%ADD143R,0.0367X0.0013*%
%ADD144R,0.0380X0.0013*%
%ADD145R,0.0406X0.0013*%
%ADD146R,0.0433X0.0013*%
%ADD147R,0.0459X0.0013*%
%ADD148R,0.0485X0.0013*%
%ADD149R,0.0511X0.0013*%
%ADD150R,0.0538X0.0013*%
%ADD151R,0.0590X0.0013*%
%ADD152R,0.0642X0.0013*%
%ADD153R,0.0669X0.0013*%
%ADD154R,0.0695X0.0013*%
%ADD155R,0.0721X0.0013*%
%ADD156R,0.0800X0.0013*%
%ADD157R,0.0813X0.0013*%
%ADD158R,0.0826X0.0013*%
%ADD159R,0.0852X0.0013*%
%ADD160R,0.0878X0.0013*%
%ADD161R,0.0891X0.0013*%
%ADD162R,0.0905X0.0013*%
%ADD163R,0.0931X0.0013*%
%ADD164R,0.0957X0.0013*%
%ADD165R,0.0970X0.0013*%
%ADD166R,0.0983X0.0013*%
%ADD167R,0.0551X0.0013*%
%ADD168R,0.0524X0.0013*%
%ADD169R,0.0472X0.0013*%
%ADD170R,0.0629X0.0013*%
%ADD171R,0.1219X0.0013*%
%ADD172R,0.1245X0.0013*%
%ADD173R,0.1259X0.0013*%
%ADD174R,0.1272X0.0013*%
%ADD175R,0.1298X0.0013*%
%ADD176R,0.1324X0.0013*%
%ADD177R,0.1337X0.0013*%
%ADD178R,0.1350X0.0013*%
%ADD179R,0.1377X0.0013*%
%ADD180R,0.1403X0.0013*%
%ADD181R,0.1416X0.0013*%
%ADD182R,0.1429X0.0013*%
%ADD183R,0.1534X0.0013*%
%ADD184R,0.1547X0.0013*%
%ADD185R,0.1626X0.0013*%
%ADD186R,0.1652X0.0013*%
%ADD187R,0.1691X0.0013*%
%ADD188R,0.1744X0.0013*%
%ADD189R,0.1809X0.0013*%
%ADD190R,0.1862X0.0013*%
%ADD191R,0.1901X0.0013*%
%ADD192R,0.1940X0.0013*%
%ADD193R,0.1363X0.0013*%
%ADD194R,0.0577X0.0013*%
%ADD195R,0.0603X0.0013*%
%ADD196R,0.2111X0.0013*%
%ADD197R,0.2189X0.0013*%
%ADD198R,0.2216X0.0013*%
%ADD199R,0.2255X0.0013*%
%ADD200R,0.2294X0.0013*%
%ADD201R,0.1521X0.0013*%
%ADD202R,0.0839X0.0013*%
%ADD203R,0.2425X0.0013*%
%ADD204R,0.0315X0.0013*%
%ADD205R,0.2085X0.0013*%
%ADD206R,0.0787X0.0013*%
%ADD207R,0.2163X0.0013*%
%ADD208R,0.2124X0.0013*%
%ADD209R,0.2019X0.0013*%
%ADD210R,0.1953X0.0013*%
%ADD211R,0.1717X0.0013*%
%ADD212R,0.1599X0.0013*%
%ADD213R,0.1114X0.0013*%
D10*
X014464Y019729D02*
X018401Y019729D01*
X018401Y022760D01*
X014464Y022760D01*
X014464Y019729D01*
D11*
X004503Y022760D02*
X004503Y003075D01*
X020645Y003075D01*
X020645Y022760D01*
X004503Y022760D01*
D12*
X013146Y018110D02*
X014050Y019014D01*
X015858Y019014D01*
X014502Y019014D02*
X014502Y017206D01*
X014050Y017206D02*
X013146Y018110D01*
X014050Y017206D02*
X015858Y017206D01*
X015406Y016114D02*
X014502Y016114D01*
X014502Y015210D01*
X015406Y016114D02*
X015858Y015662D01*
X015858Y014758D01*
X015406Y014306D01*
X013598Y014306D01*
X013146Y014758D01*
X013146Y015662D01*
X013598Y016114D01*
X013146Y013214D02*
X014954Y013214D01*
X015858Y012310D01*
X014954Y011406D01*
X013146Y011406D01*
D13*
X013305Y009739D02*
X013485Y009739D01*
X013545Y009679D01*
X013545Y009439D01*
X013485Y009379D01*
X013305Y009379D01*
X013305Y009739D01*
X013673Y009739D02*
X013793Y009739D01*
X013733Y009739D02*
X013733Y009379D01*
X013673Y009379D02*
X013793Y009379D01*
X013919Y009379D02*
X013919Y009739D01*
X014099Y009739D01*
X014159Y009679D01*
X014159Y009559D01*
X014099Y009499D01*
X013919Y009499D01*
X012808Y009559D02*
X012568Y009559D01*
X012568Y009619D02*
X012688Y009739D01*
X012808Y009619D01*
X012808Y009379D01*
X012568Y009379D02*
X012568Y009619D01*
X012440Y009559D02*
X012320Y009559D01*
X012440Y009559D02*
X012440Y009439D01*
X012380Y009379D01*
X012260Y009379D01*
X012200Y009439D01*
X012200Y009679D01*
X012260Y009739D01*
X012380Y009739D01*
X012440Y009679D01*
X012072Y009739D02*
X012072Y009499D01*
X011952Y009379D01*
X011831Y009499D01*
X011831Y009739D01*
X011335Y009559D02*
X011335Y009499D01*
X011095Y009499D01*
X011095Y009559D02*
X011155Y009619D01*
X011275Y009619D01*
X011335Y009559D01*
X011275Y009379D02*
X011155Y009379D01*
X011095Y009439D01*
X011095Y009559D01*
X010967Y009559D02*
X010967Y009379D01*
X010967Y009559D02*
X010907Y009619D01*
X010787Y009619D01*
X010727Y009559D01*
X010727Y009739D02*
X010727Y009379D01*
X010478Y009379D02*
X010478Y009739D01*
X010358Y009739D02*
X010598Y009739D01*
X009862Y009559D02*
X009622Y009559D01*
X009622Y009979D02*
X009862Y009979D01*
X009742Y009979D02*
X009742Y010339D01*
X009622Y010219D01*
X009497Y010039D02*
X009437Y010039D01*
X009437Y009979D01*
X009497Y009979D01*
X009497Y010039D01*
X009309Y010039D02*
X009309Y010279D01*
X009069Y010039D01*
X009129Y009979D01*
X009249Y009979D01*
X009309Y010039D01*
X009069Y010039D02*
X009069Y010279D01*
X009129Y010339D01*
X009249Y010339D01*
X009309Y010279D01*
X008941Y010219D02*
X008821Y009979D01*
X008701Y010219D01*
X008204Y010339D02*
X008204Y009979D01*
X008084Y010099D01*
X007964Y009979D01*
X007964Y010339D01*
X007836Y010339D02*
X007596Y010099D01*
X007656Y010159D02*
X007836Y009979D01*
X007596Y009979D02*
X007596Y010339D01*
X007468Y010339D02*
X007348Y010339D01*
X007408Y010339D02*
X007408Y010039D01*
X007348Y009979D01*
X007288Y009979D01*
X007228Y010039D01*
X007228Y009739D02*
X007228Y009679D01*
X007348Y009559D01*
X007348Y009379D01*
X007348Y009559D02*
X007468Y009679D01*
X007468Y009739D01*
X007596Y009559D02*
X007596Y009439D01*
X007656Y009379D01*
X007776Y009379D01*
X007836Y009439D01*
X007836Y009559D01*
X007776Y009619D01*
X007656Y009619D01*
X007596Y009559D01*
X007964Y009559D02*
X007964Y009439D01*
X008024Y009379D01*
X008204Y009379D01*
X008204Y009319D02*
X008204Y009619D01*
X008024Y009619D01*
X007964Y009559D01*
X008084Y009259D02*
X008144Y009259D01*
X008204Y009319D01*
X008332Y009439D02*
X008393Y009379D01*
X008573Y009379D01*
X008573Y009619D01*
X008701Y009619D02*
X008701Y009379D01*
X008701Y009499D02*
X008821Y009619D01*
X008881Y009619D01*
X009008Y009619D02*
X009128Y009619D01*
X009068Y009679D02*
X009068Y009439D01*
X009128Y009379D01*
X008332Y009439D02*
X008332Y009619D01*
X007695Y016796D02*
X007515Y016796D01*
X007515Y017157D01*
X007695Y017157D01*
X007755Y017096D01*
X007755Y017036D01*
X007695Y016976D01*
X007515Y016976D01*
X007695Y016976D02*
X007755Y016916D01*
X007755Y016856D01*
X007695Y016796D01*
X008252Y016916D02*
X008492Y016916D01*
X008492Y017036D02*
X008252Y017036D01*
X008252Y017516D02*
X008492Y017516D01*
X008492Y017636D02*
X008252Y017636D01*
X008252Y017996D02*
X008372Y018116D01*
X008492Y017996D01*
X008492Y018357D01*
X008620Y018357D02*
X008620Y017996D01*
X008860Y017996D01*
X008989Y017996D02*
X008989Y018357D01*
X009169Y018357D01*
X009229Y018296D01*
X009229Y018176D01*
X009169Y018116D01*
X008989Y018116D01*
X009109Y018116D02*
X009229Y017996D01*
X009169Y017757D02*
X008989Y017757D01*
X008989Y017396D01*
X009169Y017396D01*
X009229Y017456D01*
X009229Y017696D01*
X009169Y017757D01*
X009357Y017696D02*
X009357Y017456D01*
X009417Y017396D01*
X009537Y017396D01*
X009597Y017456D01*
X009725Y017396D02*
X009965Y017757D01*
X010093Y017757D02*
X010274Y017757D01*
X010334Y017696D01*
X010334Y017456D01*
X010274Y017396D01*
X010093Y017396D01*
X010093Y017757D01*
X010462Y017696D02*
X010462Y017456D01*
X010522Y017396D01*
X010642Y017396D01*
X010702Y017456D01*
X010702Y017696D02*
X010642Y017757D01*
X010522Y017757D01*
X010462Y017696D01*
X009905Y017157D02*
X009965Y017096D01*
X009965Y017036D01*
X009905Y016976D01*
X009725Y016976D01*
X009597Y016916D02*
X009597Y016856D01*
X009537Y016796D01*
X009417Y016796D01*
X009357Y016856D01*
X009229Y016856D02*
X009229Y017157D01*
X009357Y017096D02*
X009357Y017036D01*
X009417Y016976D01*
X009537Y016976D01*
X009597Y016916D01*
X009725Y016796D02*
X009905Y016796D01*
X009965Y016856D01*
X009965Y016916D01*
X009905Y016976D01*
X009905Y017157D02*
X009725Y017157D01*
X009725Y016796D01*
X009597Y017096D02*
X009537Y017157D01*
X009417Y017157D01*
X009357Y017096D01*
X009229Y016856D02*
X009169Y016796D01*
X009049Y016796D01*
X008989Y016856D01*
X008989Y017157D01*
X009357Y017696D02*
X009417Y017757D01*
X009537Y017757D01*
X009597Y017696D01*
X008860Y018357D02*
X008620Y018357D01*
X008620Y018176D02*
X008740Y018176D01*
X008252Y018357D02*
X008252Y017996D01*
X008124Y018056D02*
X008124Y018296D01*
X008064Y018357D01*
X007944Y018357D01*
X007884Y018296D01*
X007884Y018056D01*
X007944Y017996D01*
X008064Y017996D01*
X008124Y018056D01*
X007755Y018176D02*
X007695Y018116D01*
X007515Y018116D01*
X007515Y017996D02*
X007515Y018357D01*
X007695Y018357D01*
X007755Y018296D01*
X007755Y018176D01*
X007635Y017757D02*
X007515Y017636D01*
X007515Y017396D01*
X007515Y017576D02*
X007755Y017576D01*
X007755Y017636D02*
X007755Y017396D01*
X007755Y017636D02*
X007635Y017757D01*
X009405Y019343D02*
X009525Y019463D01*
X009765Y019463D01*
X009585Y019463D02*
X009585Y019223D01*
X009525Y019223D02*
X009405Y019343D01*
X009525Y019223D02*
X009765Y019223D01*
X009765Y019853D02*
X009405Y019853D01*
X009405Y020033D01*
X009465Y020093D01*
X009525Y020093D01*
X009585Y020033D01*
X009585Y019853D01*
X009765Y019853D02*
X009765Y020033D01*
X009705Y020093D01*
X009645Y020093D01*
X009585Y020033D01*
D14*
X010855Y019890D02*
X010855Y019665D01*
X011305Y019665D01*
X011155Y019665D02*
X011155Y019890D01*
X011080Y019965D01*
X010930Y019965D01*
X010855Y019890D01*
X011005Y020125D02*
X010855Y020276D01*
X011305Y020276D01*
X011305Y020426D02*
X011305Y020125D01*
X011486Y019492D02*
X018086Y019492D01*
X018086Y010792D01*
X011486Y010792D01*
X011486Y019492D01*
X011305Y019355D02*
X011230Y019430D01*
X010855Y019430D01*
X010855Y019355D02*
X010855Y019505D01*
X011305Y019355D02*
X011305Y019280D01*
X011230Y019205D01*
X013553Y021280D02*
X013854Y021280D01*
X014004Y021430D01*
X013854Y021580D01*
X013553Y021580D01*
X013553Y021740D02*
X013553Y021890D01*
X013553Y021815D02*
X014004Y021815D01*
X014004Y021740D02*
X014004Y021890D01*
X014004Y022047D02*
X013553Y022047D01*
X014004Y022348D01*
X013553Y022348D01*
X016448Y020525D02*
X016448Y020225D01*
X016523Y020150D01*
X016673Y020150D01*
X016748Y020225D01*
X016748Y020375D01*
X016598Y020375D01*
X016748Y020525D02*
X016673Y020600D01*
X016523Y020600D01*
X016448Y020525D01*
X016908Y020600D02*
X016908Y020150D01*
X017208Y020150D02*
X017208Y020600D01*
X017369Y020600D02*
X017594Y020600D01*
X017669Y020525D01*
X017669Y020225D01*
X017594Y020150D01*
X017369Y020150D01*
X017369Y020600D01*
X016908Y020600D02*
X017208Y020150D01*
X020645Y022760D02*
X004503Y022760D01*
D15*
X012582Y022440D02*
X012584Y022465D01*
X012590Y022489D01*
X012599Y022511D01*
X012612Y022532D01*
X012628Y022551D01*
X012647Y022567D01*
X012668Y022580D01*
X012690Y022589D01*
X012714Y022595D01*
X012739Y022597D01*
X012764Y022595D01*
X012788Y022589D01*
X012810Y022580D01*
X012831Y022567D01*
X012850Y022551D01*
X012866Y022532D01*
X012879Y022511D01*
X012888Y022489D01*
X012894Y022465D01*
X012896Y022440D01*
X012894Y022415D01*
X012888Y022391D01*
X012879Y022369D01*
X012866Y022348D01*
X012850Y022329D01*
X012831Y022313D01*
X012810Y022300D01*
X012788Y022291D01*
X012764Y022285D01*
X012739Y022283D01*
X012714Y022285D01*
X012690Y022291D01*
X012668Y022300D01*
X012647Y022313D01*
X012628Y022329D01*
X012612Y022348D01*
X012599Y022369D01*
X012590Y022391D01*
X012584Y022415D01*
X012582Y022440D01*
X012582Y021417D02*
X012584Y021442D01*
X012590Y021466D01*
X012599Y021488D01*
X012612Y021509D01*
X012628Y021528D01*
X012647Y021544D01*
X012668Y021557D01*
X012690Y021566D01*
X012714Y021572D01*
X012739Y021574D01*
X012764Y021572D01*
X012788Y021566D01*
X012810Y021557D01*
X012831Y021544D01*
X012850Y021528D01*
X012866Y021509D01*
X012879Y021488D01*
X012888Y021466D01*
X012894Y021442D01*
X012896Y021417D01*
X012894Y021392D01*
X012888Y021368D01*
X012879Y021346D01*
X012866Y021325D01*
X012850Y021306D01*
X012831Y021290D01*
X012810Y021277D01*
X012788Y021268D01*
X012764Y021262D01*
X012739Y021260D01*
X012714Y021262D01*
X012690Y021268D01*
X012668Y021277D01*
X012647Y021290D01*
X012628Y021306D01*
X012612Y021325D01*
X012599Y021346D01*
X012590Y021368D01*
X012584Y021392D01*
X012582Y021417D01*
D16*
X010920Y021717D02*
X010920Y021087D01*
X008243Y021087D01*
X008243Y021717D01*
X008243Y022741D02*
X010920Y022741D01*
X006390Y008895D02*
X018516Y008895D01*
X018516Y004159D01*
X006390Y004159D02*
X006390Y008895D01*
D17*
X012334Y005554D02*
X012334Y005437D01*
X012357Y005414D01*
X012404Y005414D01*
X012428Y005437D01*
X012428Y005554D01*
X012481Y005531D02*
X012505Y005554D01*
X012552Y005554D01*
X012575Y005531D01*
X012552Y005484D02*
X012505Y005484D01*
X012481Y005507D01*
X012481Y005531D01*
X012528Y005577D02*
X012528Y005391D01*
X012505Y005414D02*
X012552Y005414D01*
X012575Y005437D01*
X012575Y005461D01*
X012552Y005484D01*
X012629Y005507D02*
X012675Y005554D01*
X012675Y005414D01*
X012629Y005414D02*
X012722Y005414D01*
X012505Y005414D02*
X012481Y005437D01*
X011813Y021509D02*
X011580Y021509D01*
X011580Y021696D02*
X011813Y021696D01*
X011860Y021649D01*
X011860Y021555D01*
X011813Y021509D01*
X011813Y021785D02*
X011860Y021832D01*
X011860Y021925D01*
X011813Y021972D01*
X011767Y021972D01*
X011720Y021925D01*
X011720Y021832D01*
X011673Y021785D01*
X011627Y021785D01*
X011580Y021832D01*
X011580Y021925D01*
X011627Y021972D01*
X011580Y022061D02*
X011580Y022201D01*
X011627Y022248D01*
X011673Y022248D01*
X011720Y022201D01*
X011720Y022061D01*
X011860Y022061D02*
X011860Y022201D01*
X011813Y022248D01*
X011767Y022248D01*
X011720Y022201D01*
X011860Y022061D02*
X011580Y022061D01*
D18*
X010630Y020561D02*
X010030Y020561D01*
X010013Y020559D01*
X009996Y020555D01*
X009980Y020548D01*
X009966Y020538D01*
X009953Y020525D01*
X009943Y020511D01*
X009936Y020495D01*
X009932Y020478D01*
X009930Y020461D01*
X009930Y018761D01*
X009932Y018744D01*
X009936Y018727D01*
X009943Y018711D01*
X009953Y018697D01*
X009966Y018684D01*
X009980Y018674D01*
X009996Y018667D01*
X010013Y018663D01*
X010030Y018661D01*
X010630Y018661D01*
X010647Y018663D01*
X010664Y018667D01*
X010680Y018674D01*
X010694Y018684D01*
X010707Y018697D01*
X010717Y018711D01*
X010724Y018727D01*
X010728Y018744D01*
X010730Y018761D01*
X010730Y020461D01*
X010728Y020478D01*
X010724Y020495D01*
X010717Y020511D01*
X010707Y020525D01*
X010694Y020538D01*
X010680Y020548D01*
X010664Y020555D01*
X010647Y020559D01*
X010630Y020561D01*
X014730Y021137D02*
X014730Y021337D01*
X014730Y021137D02*
X014930Y021137D01*
X015730Y021137D02*
X015930Y021137D01*
X015930Y021337D01*
X016698Y021376D02*
X016698Y021176D01*
X016898Y021176D01*
X017698Y021176D02*
X017898Y021176D01*
X017898Y021376D01*
X017898Y022176D02*
X017898Y022376D01*
X017698Y022376D01*
X016898Y022376D02*
X016698Y022376D01*
X016698Y022176D01*
X015930Y022137D02*
X015930Y022337D01*
X015730Y022337D01*
X014930Y022337D02*
X014730Y022337D01*
X014730Y022137D01*
D19*
X008858Y015958D03*
X008858Y014949D03*
X008858Y011671D03*
D20*
X008852Y011684D03*
X008865Y015027D03*
D21*
X008858Y015093D03*
X008858Y015919D03*
X008858Y011697D03*
D22*
X008852Y011711D03*
X009258Y013310D03*
X008865Y015132D03*
D23*
X008858Y015893D03*
X009265Y013258D03*
X008858Y011724D03*
D24*
X008858Y011737D03*
X009252Y013218D03*
X008858Y015211D03*
X008858Y015880D03*
D25*
X008865Y015237D03*
X008852Y011750D03*
D26*
X008858Y011763D03*
X008858Y015263D03*
D27*
X008852Y011776D03*
D28*
X008858Y011789D03*
D29*
X008852Y011802D03*
D30*
X008852Y011815D03*
X009049Y015617D03*
X009062Y015631D03*
X009075Y015644D03*
X009075Y015657D03*
X008865Y015827D03*
D31*
X009062Y015709D03*
X009075Y015696D03*
X009088Y015683D03*
X008865Y015381D03*
X008852Y011829D03*
D32*
X008858Y011842D03*
X008858Y015408D03*
D33*
X008865Y015421D03*
X008852Y011855D03*
D34*
X008852Y011868D03*
X008865Y015434D03*
D35*
X008852Y011881D03*
D36*
X008852Y011894D03*
X008865Y015473D03*
D37*
X008858Y011907D03*
D38*
X008858Y011920D03*
X008858Y015499D03*
X008858Y015775D03*
D39*
X008852Y011933D03*
D40*
X008852Y011947D03*
X008865Y015526D03*
D41*
X008858Y011960D03*
D42*
X008852Y011973D03*
X008865Y015539D03*
D43*
X008852Y011986D03*
D44*
X008858Y011999D03*
D45*
X008852Y012012D03*
D46*
X008858Y012025D03*
D47*
X008852Y012038D03*
D48*
X008852Y012051D03*
D49*
X008858Y012065D03*
D50*
X008852Y012078D03*
D51*
X008858Y012091D03*
D52*
X008852Y012104D03*
D53*
X008858Y012117D03*
D54*
X008852Y012130D03*
X008852Y012143D03*
D55*
X008858Y012156D03*
D56*
X008852Y012169D03*
D57*
X008858Y012183D03*
D58*
X008852Y012196D03*
X008852Y012209D03*
D59*
X008858Y012222D03*
D60*
X008852Y012235D03*
D61*
X008858Y012248D03*
X008858Y012261D03*
D62*
X008852Y012274D03*
D63*
X008858Y012287D03*
X008858Y012301D03*
D64*
X008852Y012314D03*
X008852Y012327D03*
X008865Y013205D03*
D65*
X008858Y013192D03*
X008858Y013179D03*
X008858Y012340D03*
D66*
X008852Y012353D03*
X008852Y012366D03*
X008865Y013153D03*
X008865Y013166D03*
D67*
X008858Y013140D03*
X008858Y013126D03*
X008858Y013113D03*
X008858Y013100D03*
X008858Y012379D03*
D68*
X008852Y012392D03*
X008852Y012405D03*
D69*
X008858Y012419D03*
X008858Y012432D03*
D70*
X008852Y012445D03*
X008852Y012458D03*
D71*
X008858Y012471D03*
X008858Y012484D03*
D72*
X008852Y012497D03*
X008852Y012510D03*
X008852Y012523D03*
D73*
X008858Y012536D03*
X008858Y012550D03*
D74*
X008852Y012563D03*
X008852Y012576D03*
D75*
X008858Y012589D03*
X008858Y012602D03*
D76*
X008852Y012615D03*
D77*
X008858Y012628D03*
D78*
X008865Y012641D03*
D79*
X008858Y012654D03*
D80*
X008865Y012668D03*
X008865Y012681D03*
X008865Y012956D03*
D81*
X008865Y012930D03*
X008865Y012694D03*
D82*
X008858Y012707D03*
X008858Y012917D03*
D83*
X008865Y012904D03*
X008865Y012890D03*
X008865Y012877D03*
X008865Y012864D03*
X008865Y012851D03*
X008865Y012838D03*
X008865Y012825D03*
X008865Y012812D03*
X008865Y012799D03*
X008865Y012786D03*
X008865Y012772D03*
X008865Y012759D03*
X008865Y012746D03*
X008865Y012733D03*
X008865Y012720D03*
D84*
X008858Y012943D03*
D85*
X008865Y012969D03*
D86*
X008858Y012982D03*
D87*
X008858Y012995D03*
D88*
X008164Y013507D03*
X008137Y013494D03*
X008124Y013480D03*
X008098Y013467D03*
X008085Y013454D03*
X008072Y013441D03*
X008046Y013428D03*
X007928Y013218D03*
X008858Y014490D03*
D89*
X008196Y013520D03*
X008026Y013415D03*
X007921Y013231D03*
D90*
X009265Y013231D03*
X009265Y013244D03*
X008858Y015198D03*
D91*
X008858Y014477D03*
X008019Y013402D03*
X008006Y013389D03*
X007993Y013376D03*
X007980Y013362D03*
X007980Y013349D03*
X007967Y013336D03*
X007954Y013310D03*
X007941Y013297D03*
X007941Y013284D03*
X007928Y013258D03*
X007928Y013244D03*
D92*
X007934Y013271D03*
X007960Y013323D03*
X008865Y014464D03*
D93*
X008865Y015172D03*
X009258Y013271D03*
D94*
X009265Y013284D03*
X008858Y015159D03*
D95*
X009258Y013297D03*
D96*
X009258Y013323D03*
X008865Y015119D03*
D97*
X009271Y013336D03*
D98*
X009278Y013349D03*
D99*
X009265Y013362D03*
X008858Y015054D03*
D100*
X008858Y015041D03*
X009265Y013376D03*
D101*
X009265Y013389D03*
X008426Y015722D03*
D102*
X008439Y015749D03*
X009278Y015552D03*
X009291Y015565D03*
X008858Y014988D03*
X009265Y013402D03*
D103*
X009140Y013415D03*
D104*
X009888Y013415D03*
D105*
X009147Y013428D03*
D106*
X009153Y013441D03*
X008786Y013612D03*
X008786Y013625D03*
X008786Y013638D03*
D107*
X008793Y013664D03*
X009160Y013454D03*
D108*
X009167Y013467D03*
D109*
X009180Y013480D03*
D110*
X009186Y013494D03*
X009160Y013533D03*
X008858Y016024D03*
D111*
X009180Y013507D03*
D112*
X009173Y013520D03*
X008858Y014647D03*
D113*
X008858Y014136D03*
X007993Y013533D03*
D114*
X008380Y013533D03*
X009206Y014726D03*
X009206Y014739D03*
D115*
X008865Y014975D03*
X008459Y015762D03*
X008917Y013546D03*
D116*
X008911Y013559D03*
X008858Y014962D03*
D117*
X008904Y013572D03*
D118*
X008904Y013585D03*
D119*
X008786Y013598D03*
D120*
X009252Y013690D03*
X009514Y013598D03*
X008858Y014097D03*
D121*
X008858Y014044D03*
X009265Y013730D03*
X009527Y013612D03*
D122*
X009534Y013625D03*
D123*
X008786Y013651D03*
D124*
X008839Y013743D03*
X009245Y013677D03*
X008327Y013677D03*
D125*
X008806Y013677D03*
X008858Y014385D03*
D126*
X008858Y014070D03*
X008858Y014057D03*
X009265Y013716D03*
X008308Y013690D03*
D127*
X008806Y013690D03*
X008858Y014346D03*
X008570Y014739D03*
X009606Y015342D03*
D128*
X008288Y013703D03*
D129*
X008813Y013703D03*
D130*
X008858Y014084D03*
X009252Y013703D03*
D131*
X008826Y013716D03*
X009180Y014673D03*
X009180Y014687D03*
X009193Y014700D03*
D132*
X008826Y013730D03*
X007764Y015683D03*
X007790Y015709D03*
D133*
X009271Y013743D03*
D134*
X009278Y013756D03*
X008858Y014005D03*
X008858Y014018D03*
D135*
X008858Y013992D03*
X009278Y013769D03*
D136*
X008858Y013979D03*
D137*
X008858Y014031D03*
D138*
X008858Y014110D03*
X008858Y014123D03*
D139*
X008858Y014149D03*
D140*
X008858Y014162D03*
X008858Y014175D03*
D141*
X008858Y014188D03*
X007770Y015657D03*
X007770Y015670D03*
D142*
X007770Y015696D03*
X008858Y014201D03*
D143*
X008865Y014215D03*
D144*
X008858Y014228D03*
D145*
X008858Y014241D03*
D146*
X008858Y014254D03*
X008858Y014267D03*
X009160Y014660D03*
X009199Y014713D03*
X008858Y016076D03*
D147*
X008858Y014280D03*
D148*
X008858Y014293D03*
X009212Y014765D03*
D149*
X008858Y014319D03*
X008858Y014306D03*
D150*
X008858Y014333D03*
X008596Y014687D03*
X008583Y014700D03*
X009580Y015303D03*
X009593Y015316D03*
D151*
X008570Y014765D03*
X008570Y014752D03*
X008858Y014372D03*
X008858Y014359D03*
D152*
X008858Y014398D03*
X008858Y016063D03*
D153*
X008858Y014424D03*
X008858Y014411D03*
D154*
X008858Y014437D03*
D155*
X008858Y014451D03*
D156*
X008858Y014503D03*
X008085Y015565D03*
X009645Y015749D03*
D157*
X009652Y015735D03*
X008865Y014516D03*
X008092Y015552D03*
X008078Y015578D03*
D158*
X008858Y014529D03*
D159*
X008858Y014542D03*
X009658Y015722D03*
D160*
X008858Y014555D03*
D161*
X008865Y014569D03*
D162*
X008858Y014582D03*
X008858Y016037D03*
D163*
X008858Y014595D03*
D164*
X008858Y014608D03*
D165*
X008865Y014621D03*
D166*
X008858Y014634D03*
D167*
X008616Y014660D03*
X008577Y014713D03*
X008577Y014726D03*
X009573Y015290D03*
X009599Y015329D03*
D168*
X009206Y014778D03*
X008603Y014673D03*
D169*
X009206Y014752D03*
D170*
X008577Y014778D03*
D171*
X008858Y014791D03*
X008858Y015998D03*
D172*
X008858Y014805D03*
D173*
X008865Y014818D03*
D174*
X008858Y014831D03*
D175*
X008858Y014844D03*
X008858Y015984D03*
D176*
X008858Y014857D03*
D177*
X008865Y014870D03*
D178*
X008858Y014883D03*
X008544Y015316D03*
D179*
X008531Y015342D03*
X008858Y014896D03*
X008858Y015971D03*
D180*
X008531Y015355D03*
X008858Y014909D03*
D181*
X008865Y014923D03*
X008537Y015368D03*
D182*
X008858Y014936D03*
D183*
X008858Y015001D03*
X008426Y015735D03*
X008858Y015945D03*
D184*
X009298Y015591D03*
X008865Y015014D03*
D185*
X008865Y015067D03*
D186*
X008865Y015080D03*
D187*
X008858Y015106D03*
D188*
X008858Y015145D03*
D189*
X008865Y015185D03*
D190*
X008865Y015224D03*
D191*
X008858Y015250D03*
X008858Y015866D03*
D192*
X008865Y015277D03*
D193*
X008563Y015290D03*
X008550Y015303D03*
X008537Y015329D03*
D194*
X009599Y015355D03*
D195*
X009599Y015368D03*
D196*
X008858Y015395D03*
D197*
X008858Y015447D03*
D198*
X008858Y015460D03*
X008858Y015788D03*
D199*
X008865Y015486D03*
D200*
X008858Y015513D03*
D201*
X009298Y015578D03*
D202*
X008078Y015591D03*
D203*
X008858Y015604D03*
D204*
X007803Y015617D03*
X007790Y015631D03*
X007777Y015644D03*
D205*
X009081Y015670D03*
D206*
X008852Y016050D03*
X009625Y015762D03*
D207*
X008858Y015801D03*
D208*
X008865Y015814D03*
D209*
X008865Y015840D03*
D210*
X008858Y015853D03*
D211*
X008858Y015906D03*
D212*
X008865Y015932D03*
D213*
X008858Y016011D03*
M02*
