%
M48
M72
T01C0.0236
T02C0.0315
T03C0.0335
T04C0.0400
T05C0.0453
T06C0.0520
T07C0.1300
%
T01
X7259Y3942
X10999Y3942
X13165Y4729
X15527Y5910
X15920Y7091
X18046Y8351
X17771Y9729
X16905Y10477
X14070Y12642
X13243Y12957
X12377Y15438
X10802Y14768
X10133Y14178
X9149Y14178
X8283Y14217
X7220Y16461
X5527Y16973
X7141Y18351
X7102Y20516
X11157Y19020
X11235Y17918
X11983Y17524
X14424Y19926
X16668Y19729
X17850Y17839
X16983Y17564
X16787Y16107
X17456Y15359
X16747Y14571
X17535Y14020
X16983Y13548
X15291Y16383
X18479Y16894
X14346Y22170
X7377Y11461
X9503Y11186
X10487Y11186
X9188Y8548
X16668Y4020
T02
X17386Y11492
X12186Y11492
X12186Y18792
X12739Y21417
X12739Y22440
X17386Y18792
T03
X10566Y21136
X8598Y21136
T04
X4995Y3442
X4995Y4442
X5995Y4442
X5995Y3442
X5995Y5442
X5995Y6442
X5995Y7442
X5995Y8442
X4995Y8442
X4995Y7442
X4995Y6442
X4995Y5442
X4995Y9442
X4995Y10442
X4995Y11442
X5995Y11442
X5995Y10442
X5995Y9442
X5995Y12442
X5995Y13442
X5995Y14442
X5995Y15442
X4995Y15442
X4995Y14442
X4995Y13442
X4995Y12442
X4995Y16442
X4995Y17442
X4995Y18442
X4995Y19442
X5995Y19442
X5995Y18442
X5995Y17442
X5995Y16442
X5995Y20442
X5995Y21442
X5995Y22442
X4995Y22442
X4995Y21442
X4995Y20442
X10548Y8096
X11449Y8096
X12351Y8096
X13252Y8096
X14154Y8096
X14603Y7096
X13701Y7096
X12800Y7096
X11898Y7096
X10996Y7096
X10548Y6096
X11449Y6096
X12351Y6096
X13252Y6096
X14154Y6096
X18995Y6442
X18995Y7442
X18995Y8442
X19995Y8442
X19995Y7442
X19995Y6442
X19995Y5442
X18995Y5442
X18995Y4442
X19995Y4442
X19995Y3442
X18995Y3442
X18995Y9442
X18995Y10442
X18995Y11442
X19995Y11442
X19995Y10442
X19995Y9442
X19995Y12442
X19995Y13442
X19995Y14442
X19995Y15442
X18995Y15442
X18995Y14442
X18995Y13442
X18995Y12442
X18995Y16442
X18995Y17442
X18995Y18442
X18995Y19442
X19995Y19442
X19995Y18442
X19995Y17442
X19995Y16442
X19995Y20442
X19995Y21442
X19995Y22442
X18995Y22442
X18995Y21442
X18995Y20442
T05
X10960Y22170
X8204Y22170
T06
X15330Y21737
X17298Y21776
T07
X17374Y7096
X7532Y7096
M30
