G75*
%MOIN*%
%OFA0B0*%
%FSLAX24Y24*%
%IPPOS*%
%LPD*%
%AMOC8*
5,1,8,0,0,1.08239X$1,22.5*
%
%ADD10C,0.0100*%
%ADD11C,0.0600*%
%ADD12R,0.0600X0.0600*%
%ADD13C,0.0000*%
%ADD14C,0.0740*%
%ADD15C,0.2000*%
%ADD16R,0.0157X0.0531*%
%ADD17R,0.0591X0.0748*%
%ADD18C,0.0679*%
%ADD19C,0.0535*%
%ADD20C,0.0515*%
%ADD21R,0.0630X0.0460*%
%ADD22OC8,0.1250*%
%ADD23C,0.0396*%
%ADD24C,0.0240*%
%ADD25C,0.0120*%
D10*
X004503Y003075D02*
X004503Y022760D01*
X020645Y022760D01*
X020645Y003075D01*
X004503Y003075D01*
X004945Y003492D02*
X004945Y003889D01*
X004890Y003880D01*
X004823Y003859D01*
X004763Y003828D01*
X004763Y003986D01*
X004894Y003932D01*
X005097Y003932D01*
X005284Y004009D01*
X005428Y004153D01*
X005495Y004316D01*
X005563Y004153D01*
X005706Y004009D01*
X005870Y003942D01*
X005706Y003874D01*
X005563Y003730D01*
X005485Y003543D01*
X005485Y003340D01*
X005487Y003335D01*
X005434Y003335D01*
X005434Y003336D01*
X005443Y003392D01*
X005045Y003392D01*
X005045Y003492D01*
X004945Y003492D01*
X004945Y003509D02*
X005045Y003509D01*
X005045Y003492D02*
X005045Y003889D01*
X005101Y003880D01*
X005168Y003859D01*
X005231Y003826D01*
X005288Y003785D01*
X005338Y003735D01*
X005380Y003677D01*
X005412Y003614D01*
X005434Y003547D01*
X005443Y003492D01*
X005045Y003492D01*
X005045Y003410D02*
X005485Y003410D01*
X005485Y003509D02*
X005440Y003509D01*
X005415Y003607D02*
X005512Y003607D01*
X005553Y003706D02*
X005359Y003706D01*
X005261Y003804D02*
X005637Y003804D01*
X005776Y003903D02*
X004763Y003903D01*
X004945Y003804D02*
X005045Y003804D01*
X005045Y003706D02*
X004945Y003706D01*
X004945Y003607D02*
X005045Y003607D01*
X005265Y004001D02*
X005725Y004001D01*
X005616Y004100D02*
X005375Y004100D01*
X005447Y004198D02*
X005544Y004198D01*
X005503Y004297D02*
X005487Y004297D01*
X005495Y004567D02*
X005428Y004730D01*
X005284Y004874D01*
X005121Y004942D01*
X005284Y005009D01*
X005428Y005153D01*
X005495Y005316D01*
X005563Y005153D01*
X005706Y005009D01*
X005870Y004942D01*
X005706Y004874D01*
X005563Y004730D01*
X005495Y004567D01*
X005485Y004592D02*
X005506Y004592D01*
X005547Y004691D02*
X005444Y004691D01*
X005369Y004789D02*
X005622Y004789D01*
X005740Y004888D02*
X005250Y004888D01*
X005229Y004986D02*
X005761Y004986D01*
X005631Y005085D02*
X005360Y005085D01*
X005440Y005183D02*
X005550Y005183D01*
X005509Y005282D02*
X005481Y005282D01*
X005495Y005567D02*
X005428Y005730D01*
X005284Y005874D01*
X005121Y005942D01*
X005284Y006009D01*
X005428Y006153D01*
X005495Y006316D01*
X005563Y006153D01*
X005706Y006009D01*
X005870Y005942D01*
X005706Y005874D01*
X005563Y005730D01*
X005495Y005567D01*
X005491Y005577D02*
X005500Y005577D01*
X005540Y005676D02*
X005450Y005676D01*
X005384Y005774D02*
X005607Y005774D01*
X005705Y005873D02*
X005285Y005873D01*
X005193Y005971D02*
X005798Y005971D01*
X005646Y006070D02*
X005345Y006070D01*
X005434Y006168D02*
X005556Y006168D01*
X005516Y006267D02*
X005475Y006267D01*
X005495Y006567D02*
X005500Y006579D01*
X005493Y006572D01*
X005495Y006567D01*
X005487Y006934D02*
X005487Y007800D01*
X005527Y007839D01*
X005546Y007859D01*
X005645Y007957D01*
X006590Y007957D01*
X007180Y008548D01*
X009188Y008548D01*
X008891Y008828D02*
X006749Y008828D01*
X006651Y008729D02*
X006994Y008729D01*
X007033Y008768D02*
X006482Y008217D01*
X006454Y008217D01*
X006505Y008340D01*
X006505Y008543D01*
X006493Y008572D01*
X008217Y010296D01*
X009909Y010296D01*
X010005Y010335D01*
X010447Y010778D01*
X010569Y010778D01*
X010719Y010840D01*
X010833Y010954D01*
X010895Y011104D01*
X010895Y011267D01*
X010833Y011417D01*
X010719Y011532D01*
X010569Y011594D01*
X010406Y011594D01*
X010256Y011532D01*
X010141Y011417D01*
X010079Y011267D01*
X010079Y011145D01*
X009750Y010816D01*
X009676Y010816D01*
X009734Y010840D01*
X009849Y010954D01*
X009911Y011104D01*
X009911Y011267D01*
X009849Y011417D01*
X009734Y011532D01*
X009584Y011594D01*
X009422Y011594D01*
X009272Y011532D01*
X009186Y011446D01*
X007785Y011446D01*
X007785Y011542D01*
X007723Y011692D01*
X007608Y011807D01*
X007458Y011869D01*
X007296Y011869D01*
X007146Y011807D01*
X007031Y011692D01*
X006969Y011542D01*
X006969Y011421D01*
X006758Y011209D01*
X006451Y011209D01*
X006505Y011340D01*
X006505Y011543D01*
X006493Y011572D01*
X007204Y012282D01*
X007243Y012378D01*
X007243Y013007D01*
X007367Y013130D01*
X009397Y013130D01*
X009493Y013170D01*
X009566Y013243D01*
X010093Y013770D01*
X010214Y013770D01*
X010364Y013832D01*
X010479Y013947D01*
X010541Y014097D01*
X010541Y014259D01*
X010479Y014409D01*
X010364Y014524D01*
X010214Y014586D01*
X010052Y014586D01*
X009902Y014524D01*
X009787Y014409D01*
X009725Y014259D01*
X009725Y014137D01*
X009238Y013650D01*
X008989Y013650D01*
X009108Y013770D01*
X009230Y013770D01*
X009380Y013832D01*
X009495Y013947D01*
X009557Y014097D01*
X009557Y014259D01*
X009495Y014409D01*
X009380Y014524D01*
X009230Y014586D01*
X009068Y014586D01*
X008918Y014524D01*
X008803Y014409D01*
X008741Y014259D01*
X008741Y014137D01*
X008656Y014053D01*
X008691Y014136D01*
X008691Y014298D01*
X008629Y014448D01*
X008514Y014563D01*
X008364Y014625D01*
X008201Y014625D01*
X008051Y014563D01*
X007965Y014477D01*
X006735Y014477D01*
X006639Y014438D01*
X006479Y014278D01*
X006505Y014340D01*
X006505Y014543D01*
X006454Y014666D01*
X010403Y014666D01*
X010456Y014537D01*
X010571Y014422D01*
X010721Y014360D01*
X010884Y014360D01*
X010975Y014398D01*
X010975Y010585D01*
X009671Y009280D01*
X009598Y009207D01*
X009558Y009111D01*
X009558Y008721D01*
X009534Y008779D01*
X009419Y008894D01*
X009269Y008956D01*
X009107Y008956D01*
X008957Y008894D01*
X008871Y008808D01*
X007129Y008808D01*
X007033Y008768D01*
X006896Y008631D02*
X006552Y008631D01*
X006505Y008532D02*
X006797Y008532D01*
X006699Y008434D02*
X006505Y008434D01*
X006503Y008335D02*
X006600Y008335D01*
X006502Y008237D02*
X006463Y008237D01*
X005995Y008442D02*
X008109Y010556D01*
X009857Y010556D01*
X010487Y011186D01*
X010212Y011487D02*
X009778Y011487D01*
X009861Y011389D02*
X010130Y011389D01*
X010089Y011290D02*
X009901Y011290D01*
X009911Y011192D02*
X010079Y011192D01*
X010027Y011093D02*
X009907Y011093D01*
X009929Y010995D02*
X009866Y010995D01*
X009830Y010896D02*
X009791Y010896D01*
X009503Y011186D02*
X007810Y011186D01*
X006066Y009442D01*
X005995Y009442D01*
X005797Y009911D02*
X005747Y009911D01*
X005747Y009891D02*
X005747Y009992D01*
X005870Y009942D01*
X005747Y009891D01*
X005487Y009934D02*
X004995Y009442D01*
X004797Y009911D02*
X004763Y009911D01*
X004763Y009897D02*
X004763Y009986D01*
X004870Y009942D01*
X004763Y009897D01*
X005121Y009942D02*
X005126Y009940D01*
X005132Y009946D01*
X005121Y009942D01*
X005487Y009934D02*
X005487Y010713D01*
X005724Y010949D01*
X006865Y010949D01*
X007377Y011461D01*
X007767Y011586D02*
X009403Y011586D01*
X009603Y011586D02*
X010387Y011586D01*
X010587Y011586D02*
X010975Y011586D01*
X010975Y011684D02*
X007726Y011684D01*
X007633Y011783D02*
X010975Y011783D01*
X010975Y011881D02*
X006803Y011881D01*
X006704Y011783D02*
X007122Y011783D01*
X007028Y011684D02*
X006606Y011684D01*
X006507Y011586D02*
X006987Y011586D01*
X006969Y011487D02*
X006505Y011487D01*
X006505Y011389D02*
X006937Y011389D01*
X006839Y011290D02*
X006485Y011290D01*
X005995Y011442D02*
X006983Y012430D01*
X006983Y013115D01*
X007259Y013390D01*
X009346Y013390D01*
X010133Y014178D01*
X009760Y014344D02*
X009522Y014344D01*
X009557Y014245D02*
X009725Y014245D01*
X009725Y014147D02*
X009557Y014147D01*
X009537Y014048D02*
X009636Y014048D01*
X009538Y013950D02*
X009496Y013950D01*
X009439Y013851D02*
X009400Y013851D01*
X009341Y013753D02*
X009092Y013753D01*
X008993Y013654D02*
X009242Y013654D01*
X008755Y013784D02*
X009149Y014178D01*
X008776Y014344D02*
X008672Y014344D01*
X008691Y014245D02*
X008741Y014245D01*
X008741Y014147D02*
X008691Y014147D01*
X008631Y014442D02*
X008836Y014442D01*
X008959Y014541D02*
X008536Y014541D01*
X008283Y014217D02*
X006787Y014217D01*
X006511Y013942D01*
X005684Y013942D01*
X005487Y013745D01*
X005487Y012934D01*
X004995Y012442D01*
X004763Y012897D02*
X004763Y012986D01*
X004870Y012942D01*
X004763Y012897D01*
X004763Y012965D02*
X004813Y012965D01*
X005121Y012942D02*
X005126Y012940D01*
X005132Y012946D01*
X005121Y012942D01*
X005493Y012572D02*
X005500Y012579D01*
X005495Y012567D01*
X005493Y012572D01*
X005494Y012571D02*
X005497Y012571D01*
X005495Y012316D02*
X005563Y012153D01*
X005706Y012009D01*
X005870Y011942D01*
X005706Y011874D01*
X005563Y011730D01*
X005495Y011567D01*
X005428Y011730D01*
X005284Y011874D01*
X005121Y011942D01*
X005284Y012009D01*
X005428Y012153D01*
X005495Y012316D01*
X005478Y012275D02*
X005512Y012275D01*
X005553Y012177D02*
X005438Y012177D01*
X005353Y012078D02*
X005637Y012078D01*
X005777Y011980D02*
X005214Y011980D01*
X005266Y011881D02*
X005725Y011881D01*
X005615Y011783D02*
X005375Y011783D01*
X005447Y011684D02*
X005544Y011684D01*
X005503Y011586D02*
X005487Y011586D01*
X005495Y011316D02*
X005562Y011155D01*
X005340Y010934D01*
X005281Y010875D01*
X005121Y010942D01*
X005284Y011009D01*
X005428Y011153D01*
X005495Y011316D01*
X005485Y011290D02*
X005506Y011290D01*
X005547Y011192D02*
X005444Y011192D01*
X005500Y011093D02*
X005368Y011093D01*
X005401Y010995D02*
X005250Y010995D01*
X005230Y010896D02*
X005303Y010896D01*
X004870Y010942D02*
X004763Y010897D01*
X004763Y010986D01*
X004870Y010942D01*
X004763Y011897D02*
X004763Y011986D01*
X004870Y011942D01*
X004763Y011897D01*
X004763Y011980D02*
X004777Y011980D01*
X005747Y012891D02*
X005747Y012992D01*
X005870Y012942D01*
X005747Y012891D01*
X005747Y012965D02*
X005813Y012965D01*
X006121Y012942D02*
X006126Y012940D01*
X006132Y012946D01*
X006121Y012942D01*
X005995Y012442D02*
X006668Y013115D01*
X006668Y013469D01*
X006983Y013784D01*
X008755Y013784D01*
X009474Y013162D02*
X010975Y013162D01*
X010975Y013260D02*
X009583Y013260D01*
X009682Y013359D02*
X010975Y013359D01*
X010975Y013457D02*
X009780Y013457D01*
X009879Y013556D02*
X010975Y013556D01*
X010975Y013654D02*
X009977Y013654D01*
X010076Y013753D02*
X010975Y013753D01*
X010975Y013851D02*
X010384Y013851D01*
X010480Y013950D02*
X010975Y013950D01*
X010975Y014048D02*
X010521Y014048D01*
X010541Y014147D02*
X010975Y014147D01*
X010975Y014245D02*
X010541Y014245D01*
X010506Y014344D02*
X010975Y014344D01*
X010802Y014768D02*
X010645Y014926D01*
X005566Y014926D01*
X005082Y014442D01*
X004995Y014442D01*
X005187Y014914D02*
X005121Y014942D01*
X005280Y015008D01*
X005187Y014914D01*
X005208Y014935D02*
X005137Y014935D01*
X004870Y014942D02*
X004763Y014897D01*
X004763Y014986D01*
X004870Y014942D01*
X004854Y014935D02*
X004763Y014935D01*
X005423Y015148D02*
X005428Y015153D01*
X005495Y015316D01*
X005549Y015186D01*
X005514Y015186D01*
X005423Y015148D01*
X005460Y015230D02*
X005531Y015230D01*
X005495Y015567D02*
X005428Y015730D01*
X005284Y015874D01*
X005121Y015942D01*
X005284Y016009D01*
X005428Y016153D01*
X005495Y016316D01*
X005563Y016153D01*
X005706Y016009D01*
X005870Y015942D01*
X005706Y015874D01*
X005563Y015730D01*
X005495Y015567D01*
X005472Y015624D02*
X005519Y015624D01*
X005560Y015723D02*
X005431Y015723D01*
X005337Y015821D02*
X005654Y015821D01*
X005818Y015920D02*
X005173Y015920D01*
X005293Y016018D02*
X005697Y016018D01*
X005599Y016117D02*
X005392Y016117D01*
X005454Y016215D02*
X005537Y016215D01*
X005494Y016314D02*
X005496Y016314D01*
X004870Y015942D02*
X004763Y015897D01*
X004763Y015986D01*
X004870Y015942D01*
X004818Y015920D02*
X004763Y015920D01*
X004763Y016897D02*
X004763Y016986D01*
X004870Y016942D01*
X004763Y016897D01*
X004763Y016905D02*
X004781Y016905D01*
X005527Y016973D02*
X005527Y020910D01*
X004995Y021442D01*
X005468Y021633D02*
X005588Y021633D01*
X005578Y021614D02*
X005610Y021677D01*
X005652Y021735D01*
X005702Y021785D01*
X005759Y021826D01*
X005823Y021859D01*
X005890Y021880D01*
X005945Y021889D01*
X005945Y021492D01*
X006045Y021492D01*
X006045Y021889D01*
X006101Y021880D01*
X006168Y021859D01*
X006231Y021826D01*
X006288Y021785D01*
X006338Y021735D01*
X006380Y021677D01*
X006412Y021614D01*
X006434Y021547D01*
X006443Y021492D01*
X006045Y021492D01*
X006045Y021392D01*
X006443Y021392D01*
X006434Y021336D01*
X006412Y021269D01*
X006380Y021206D01*
X006338Y021148D01*
X006288Y021098D01*
X006231Y021057D01*
X006168Y021025D01*
X006101Y021003D01*
X006045Y020994D01*
X006045Y021392D01*
X005945Y021392D01*
X005548Y021392D01*
X005556Y021336D01*
X005578Y021269D01*
X005610Y021206D01*
X005641Y021163D01*
X005493Y021311D01*
X005505Y021340D01*
X005505Y021543D01*
X005428Y021730D01*
X005284Y021874D01*
X005097Y021952D01*
X004894Y021952D01*
X004763Y021897D01*
X004763Y021992D01*
X004945Y021992D01*
X004945Y022392D01*
X005045Y022392D01*
X005045Y022492D01*
X005445Y022492D01*
X005445Y022500D01*
X005485Y022500D01*
X005485Y022340D01*
X005563Y022153D01*
X005706Y022009D01*
X005894Y021932D01*
X006097Y021932D01*
X006284Y022009D01*
X006386Y022112D01*
X006929Y022112D01*
X007165Y021876D01*
X007165Y020924D01*
X007020Y020924D01*
X006870Y020862D01*
X006756Y020748D01*
X006693Y020598D01*
X006693Y020476D01*
X006639Y020422D01*
X006566Y020349D01*
X006527Y020253D01*
X006527Y018892D01*
X006396Y018762D01*
X006284Y018874D01*
X006121Y018942D01*
X006284Y019009D01*
X006428Y019153D01*
X006505Y019340D01*
X006505Y019543D01*
X006428Y019730D01*
X006284Y019874D01*
X006121Y019942D01*
X006284Y020009D01*
X006428Y020153D01*
X006505Y020340D01*
X006505Y020543D01*
X006428Y020730D01*
X006284Y020874D01*
X006097Y020952D01*
X005894Y020952D01*
X005787Y020907D01*
X005787Y020962D01*
X005747Y021057D01*
X005717Y021087D01*
X005759Y021057D01*
X005823Y021025D01*
X005890Y021003D01*
X005945Y020994D01*
X005945Y021392D01*
X005945Y021492D01*
X005548Y021492D01*
X005556Y021547D01*
X005578Y021614D01*
X005554Y021534D02*
X005505Y021534D01*
X005505Y021436D02*
X005945Y021436D01*
X005945Y021534D02*
X006045Y021534D01*
X006045Y021436D02*
X007165Y021436D01*
X007165Y021534D02*
X006436Y021534D01*
X006403Y021633D02*
X007165Y021633D01*
X007165Y021731D02*
X006341Y021731D01*
X006224Y021830D02*
X007165Y021830D01*
X007112Y021929D02*
X005152Y021929D01*
X005045Y021992D02*
X005315Y021992D01*
X005353Y022002D01*
X005387Y022022D01*
X005415Y022049D01*
X005435Y022084D01*
X005445Y022122D01*
X005445Y022392D01*
X005045Y022392D01*
X005045Y021992D01*
X005045Y022027D02*
X004945Y022027D01*
X004945Y022126D02*
X005045Y022126D01*
X005045Y022224D02*
X004945Y022224D01*
X004945Y022323D02*
X005045Y022323D01*
X005045Y022421D02*
X005485Y022421D01*
X005493Y022323D02*
X005445Y022323D01*
X005445Y022224D02*
X005533Y022224D01*
X005590Y022126D02*
X005445Y022126D01*
X005393Y022027D02*
X005689Y022027D01*
X005766Y021830D02*
X005328Y021830D01*
X005427Y021731D02*
X005650Y021731D01*
X005945Y021731D02*
X006045Y021731D01*
X006045Y021633D02*
X005945Y021633D01*
X005945Y021830D02*
X006045Y021830D01*
X006302Y022027D02*
X007014Y022027D01*
X007474Y022500D02*
X007842Y022500D01*
X007830Y022489D01*
X007785Y022427D01*
X007750Y022358D01*
X007726Y022285D01*
X007721Y022253D01*
X007474Y022500D01*
X007553Y022421D02*
X007782Y022421D01*
X007739Y022323D02*
X007652Y022323D01*
X007825Y021858D02*
X007830Y021851D01*
X007885Y021796D01*
X007947Y021751D01*
X008016Y021716D01*
X008089Y021692D01*
X008154Y021682D01*
X008154Y022120D01*
X008254Y022120D01*
X008254Y021682D01*
X008319Y021692D01*
X008392Y021716D01*
X008460Y021751D01*
X008523Y021796D01*
X008577Y021851D01*
X008623Y021913D01*
X008658Y021982D01*
X008681Y022055D01*
X008683Y022065D01*
X008683Y021705D01*
X008806Y021582D01*
X009150Y021582D01*
X009100Y021533D01*
X009070Y021533D01*
X008972Y021533D01*
X008933Y021522D01*
X008904Y021505D01*
X008868Y021541D01*
X008693Y021614D01*
X008503Y021614D01*
X008327Y021541D01*
X008193Y021407D01*
X008120Y021231D01*
X008120Y021042D01*
X007825Y021042D01*
X007850Y020949D02*
X008479Y020320D01*
X008873Y020320D01*
X009070Y020516D01*
X009070Y021117D01*
X009070Y020731D02*
X009070Y020731D01*
X009070Y020701D01*
X009070Y020731D01*
X009070Y020701D02*
X009100Y020701D01*
X009160Y020641D01*
X009821Y020641D01*
X009814Y020634D01*
X009764Y020513D01*
X009764Y020381D01*
X009805Y020282D01*
X009805Y019941D01*
X008734Y019941D01*
X007825Y020850D01*
X007825Y021858D01*
X007825Y021830D02*
X007851Y021830D01*
X007850Y021816D02*
X008204Y022170D01*
X008154Y022027D02*
X008254Y022027D01*
X008254Y021929D02*
X008154Y021929D01*
X008154Y021830D02*
X008254Y021830D01*
X008254Y021731D02*
X008154Y021731D01*
X007986Y021731D02*
X007825Y021731D01*
X007850Y021816D02*
X007850Y020949D01*
X007825Y020943D02*
X008161Y020943D01*
X008193Y020866D02*
X008120Y021042D01*
X008120Y021140D02*
X007825Y021140D01*
X007825Y021239D02*
X008123Y021239D01*
X008164Y021337D02*
X007825Y021337D01*
X007825Y021436D02*
X008222Y021436D01*
X008321Y021534D02*
X007825Y021534D01*
X007825Y021633D02*
X008755Y021633D01*
X008683Y021731D02*
X008422Y021731D01*
X008556Y021830D02*
X008683Y021830D01*
X008683Y021929D02*
X008630Y021929D01*
X008672Y022027D02*
X008683Y022027D01*
X008683Y022275D02*
X008681Y022285D01*
X008658Y022358D01*
X008623Y022427D01*
X008577Y022489D01*
X008566Y022500D01*
X008683Y022500D01*
X008683Y022275D01*
X008683Y022323D02*
X008669Y022323D01*
X008683Y022421D02*
X008625Y022421D01*
X008875Y021534D02*
X009102Y021534D01*
X009070Y021533D02*
X009070Y021502D01*
X009070Y021533D01*
X009070Y021502D02*
X009070Y021502D01*
X009581Y021593D02*
X009584Y021595D01*
X009587Y021593D01*
X009581Y021593D01*
X010266Y021586D02*
X010358Y021586D01*
X010481Y021709D01*
X010481Y022065D01*
X010482Y022055D01*
X010506Y021982D01*
X010541Y021913D01*
X010586Y021851D01*
X010641Y021796D01*
X010703Y021751D01*
X010772Y021716D01*
X010845Y021692D01*
X010910Y021682D01*
X010910Y022120D01*
X011010Y022120D01*
X011010Y022220D01*
X011448Y022220D01*
X011437Y022285D01*
X011414Y022358D01*
X011379Y022427D01*
X011333Y022489D01*
X011322Y022500D01*
X012372Y022500D01*
X012372Y022367D01*
X012428Y022232D01*
X012531Y022129D01*
X012666Y022073D01*
X012812Y022073D01*
X012948Y022129D01*
X013051Y022232D01*
X013107Y022367D01*
X013107Y022500D01*
X014913Y022500D01*
X014495Y022083D01*
X014495Y021391D01*
X014984Y020902D01*
X015000Y020902D01*
X015000Y019669D01*
X013790Y018459D01*
X013740Y018338D01*
X013740Y012890D01*
X013724Y012874D01*
X013662Y012724D01*
X013662Y012561D01*
X013724Y012411D01*
X013839Y012296D01*
X013989Y012234D01*
X014151Y012234D01*
X014301Y012296D01*
X014416Y012411D01*
X014478Y012561D01*
X014478Y012724D01*
X014416Y012874D01*
X014400Y012890D01*
X014400Y018136D01*
X015517Y019252D01*
X015610Y019345D01*
X015660Y019466D01*
X017170Y019466D01*
X017121Y019446D02*
X016989Y019314D01*
X016918Y019142D01*
X016918Y018441D01*
X016989Y018270D01*
X017121Y018138D01*
X017293Y018067D01*
X017479Y018067D01*
X017515Y018082D01*
X017504Y018070D01*
X017441Y017920D01*
X017441Y017758D01*
X017504Y017608D01*
X017511Y017601D01*
X017511Y015767D01*
X017375Y015767D01*
X017225Y015705D01*
X017110Y015590D01*
X017048Y015440D01*
X017048Y015278D01*
X017110Y015128D01*
X017225Y015013D01*
X017375Y014951D01*
X017511Y014951D01*
X017511Y014428D01*
X017453Y014428D01*
X017303Y014366D01*
X017189Y014251D01*
X017127Y014101D01*
X017127Y013939D01*
X017189Y013789D01*
X017303Y013674D01*
X017453Y013612D01*
X017616Y013612D01*
X017708Y013650D01*
X017708Y012089D01*
X017651Y012146D01*
X017479Y012217D01*
X017293Y012217D01*
X017121Y012146D01*
X016989Y012014D01*
X016918Y011842D01*
X016918Y011141D01*
X016989Y010970D01*
X017121Y010838D01*
X017293Y010767D01*
X017479Y010767D01*
X017651Y010838D01*
X017708Y010895D01*
X017708Y010137D01*
X017690Y010137D01*
X017540Y010075D01*
X017425Y009960D01*
X017363Y009810D01*
X017363Y009648D01*
X017425Y009498D01*
X017540Y009383D01*
X017690Y009321D01*
X017852Y009321D01*
X017983Y009375D01*
X017983Y008759D01*
X017965Y008759D01*
X017815Y008697D01*
X017700Y008582D01*
X017638Y008432D01*
X017638Y008277D01*
X017534Y008306D01*
X017215Y008306D01*
X016907Y008223D01*
X016631Y008064D01*
X016406Y007838D01*
X016247Y007563D01*
X016164Y007255D01*
X016164Y006936D01*
X016247Y006628D01*
X016406Y006353D01*
X016631Y006127D01*
X016907Y005968D01*
X017215Y005886D01*
X017534Y005886D01*
X017841Y005968D01*
X018117Y006127D01*
X018259Y006269D01*
X018259Y004758D01*
X017781Y004280D01*
X016986Y004280D01*
X016900Y004366D01*
X016750Y004428D01*
X016587Y004428D01*
X016437Y004366D01*
X016322Y004251D01*
X016302Y004202D01*
X012977Y004202D01*
X013024Y004221D01*
X013124Y004321D01*
X013246Y004321D01*
X013396Y004383D01*
X013511Y004498D01*
X013573Y004648D01*
X013573Y004810D01*
X013511Y004960D01*
X013396Y005075D01*
X013246Y005137D01*
X013083Y005137D01*
X012933Y005075D01*
X012819Y004960D01*
X012756Y004810D01*
X012756Y004702D01*
X006440Y004702D01*
X006428Y004730D01*
X006284Y004874D01*
X006121Y004942D01*
X006284Y005009D01*
X006428Y005153D01*
X006505Y005340D01*
X006505Y005543D01*
X006428Y005730D01*
X006284Y005874D01*
X006121Y005942D01*
X006284Y006009D01*
X006428Y006153D01*
X006505Y006340D01*
X006505Y006454D01*
X006564Y006353D01*
X006789Y006127D01*
X007065Y005968D01*
X007373Y005886D01*
X007691Y005886D01*
X007999Y005968D01*
X008275Y006127D01*
X008500Y006353D01*
X008659Y006628D01*
X008742Y006936D01*
X008742Y007255D01*
X008659Y007563D01*
X008500Y007838D01*
X008275Y008064D01*
X007999Y008223D01*
X007757Y008288D01*
X008871Y008288D01*
X008957Y008202D01*
X009107Y008140D01*
X009269Y008140D01*
X009419Y008202D01*
X009534Y008317D01*
X009558Y008375D01*
X009558Y006773D01*
X009598Y006678D01*
X009996Y006279D01*
X009968Y006211D01*
X009968Y005980D01*
X010056Y005767D01*
X010219Y005604D01*
X010432Y005516D01*
X010663Y005516D01*
X010876Y005604D01*
X010998Y005726D01*
X011121Y005604D01*
X011334Y005516D01*
X011565Y005516D01*
X011778Y005604D01*
X011900Y005726D01*
X012022Y005604D01*
X012235Y005516D01*
X012466Y005516D01*
X012679Y005604D01*
X012802Y005726D01*
X012924Y005604D01*
X013137Y005516D01*
X013368Y005516D01*
X013581Y005604D01*
X013703Y005726D01*
X013825Y005604D01*
X014039Y005516D01*
X014269Y005516D01*
X014482Y005604D01*
X014646Y005767D01*
X014734Y005980D01*
X014734Y006211D01*
X014646Y006424D01*
X014482Y006587D01*
X014475Y006590D01*
X014481Y006588D01*
X014553Y006577D01*
X014553Y007046D01*
X014084Y007046D01*
X013751Y007046D01*
X013751Y007146D01*
X013651Y007146D01*
X013651Y007614D01*
X013579Y007603D01*
X013574Y007601D01*
X013581Y007604D01*
X013703Y007726D01*
X013825Y007604D01*
X013847Y007595D01*
X013823Y007603D01*
X013751Y007614D01*
X013751Y007146D01*
X014553Y007146D01*
X014553Y007614D01*
X014481Y007603D01*
X014475Y007601D01*
X014482Y007604D01*
X014646Y007767D01*
X014734Y007980D01*
X014734Y008211D01*
X014646Y008424D01*
X014482Y008587D01*
X014269Y008676D01*
X014039Y008676D01*
X013825Y008587D01*
X013703Y008465D01*
X013581Y008587D01*
X013512Y008616D01*
X013512Y012649D01*
X013589Y012726D01*
X013651Y012876D01*
X013651Y013039D01*
X013589Y013188D01*
X013474Y013303D01*
X013324Y013365D01*
X013162Y013365D01*
X013070Y013327D01*
X013070Y015056D01*
X013031Y015152D01*
X012785Y015397D01*
X012785Y015519D01*
X012723Y015669D01*
X012608Y015784D01*
X012458Y015846D01*
X012296Y015846D01*
X012146Y015784D01*
X012031Y015669D01*
X011969Y015519D01*
X011969Y015356D01*
X012031Y015206D01*
X012146Y015092D01*
X012296Y015030D01*
X012418Y015030D01*
X012550Y014897D01*
X012550Y011932D01*
X012534Y011963D01*
X012497Y012015D01*
X012451Y012060D01*
X012399Y012098D01*
X012342Y012127D01*
X012281Y012147D01*
X012218Y012157D01*
X012215Y012157D01*
X012215Y011521D01*
X012157Y011521D01*
X012157Y012157D01*
X012154Y012157D01*
X012090Y012147D01*
X012029Y012127D01*
X011972Y012098D01*
X011920Y012060D01*
X011875Y012015D01*
X011837Y011963D01*
X011808Y011906D01*
X011788Y011845D01*
X011778Y011782D01*
X011778Y011521D01*
X012157Y011521D01*
X012157Y011463D01*
X012215Y011463D01*
X012215Y010827D01*
X012218Y010827D01*
X012281Y010837D01*
X012342Y010857D01*
X012399Y010886D01*
X012451Y010924D01*
X012497Y010969D01*
X012534Y011021D01*
X012550Y011052D01*
X012550Y009522D01*
X012203Y009175D01*
X012130Y009102D01*
X012091Y009006D01*
X012091Y008616D01*
X012022Y008587D01*
X011900Y008465D01*
X011778Y008587D01*
X011565Y008676D01*
X011334Y008676D01*
X011121Y008587D01*
X010957Y008424D01*
X010955Y008419D01*
X010944Y008434D01*
X010886Y008492D01*
X010820Y008540D01*
X010747Y008577D01*
X010669Y008603D01*
X010598Y008614D01*
X010598Y008146D01*
X010498Y008146D01*
X010498Y008614D01*
X010426Y008603D01*
X010348Y008577D01*
X010275Y008540D01*
X010209Y008492D01*
X010151Y008434D01*
X010078Y008434D01*
X010103Y008368D02*
X010078Y008319D01*
X010078Y008952D01*
X011456Y010330D01*
X011495Y010425D01*
X011495Y017601D01*
X011581Y017687D01*
X011644Y017837D01*
X011644Y017999D01*
X011581Y018149D01*
X011467Y018264D01*
X011317Y018326D01*
X011154Y018326D01*
X011004Y018264D01*
X010889Y018149D01*
X010827Y017999D01*
X010827Y017837D01*
X010889Y017687D01*
X010975Y017601D01*
X010975Y015138D01*
X010884Y015176D01*
X010721Y015176D01*
X010720Y015176D01*
X010697Y015186D01*
X006441Y015186D01*
X006505Y015340D01*
X006505Y015543D01*
X006428Y015730D01*
X006284Y015874D01*
X006121Y015942D01*
X006284Y016009D01*
X006428Y016153D01*
X006505Y016340D01*
X006505Y016543D01*
X006428Y016730D01*
X006284Y016874D01*
X006097Y016952D01*
X005935Y016952D01*
X005935Y016996D01*
X005945Y016994D01*
X005945Y017392D01*
X006045Y017392D01*
X006045Y017492D01*
X005945Y017492D01*
X005945Y017889D01*
X005890Y017880D01*
X005823Y017859D01*
X005787Y017840D01*
X005787Y017976D01*
X005894Y017932D01*
X006097Y017932D01*
X006284Y018009D01*
X006428Y018153D01*
X006440Y018182D01*
X006496Y018182D01*
X006591Y018221D01*
X006664Y018294D01*
X006733Y018363D01*
X006733Y018270D01*
X006795Y018120D01*
X006881Y018034D01*
X006881Y016700D01*
X006874Y016692D01*
X006812Y016542D01*
X006812Y016380D01*
X006874Y016230D01*
X006988Y016115D01*
X007138Y016053D01*
X007301Y016053D01*
X007451Y016115D01*
X007566Y016230D01*
X007628Y016380D01*
X007628Y016542D01*
X007566Y016692D01*
X007451Y016807D01*
X007401Y016828D01*
X007401Y018034D01*
X007487Y018120D01*
X007549Y018270D01*
X007549Y018432D01*
X007487Y018582D01*
X007372Y018697D01*
X007222Y018759D01*
X007060Y018759D01*
X007047Y018754D01*
X007047Y020094D01*
X007061Y020108D01*
X007183Y020108D01*
X007333Y020170D01*
X007448Y020285D01*
X007450Y020292D01*
X008318Y019424D01*
X008411Y019331D01*
X008532Y019281D01*
X009805Y019281D01*
X009805Y018694D01*
X009928Y018571D01*
X010732Y018571D01*
X010851Y018690D01*
X010910Y018690D01*
X010925Y018674D01*
X011075Y018612D01*
X011238Y018612D01*
X011388Y018674D01*
X011503Y018789D01*
X011565Y018939D01*
X011565Y019101D01*
X011503Y019251D01*
X011388Y019366D01*
X011238Y019428D01*
X011075Y019428D01*
X010925Y019366D01*
X010910Y019350D01*
X010855Y019350D01*
X010855Y020528D01*
X010732Y020651D01*
X010364Y020651D01*
X010364Y020704D01*
X010471Y020659D01*
X010661Y020659D01*
X010836Y020732D01*
X010971Y020866D01*
X011043Y021042D01*
X014844Y021042D01*
X014942Y020943D02*
X011003Y020943D01*
X011043Y021042D02*
X011043Y021231D01*
X010971Y021407D01*
X010836Y021541D01*
X010661Y021614D01*
X010471Y021614D01*
X010306Y021546D01*
X010266Y021586D01*
X010405Y021633D02*
X012436Y021633D01*
X012428Y021625D02*
X012372Y021490D01*
X012372Y021344D01*
X012428Y021209D01*
X012531Y021105D01*
X012666Y021049D01*
X012812Y021049D01*
X012948Y021105D01*
X013051Y021209D01*
X013107Y021344D01*
X013107Y021490D01*
X013051Y021625D01*
X012948Y021728D01*
X012812Y021784D01*
X012666Y021784D01*
X012531Y021728D01*
X012428Y021625D01*
X012390Y021534D02*
X010843Y021534D01*
X010942Y021436D02*
X012372Y021436D01*
X012374Y021337D02*
X010999Y021337D01*
X011040Y021239D02*
X012415Y021239D01*
X012496Y021140D02*
X011043Y021140D01*
X010950Y020845D02*
X015000Y020845D01*
X015000Y020746D02*
X010851Y020746D01*
X010735Y020648D02*
X015000Y020648D01*
X015000Y020549D02*
X010833Y020549D01*
X010855Y020451D02*
X015000Y020451D01*
X015000Y020352D02*
X010855Y020352D01*
X010855Y020254D02*
X015000Y020254D01*
X015000Y020155D02*
X010855Y020155D01*
X010855Y020057D02*
X015000Y020057D01*
X015000Y019958D02*
X010855Y019958D01*
X010855Y019860D02*
X015000Y019860D01*
X015000Y019761D02*
X010855Y019761D01*
X010855Y019663D02*
X014994Y019663D01*
X014896Y019564D02*
X010855Y019564D01*
X010855Y019466D02*
X014797Y019466D01*
X014699Y019367D02*
X012441Y019367D01*
X012451Y019360D02*
X012399Y019398D01*
X012342Y019427D01*
X012281Y019447D01*
X012218Y019457D01*
X012215Y019457D01*
X012215Y018821D01*
X012593Y018821D01*
X012593Y019082D01*
X012583Y019145D01*
X012563Y019206D01*
X012534Y019263D01*
X012497Y019315D01*
X012451Y019360D01*
X012530Y019269D02*
X014600Y019269D01*
X014502Y019170D02*
X012575Y019170D01*
X012593Y019072D02*
X014403Y019072D01*
X014305Y018973D02*
X012593Y018973D01*
X012593Y018875D02*
X014206Y018875D01*
X014108Y018776D02*
X012215Y018776D01*
X012215Y018763D02*
X012215Y018821D01*
X012157Y018821D01*
X012157Y019457D01*
X012154Y019457D01*
X012090Y019447D01*
X012029Y019427D01*
X011972Y019398D01*
X011920Y019360D01*
X011875Y019315D01*
X011837Y019263D01*
X011808Y019206D01*
X011788Y019145D01*
X011778Y019082D01*
X011778Y018821D01*
X012157Y018821D01*
X012157Y018763D01*
X012215Y018763D01*
X012593Y018763D01*
X012593Y018502D01*
X012583Y018439D01*
X012563Y018378D01*
X012534Y018321D01*
X012497Y018269D01*
X012451Y018224D01*
X012399Y018186D01*
X012342Y018157D01*
X012281Y018137D01*
X012218Y018127D01*
X012215Y018127D01*
X012215Y018763D01*
X012186Y018792D02*
X012186Y017727D01*
X011983Y017524D01*
X011747Y017288D01*
X011747Y015438D01*
X012186Y014999D01*
X012186Y011492D01*
X012157Y011487D02*
X011495Y011487D01*
X011495Y011389D02*
X011778Y011389D01*
X011778Y011463D02*
X011778Y011202D01*
X011788Y011139D01*
X011808Y011078D01*
X011837Y011021D01*
X011875Y010969D01*
X011920Y010924D01*
X011972Y010886D01*
X012029Y010857D01*
X012090Y010837D01*
X012154Y010827D01*
X012157Y010827D01*
X012157Y011463D01*
X011778Y011463D01*
X011778Y011586D02*
X011495Y011586D01*
X011495Y011684D02*
X011778Y011684D01*
X011779Y011783D02*
X011495Y011783D01*
X011495Y011881D02*
X011800Y011881D01*
X011850Y011980D02*
X011495Y011980D01*
X011495Y012078D02*
X011945Y012078D01*
X012157Y012078D02*
X012215Y012078D01*
X012215Y011980D02*
X012157Y011980D01*
X012157Y011881D02*
X012215Y011881D01*
X012215Y011783D02*
X012157Y011783D01*
X012157Y011684D02*
X012215Y011684D01*
X012215Y011586D02*
X012157Y011586D01*
X012157Y011389D02*
X012215Y011389D01*
X012215Y011290D02*
X012157Y011290D01*
X012157Y011192D02*
X012215Y011192D01*
X012215Y011093D02*
X012157Y011093D01*
X012157Y010995D02*
X012215Y010995D01*
X012215Y010896D02*
X012157Y010896D01*
X011958Y010896D02*
X011495Y010896D01*
X011495Y010798D02*
X012550Y010798D01*
X012550Y010896D02*
X012414Y010896D01*
X012515Y010995D02*
X012550Y010995D01*
X012550Y010699D02*
X011495Y010699D01*
X011495Y010601D02*
X012550Y010601D01*
X012550Y010502D02*
X011495Y010502D01*
X011487Y010404D02*
X012550Y010404D01*
X012550Y010305D02*
X011432Y010305D01*
X011333Y010207D02*
X012550Y010207D01*
X012550Y010108D02*
X011235Y010108D01*
X011136Y010010D02*
X012550Y010010D01*
X012550Y009911D02*
X011038Y009911D01*
X010939Y009813D02*
X012550Y009813D01*
X012550Y009714D02*
X010841Y009714D01*
X010742Y009616D02*
X012550Y009616D01*
X012546Y009517D02*
X010644Y009517D01*
X010545Y009419D02*
X012447Y009419D01*
X012349Y009320D02*
X010447Y009320D01*
X010348Y009222D02*
X012250Y009222D01*
X012152Y009123D02*
X010250Y009123D01*
X010151Y009025D02*
X012098Y009025D01*
X012091Y008926D02*
X010078Y008926D01*
X010078Y008828D02*
X012091Y008828D01*
X012091Y008729D02*
X010078Y008729D01*
X010078Y008631D02*
X011226Y008631D01*
X011066Y008532D02*
X010831Y008532D01*
X010944Y008434D02*
X010967Y008434D01*
X010598Y008434D02*
X010498Y008434D01*
X010498Y008532D02*
X010598Y008532D01*
X010598Y008335D02*
X010498Y008335D01*
X010498Y008237D02*
X010598Y008237D01*
X010598Y008046D02*
X010598Y007577D01*
X010669Y007588D01*
X010747Y007614D01*
X010820Y007651D01*
X010886Y007699D01*
X010944Y007757D01*
X010955Y007772D01*
X010957Y007767D01*
X011121Y007604D01*
X011142Y007595D01*
X011118Y007603D01*
X011046Y007614D01*
X011046Y007146D01*
X010946Y007146D01*
X010946Y007614D01*
X010875Y007603D01*
X010797Y007577D01*
X010724Y007540D01*
X010658Y007492D01*
X010600Y007434D01*
X010552Y007368D01*
X010515Y007295D01*
X010489Y007217D01*
X010478Y007146D01*
X010946Y007146D01*
X010946Y007046D01*
X010478Y007046D01*
X010489Y006974D01*
X010515Y006896D01*
X010552Y006823D01*
X010600Y006757D01*
X010658Y006699D01*
X010724Y006651D01*
X010729Y006648D01*
X010663Y006676D01*
X010432Y006676D01*
X010364Y006647D01*
X010078Y006933D01*
X010078Y007872D01*
X010103Y007823D01*
X010151Y007757D01*
X010209Y007699D01*
X010275Y007651D01*
X010348Y007614D01*
X010426Y007588D01*
X010498Y007577D01*
X010498Y008046D01*
X010598Y008046D01*
X010598Y008040D02*
X010498Y008040D01*
X010498Y007941D02*
X010598Y007941D01*
X010598Y007843D02*
X010498Y007843D01*
X010498Y007744D02*
X010598Y007744D01*
X010598Y007646D02*
X010498Y007646D01*
X010284Y007646D02*
X010078Y007646D01*
X010078Y007744D02*
X010163Y007744D01*
X010093Y007843D02*
X010078Y007843D01*
X010078Y007547D02*
X010738Y007547D01*
X010811Y007646D02*
X011078Y007646D01*
X011046Y007547D02*
X010946Y007547D01*
X010946Y007449D02*
X011046Y007449D01*
X011046Y007350D02*
X010946Y007350D01*
X010946Y007252D02*
X011046Y007252D01*
X011046Y007153D02*
X010946Y007153D01*
X010996Y007096D02*
X011504Y007603D01*
X012292Y007603D01*
X012800Y007096D01*
X012850Y007055D02*
X013651Y007055D01*
X013651Y007046D02*
X012850Y007046D01*
X012850Y007146D01*
X012750Y007146D01*
X012750Y007614D01*
X012678Y007603D01*
X012672Y007601D01*
X012679Y007604D01*
X012802Y007726D01*
X012924Y007604D01*
X012945Y007595D01*
X012921Y007603D01*
X012850Y007614D01*
X012850Y007146D01*
X013318Y007146D01*
X013651Y007146D01*
X013651Y007046D01*
X013751Y007046D01*
X013751Y006577D01*
X013823Y006588D01*
X013847Y006596D01*
X013825Y006587D01*
X013703Y006465D01*
X013581Y006587D01*
X013574Y006590D01*
X013579Y006588D01*
X013651Y006577D01*
X013651Y007046D01*
X013651Y006956D02*
X013751Y006956D01*
X013751Y006858D02*
X013651Y006858D01*
X013651Y006759D02*
X013751Y006759D01*
X013751Y006661D02*
X013651Y006661D01*
X013606Y006562D02*
X013801Y006562D01*
X013951Y006639D02*
X013974Y006651D01*
X014040Y006699D01*
X014098Y006757D01*
X014146Y006823D01*
X014152Y006835D01*
X014158Y006823D01*
X014206Y006757D01*
X014264Y006699D01*
X014330Y006651D01*
X014335Y006648D01*
X014269Y006676D01*
X014039Y006676D01*
X013951Y006639D01*
X013988Y006661D02*
X014003Y006661D01*
X014100Y006759D02*
X014204Y006759D01*
X014304Y006661D02*
X014316Y006661D01*
X014507Y006562D02*
X015267Y006562D01*
X015267Y006464D02*
X014606Y006464D01*
X014670Y006365D02*
X015267Y006365D01*
X015267Y006267D02*
X014711Y006267D01*
X014734Y006168D02*
X015208Y006168D01*
X015181Y006141D02*
X015119Y005991D01*
X015119Y005829D01*
X015181Y005679D01*
X015296Y005564D01*
X015446Y005502D01*
X015608Y005502D01*
X015758Y005564D01*
X015873Y005679D01*
X015935Y005829D01*
X015935Y005991D01*
X015873Y006141D01*
X015787Y006227D01*
X015787Y016198D01*
X015747Y016294D01*
X015699Y016342D01*
X015699Y016464D01*
X015636Y016614D01*
X015522Y016728D01*
X015372Y016791D01*
X015209Y016791D01*
X015059Y016728D01*
X014945Y016614D01*
X014882Y016464D01*
X014882Y016301D01*
X014945Y016151D01*
X015059Y016037D01*
X015209Y015974D01*
X015267Y015974D01*
X015267Y006227D01*
X015181Y006141D01*
X015151Y006070D02*
X014734Y006070D01*
X014730Y005971D02*
X015119Y005971D01*
X015119Y005873D02*
X014690Y005873D01*
X014649Y005774D02*
X015141Y005774D01*
X015184Y005676D02*
X014555Y005676D01*
X014419Y005577D02*
X015282Y005577D01*
X015527Y005910D02*
X015527Y016146D01*
X015291Y016383D01*
X014918Y016215D02*
X014400Y016215D01*
X014400Y016117D02*
X014979Y016117D01*
X015103Y016018D02*
X014400Y016018D01*
X014400Y015920D02*
X015267Y015920D01*
X015267Y015821D02*
X014400Y015821D01*
X014400Y015723D02*
X015267Y015723D01*
X015267Y015624D02*
X014400Y015624D01*
X014400Y015526D02*
X015267Y015526D01*
X015267Y015427D02*
X014400Y015427D01*
X014400Y015329D02*
X015267Y015329D01*
X015267Y015230D02*
X014400Y015230D01*
X014400Y015132D02*
X015267Y015132D01*
X015267Y015033D02*
X014400Y015033D01*
X014400Y014935D02*
X015267Y014935D01*
X015267Y014836D02*
X014400Y014836D01*
X014400Y014738D02*
X015267Y014738D01*
X015267Y014639D02*
X014400Y014639D01*
X014400Y014541D02*
X015267Y014541D01*
X015267Y014442D02*
X014400Y014442D01*
X014400Y014344D02*
X015267Y014344D01*
X015267Y014245D02*
X014400Y014245D01*
X014400Y014147D02*
X015267Y014147D01*
X015267Y014048D02*
X014400Y014048D01*
X014400Y013950D02*
X015267Y013950D01*
X015267Y013851D02*
X014400Y013851D01*
X014400Y013753D02*
X015267Y013753D01*
X015267Y013654D02*
X014400Y013654D01*
X014400Y013556D02*
X015267Y013556D01*
X015267Y013457D02*
X014400Y013457D01*
X014400Y013359D02*
X015267Y013359D01*
X015267Y013260D02*
X014400Y013260D01*
X014400Y013162D02*
X015267Y013162D01*
X015267Y013063D02*
X014400Y013063D01*
X014400Y012965D02*
X015267Y012965D01*
X015267Y012866D02*
X014419Y012866D01*
X014460Y012768D02*
X015267Y012768D01*
X015267Y012669D02*
X014478Y012669D01*
X014478Y012571D02*
X015267Y012571D01*
X015267Y012472D02*
X014441Y012472D01*
X014379Y012374D02*
X015267Y012374D01*
X015267Y012275D02*
X014251Y012275D01*
X013889Y012275D02*
X013512Y012275D01*
X013512Y012177D02*
X015267Y012177D01*
X015267Y012078D02*
X013512Y012078D01*
X013512Y011980D02*
X015267Y011980D01*
X015267Y011881D02*
X013512Y011881D01*
X013512Y011783D02*
X015267Y011783D01*
X015267Y011684D02*
X013512Y011684D01*
X013512Y011586D02*
X015267Y011586D01*
X015267Y011487D02*
X013512Y011487D01*
X013512Y011389D02*
X015267Y011389D01*
X015267Y011290D02*
X013512Y011290D01*
X013512Y011192D02*
X015267Y011192D01*
X015267Y011093D02*
X013512Y011093D01*
X013512Y010995D02*
X015267Y010995D01*
X015267Y010896D02*
X013512Y010896D01*
X013512Y010798D02*
X015267Y010798D01*
X015267Y010699D02*
X013512Y010699D01*
X013512Y010601D02*
X015267Y010601D01*
X015267Y010502D02*
X013512Y010502D01*
X013512Y010404D02*
X015267Y010404D01*
X015267Y010305D02*
X013512Y010305D01*
X013512Y010207D02*
X015267Y010207D01*
X015267Y010108D02*
X013512Y010108D01*
X013512Y010010D02*
X015267Y010010D01*
X015267Y009911D02*
X013512Y009911D01*
X013512Y009813D02*
X015267Y009813D01*
X015267Y009714D02*
X013512Y009714D01*
X013512Y009616D02*
X015267Y009616D01*
X015267Y009517D02*
X013512Y009517D01*
X013512Y009419D02*
X015267Y009419D01*
X015267Y009320D02*
X013512Y009320D01*
X013512Y009222D02*
X015267Y009222D01*
X015267Y009123D02*
X013512Y009123D01*
X013512Y009025D02*
X015267Y009025D01*
X015267Y008926D02*
X013512Y008926D01*
X013512Y008828D02*
X015267Y008828D01*
X015267Y008729D02*
X013512Y008729D01*
X013512Y008631D02*
X013931Y008631D01*
X013771Y008532D02*
X013636Y008532D01*
X013252Y008096D02*
X013252Y012948D01*
X013243Y012957D01*
X013517Y013260D02*
X013740Y013260D01*
X013740Y013162D02*
X013600Y013162D01*
X013641Y013063D02*
X013740Y013063D01*
X013740Y012965D02*
X013651Y012965D01*
X013647Y012866D02*
X013721Y012866D01*
X013680Y012768D02*
X013607Y012768D01*
X013662Y012669D02*
X013533Y012669D01*
X013512Y012571D02*
X013662Y012571D01*
X013699Y012472D02*
X013512Y012472D01*
X013512Y012374D02*
X013761Y012374D01*
X013740Y013359D02*
X013340Y013359D01*
X013147Y013359D02*
X013070Y013359D01*
X013070Y013457D02*
X013740Y013457D01*
X013740Y013556D02*
X013070Y013556D01*
X013070Y013654D02*
X013740Y013654D01*
X013740Y013753D02*
X013070Y013753D01*
X013070Y013851D02*
X013740Y013851D01*
X013740Y013950D02*
X013070Y013950D01*
X013070Y014048D02*
X013740Y014048D01*
X013740Y014147D02*
X013070Y014147D01*
X013070Y014245D02*
X013740Y014245D01*
X013740Y014344D02*
X013070Y014344D01*
X013070Y014442D02*
X013740Y014442D01*
X013740Y014541D02*
X013070Y014541D01*
X013070Y014639D02*
X013740Y014639D01*
X013740Y014738D02*
X013070Y014738D01*
X013070Y014836D02*
X013740Y014836D01*
X013740Y014935D02*
X013070Y014935D01*
X013070Y015033D02*
X013740Y015033D01*
X013740Y015132D02*
X013039Y015132D01*
X012952Y015230D02*
X013740Y015230D01*
X013740Y015329D02*
X012853Y015329D01*
X012785Y015427D02*
X013740Y015427D01*
X013740Y015526D02*
X012782Y015526D01*
X012741Y015624D02*
X013740Y015624D01*
X013740Y015723D02*
X012669Y015723D01*
X012517Y015821D02*
X013740Y015821D01*
X013740Y015920D02*
X011495Y015920D01*
X011495Y016018D02*
X013740Y016018D01*
X013740Y016117D02*
X011495Y016117D01*
X011495Y016215D02*
X013740Y016215D01*
X013740Y016314D02*
X011495Y016314D01*
X011495Y016412D02*
X013740Y016412D01*
X013740Y016511D02*
X011495Y016511D01*
X011495Y016609D02*
X013740Y016609D01*
X013740Y016708D02*
X011495Y016708D01*
X011495Y016806D02*
X013740Y016806D01*
X013740Y016905D02*
X011495Y016905D01*
X011495Y017003D02*
X013740Y017003D01*
X013740Y017102D02*
X011495Y017102D01*
X011495Y017200D02*
X013740Y017200D01*
X013740Y017299D02*
X011495Y017299D01*
X011495Y017397D02*
X013740Y017397D01*
X013740Y017496D02*
X011495Y017496D01*
X011495Y017594D02*
X013740Y017594D01*
X013740Y017693D02*
X011584Y017693D01*
X011625Y017791D02*
X013740Y017791D01*
X013740Y017890D02*
X011644Y017890D01*
X011644Y017988D02*
X013740Y017988D01*
X013740Y018087D02*
X011607Y018087D01*
X011545Y018185D02*
X011973Y018185D01*
X011972Y018186D02*
X012029Y018157D01*
X012090Y018137D01*
X012154Y018127D01*
X012157Y018127D01*
X012157Y018763D01*
X011778Y018763D01*
X011778Y018502D01*
X011788Y018439D01*
X011808Y018378D01*
X011837Y018321D01*
X011875Y018269D01*
X011920Y018224D01*
X011972Y018186D01*
X011864Y018284D02*
X011418Y018284D01*
X011053Y018284D02*
X007549Y018284D01*
X007549Y018382D02*
X011807Y018382D01*
X011782Y018481D02*
X007529Y018481D01*
X007488Y018579D02*
X009919Y018579D01*
X009821Y018678D02*
X007391Y018678D01*
X007047Y018776D02*
X009805Y018776D01*
X009805Y018875D02*
X007047Y018875D01*
X007047Y018973D02*
X009805Y018973D01*
X009805Y019072D02*
X007047Y019072D01*
X007047Y019170D02*
X009805Y019170D01*
X009805Y019269D02*
X007047Y019269D01*
X007047Y019367D02*
X008374Y019367D01*
X008318Y019424D02*
X008318Y019424D01*
X008276Y019466D02*
X007047Y019466D01*
X007047Y019564D02*
X008177Y019564D01*
X008079Y019663D02*
X007047Y019663D01*
X007047Y019761D02*
X007980Y019761D01*
X007882Y019860D02*
X007047Y019860D01*
X007047Y019958D02*
X007783Y019958D01*
X007685Y020057D02*
X007047Y020057D01*
X007297Y020155D02*
X007586Y020155D01*
X007488Y020254D02*
X007416Y020254D01*
X007102Y020516D02*
X006787Y020201D01*
X006787Y018784D01*
X006444Y018442D01*
X005995Y018442D01*
X005787Y018907D02*
X005787Y018976D01*
X005870Y018942D01*
X005787Y018907D01*
X005787Y018973D02*
X005793Y018973D01*
X006198Y018973D02*
X006527Y018973D01*
X006527Y019072D02*
X006347Y019072D01*
X006435Y019170D02*
X006527Y019170D01*
X006527Y019269D02*
X006476Y019269D01*
X006505Y019367D02*
X006527Y019367D01*
X006527Y019466D02*
X006505Y019466D01*
X006496Y019564D02*
X006527Y019564D01*
X006527Y019663D02*
X006456Y019663D01*
X006397Y019761D02*
X006527Y019761D01*
X006527Y019860D02*
X006298Y019860D01*
X006162Y019958D02*
X006527Y019958D01*
X006527Y020057D02*
X006332Y020057D01*
X006429Y020155D02*
X006527Y020155D01*
X006527Y020254D02*
X006470Y020254D01*
X006505Y020352D02*
X006570Y020352D01*
X006505Y020451D02*
X006668Y020451D01*
X006693Y020549D02*
X006503Y020549D01*
X006462Y020648D02*
X006714Y020648D01*
X006755Y020746D02*
X006412Y020746D01*
X006313Y020845D02*
X006853Y020845D01*
X007165Y020943D02*
X006116Y020943D01*
X006045Y021042D02*
X005945Y021042D01*
X005945Y021140D02*
X006045Y021140D01*
X006045Y021239D02*
X005945Y021239D01*
X005945Y021337D02*
X006045Y021337D01*
X006202Y021042D02*
X007165Y021042D01*
X007165Y021140D02*
X006331Y021140D01*
X006397Y021239D02*
X007165Y021239D01*
X007165Y021337D02*
X006434Y021337D01*
X005874Y020943D02*
X005787Y020943D01*
X005788Y021042D02*
X005754Y021042D01*
X005593Y021239D02*
X005566Y021239D01*
X005556Y021337D02*
X005504Y021337D01*
X005126Y020944D02*
X005132Y020937D01*
X005121Y020942D01*
X005126Y020944D01*
X005125Y020943D02*
X005126Y020943D01*
X004870Y020942D02*
X004763Y020897D01*
X004763Y020986D01*
X004870Y020942D01*
X004865Y020943D02*
X004763Y020943D01*
X004763Y019986D02*
X004870Y019942D01*
X004763Y019897D01*
X004763Y019986D01*
X004763Y019958D02*
X004829Y019958D01*
X005121Y019942D02*
X005267Y019881D01*
X005267Y020002D01*
X005121Y019942D01*
X005162Y019958D02*
X005267Y019958D01*
X005787Y019958D02*
X005829Y019958D01*
X005870Y019942D02*
X005787Y019976D01*
X005787Y019907D01*
X005870Y019942D01*
X005267Y019002D02*
X005267Y018881D01*
X005121Y018942D01*
X005267Y019002D01*
X005267Y018973D02*
X005198Y018973D01*
X004870Y018942D02*
X004763Y018897D01*
X004763Y018986D01*
X004870Y018942D01*
X004793Y018973D02*
X004763Y018973D01*
X004763Y017986D02*
X004870Y017942D01*
X004763Y017897D01*
X004763Y017986D01*
X005121Y017942D02*
X005267Y017881D01*
X005267Y018002D01*
X005121Y017942D01*
X005234Y017988D02*
X005267Y017988D01*
X005267Y017890D02*
X005245Y017890D01*
X005787Y017890D02*
X006881Y017890D01*
X006881Y017988D02*
X006234Y017988D01*
X006168Y017859D02*
X006101Y017880D01*
X006045Y017889D01*
X006045Y017492D01*
X006443Y017492D01*
X006434Y017547D01*
X006412Y017614D01*
X006380Y017677D01*
X006338Y017735D01*
X006288Y017785D01*
X006231Y017826D01*
X006168Y017859D01*
X006279Y017791D02*
X006881Y017791D01*
X006881Y017693D02*
X006369Y017693D01*
X006419Y017594D02*
X006881Y017594D01*
X006881Y017496D02*
X006442Y017496D01*
X006443Y017392D02*
X006045Y017392D01*
X006045Y016994D01*
X006101Y017003D01*
X006168Y017025D01*
X006231Y017057D01*
X006288Y017098D01*
X006338Y017148D01*
X006380Y017206D01*
X006412Y017269D01*
X006434Y017336D01*
X006443Y017392D01*
X006422Y017299D02*
X006881Y017299D01*
X006881Y017397D02*
X006045Y017397D01*
X006045Y017299D02*
X005945Y017299D01*
X005945Y017200D02*
X006045Y017200D01*
X006045Y017102D02*
X005945Y017102D01*
X005945Y017003D02*
X006045Y017003D01*
X006103Y017003D02*
X006881Y017003D01*
X006881Y016905D02*
X006209Y016905D01*
X006352Y016806D02*
X006881Y016806D01*
X006881Y016708D02*
X006437Y016708D01*
X006478Y016609D02*
X006839Y016609D01*
X006812Y016511D02*
X006505Y016511D01*
X006505Y016412D02*
X006812Y016412D01*
X006839Y016314D02*
X006494Y016314D01*
X006454Y016215D02*
X006888Y016215D01*
X006987Y016117D02*
X006392Y016117D01*
X006293Y016018D02*
X010975Y016018D01*
X010975Y015920D02*
X006173Y015920D01*
X006337Y015821D02*
X010975Y015821D01*
X010975Y015723D02*
X006431Y015723D01*
X006472Y015624D02*
X010975Y015624D01*
X010975Y015526D02*
X006505Y015526D01*
X006505Y015427D02*
X010975Y015427D01*
X010975Y015329D02*
X006501Y015329D01*
X006460Y015230D02*
X010975Y015230D01*
X011495Y015230D02*
X012021Y015230D01*
X011980Y015329D02*
X011495Y015329D01*
X011495Y015427D02*
X011969Y015427D01*
X011972Y015526D02*
X011495Y015526D01*
X011495Y015624D02*
X012013Y015624D01*
X012085Y015723D02*
X011495Y015723D01*
X011495Y015821D02*
X012237Y015821D01*
X012377Y015438D02*
X012810Y015005D01*
X012810Y009414D01*
X012351Y008955D01*
X012351Y008096D01*
X011951Y007676D02*
X011900Y007726D01*
X011849Y007676D01*
X011951Y007676D01*
X012298Y007516D02*
X012390Y007424D01*
X012392Y007419D01*
X012403Y007434D01*
X012461Y007492D01*
X012527Y007540D01*
X012532Y007543D01*
X012466Y007516D01*
X012298Y007516D01*
X012365Y007449D02*
X012418Y007449D01*
X012750Y007449D02*
X012850Y007449D01*
X012850Y007547D02*
X012750Y007547D01*
X012721Y007646D02*
X012882Y007646D01*
X013050Y007552D02*
X013137Y007516D01*
X013368Y007516D01*
X013434Y007543D01*
X013429Y007540D01*
X013362Y007492D01*
X013305Y007434D01*
X013256Y007368D01*
X013250Y007356D01*
X013244Y007368D01*
X013196Y007434D01*
X013138Y007492D01*
X013072Y007540D01*
X013050Y007552D01*
X013058Y007547D02*
X013060Y007547D01*
X013182Y007449D02*
X013319Y007449D01*
X013651Y007449D02*
X013751Y007449D01*
X013751Y007547D02*
X013651Y007547D01*
X013623Y007646D02*
X013783Y007646D01*
X013951Y007552D02*
X014039Y007516D01*
X014269Y007516D01*
X014335Y007543D01*
X014330Y007540D01*
X014264Y007492D01*
X014206Y007434D01*
X014158Y007368D01*
X014152Y007356D01*
X014146Y007368D01*
X014098Y007434D01*
X014040Y007492D01*
X013974Y007540D01*
X013951Y007552D01*
X013960Y007547D02*
X013961Y007547D01*
X014083Y007449D02*
X014221Y007449D01*
X014553Y007449D02*
X014653Y007449D01*
X014653Y007547D02*
X014553Y007547D01*
X014525Y007646D02*
X015267Y007646D01*
X015267Y007744D02*
X014623Y007744D01*
X014677Y007843D02*
X015267Y007843D01*
X015267Y007941D02*
X014718Y007941D01*
X014734Y008040D02*
X015267Y008040D01*
X015267Y008138D02*
X014734Y008138D01*
X014723Y008237D02*
X015267Y008237D01*
X015267Y008335D02*
X014682Y008335D01*
X014636Y008434D02*
X015267Y008434D01*
X015267Y008532D02*
X014537Y008532D01*
X014377Y008631D02*
X015267Y008631D01*
X015787Y008631D02*
X017749Y008631D01*
X017680Y008532D02*
X015787Y008532D01*
X015787Y008434D02*
X017639Y008434D01*
X017638Y008335D02*
X015787Y008335D01*
X015787Y008237D02*
X016959Y008237D01*
X016761Y008138D02*
X015787Y008138D01*
X015787Y008040D02*
X016608Y008040D01*
X016509Y007941D02*
X015787Y007941D01*
X015787Y007843D02*
X016411Y007843D01*
X016352Y007744D02*
X015787Y007744D01*
X015787Y007646D02*
X016295Y007646D01*
X016243Y007547D02*
X015787Y007547D01*
X015787Y007449D02*
X016216Y007449D01*
X016190Y007350D02*
X015787Y007350D01*
X015787Y007252D02*
X016164Y007252D01*
X016164Y007153D02*
X015787Y007153D01*
X015787Y007055D02*
X016164Y007055D01*
X016164Y006956D02*
X015787Y006956D01*
X015787Y006858D02*
X016185Y006858D01*
X016212Y006759D02*
X015787Y006759D01*
X015787Y006661D02*
X016238Y006661D01*
X016285Y006562D02*
X015787Y006562D01*
X015787Y006464D02*
X016342Y006464D01*
X016399Y006365D02*
X015787Y006365D01*
X015787Y006267D02*
X016492Y006267D01*
X016590Y006168D02*
X015846Y006168D01*
X015902Y006070D02*
X016731Y006070D01*
X016901Y005971D02*
X015935Y005971D01*
X015935Y005873D02*
X018259Y005873D01*
X018259Y005971D02*
X017847Y005971D01*
X018018Y006070D02*
X018259Y006070D01*
X018259Y006168D02*
X018159Y006168D01*
X018257Y006267D02*
X018259Y006267D01*
X018259Y005774D02*
X015912Y005774D01*
X015870Y005676D02*
X018259Y005676D01*
X018259Y005577D02*
X015771Y005577D01*
X015267Y006661D02*
X014889Y006661D01*
X014875Y006651D02*
X014941Y006699D01*
X014999Y006757D01*
X015047Y006823D01*
X015085Y006896D01*
X015110Y006974D01*
X015121Y007046D01*
X014653Y007046D01*
X014653Y007146D01*
X014553Y007146D01*
X014553Y007046D01*
X014653Y007046D01*
X014653Y006577D01*
X014724Y006588D01*
X014802Y006614D01*
X014875Y006651D01*
X015001Y006759D02*
X015267Y006759D01*
X015267Y006858D02*
X015065Y006858D01*
X015104Y006956D02*
X015267Y006956D01*
X015267Y007055D02*
X014653Y007055D01*
X014653Y007146D02*
X015121Y007146D01*
X015110Y007217D01*
X015085Y007295D01*
X015047Y007368D01*
X014999Y007434D01*
X014941Y007492D01*
X014875Y007540D01*
X014802Y007577D01*
X014724Y007603D01*
X014653Y007614D01*
X014653Y007146D01*
X014653Y007153D02*
X014553Y007153D01*
X014553Y007055D02*
X013751Y007055D01*
X013751Y007153D02*
X013651Y007153D01*
X013651Y007252D02*
X013751Y007252D01*
X013751Y007350D02*
X013651Y007350D01*
X013250Y006835D02*
X013256Y006823D01*
X013305Y006757D01*
X013362Y006699D01*
X013429Y006651D01*
X013434Y006648D01*
X013368Y006676D01*
X013137Y006676D01*
X013050Y006639D01*
X013072Y006651D01*
X013138Y006699D01*
X013196Y006757D01*
X013244Y006823D01*
X013250Y006835D01*
X013198Y006759D02*
X013303Y006759D01*
X013403Y006661D02*
X013415Y006661D01*
X013102Y006661D02*
X013086Y006661D01*
X012945Y006596D02*
X012924Y006587D01*
X012802Y006465D01*
X012679Y006587D01*
X012672Y006590D01*
X012678Y006588D01*
X012750Y006577D01*
X012750Y007046D01*
X012850Y007046D01*
X012850Y006577D01*
X012921Y006588D01*
X012945Y006596D01*
X012899Y006562D02*
X012704Y006562D01*
X012750Y006661D02*
X012850Y006661D01*
X012850Y006759D02*
X012750Y006759D01*
X012750Y006858D02*
X012850Y006858D01*
X012850Y006956D02*
X012750Y006956D01*
X012750Y007153D02*
X012850Y007153D01*
X012850Y007252D02*
X012750Y007252D01*
X012750Y007350D02*
X012850Y007350D01*
X012392Y006772D02*
X012390Y006767D01*
X012298Y006676D01*
X012466Y006676D01*
X012532Y006648D01*
X012527Y006651D01*
X012461Y006699D01*
X012403Y006757D01*
X012392Y006772D01*
X012401Y006759D02*
X012382Y006759D01*
X012501Y006661D02*
X012513Y006661D01*
X011951Y006516D02*
X011849Y006516D01*
X011900Y006465D01*
X011951Y006516D01*
X011498Y006676D02*
X011334Y006676D01*
X011247Y006639D01*
X011269Y006651D01*
X011335Y006699D01*
X011393Y006757D01*
X011404Y006772D01*
X011406Y006767D01*
X011498Y006676D01*
X011414Y006759D02*
X011395Y006759D01*
X011299Y006661D02*
X011283Y006661D01*
X011142Y006596D02*
X011121Y006587D01*
X010998Y006465D01*
X010876Y006587D01*
X010869Y006590D01*
X010875Y006588D01*
X010946Y006577D01*
X010946Y007046D01*
X011046Y007046D01*
X011046Y006577D01*
X011118Y006588D01*
X011142Y006596D01*
X011096Y006562D02*
X010901Y006562D01*
X010946Y006661D02*
X011046Y006661D01*
X011046Y006759D02*
X010946Y006759D01*
X010946Y006858D02*
X011046Y006858D01*
X011046Y006956D02*
X010946Y006956D01*
X010946Y007055D02*
X010078Y007055D01*
X010078Y007153D02*
X010479Y007153D01*
X010501Y007252D02*
X010078Y007252D01*
X010078Y007350D02*
X010543Y007350D01*
X010614Y007449D02*
X010078Y007449D01*
X010078Y006956D02*
X010495Y006956D01*
X010534Y006858D02*
X010153Y006858D01*
X010251Y006759D02*
X010598Y006759D01*
X010698Y006661D02*
X010710Y006661D01*
X010397Y006661D02*
X010350Y006661D01*
X009910Y006365D02*
X008508Y006365D01*
X008564Y006464D02*
X009811Y006464D01*
X009713Y006562D02*
X008621Y006562D01*
X008668Y006661D02*
X009614Y006661D01*
X009564Y006759D02*
X008694Y006759D01*
X008721Y006858D02*
X009558Y006858D01*
X009558Y006956D02*
X008742Y006956D01*
X008742Y007055D02*
X009558Y007055D01*
X009558Y007153D02*
X008742Y007153D01*
X008742Y007252D02*
X009558Y007252D01*
X009558Y007350D02*
X008716Y007350D01*
X008690Y007449D02*
X009558Y007449D01*
X009558Y007547D02*
X008663Y007547D01*
X008611Y007646D02*
X009558Y007646D01*
X009558Y007744D02*
X008554Y007744D01*
X008496Y007843D02*
X009558Y007843D01*
X009558Y007941D02*
X008397Y007941D01*
X008299Y008040D02*
X009558Y008040D01*
X009558Y008138D02*
X008145Y008138D01*
X007947Y008237D02*
X008922Y008237D01*
X009454Y008237D02*
X009558Y008237D01*
X009558Y008335D02*
X009542Y008335D01*
X009555Y008729D02*
X009558Y008729D01*
X009558Y008828D02*
X009485Y008828D01*
X009558Y008926D02*
X009341Y008926D01*
X009558Y009025D02*
X006946Y009025D01*
X006848Y008926D02*
X009036Y008926D01*
X009563Y009123D02*
X007045Y009123D01*
X007143Y009222D02*
X009613Y009222D01*
X009711Y009320D02*
X007242Y009320D01*
X007340Y009419D02*
X009810Y009419D01*
X009908Y009517D02*
X007439Y009517D01*
X007537Y009616D02*
X010007Y009616D01*
X010105Y009714D02*
X007636Y009714D01*
X007734Y009813D02*
X010204Y009813D01*
X010302Y009911D02*
X007833Y009911D01*
X007931Y010010D02*
X010401Y010010D01*
X010499Y010108D02*
X008030Y010108D01*
X008128Y010207D02*
X010598Y010207D01*
X010696Y010305D02*
X009933Y010305D01*
X010073Y010404D02*
X010795Y010404D01*
X010893Y010502D02*
X010172Y010502D01*
X010270Y010601D02*
X010975Y010601D01*
X010975Y010699D02*
X010369Y010699D01*
X010618Y010798D02*
X010975Y010798D01*
X010975Y010896D02*
X010775Y010896D01*
X010850Y010995D02*
X010975Y010995D01*
X010975Y011093D02*
X010891Y011093D01*
X010895Y011192D02*
X010975Y011192D01*
X010975Y011290D02*
X010886Y011290D01*
X010845Y011389D02*
X010975Y011389D01*
X010975Y011487D02*
X010763Y011487D01*
X010975Y011980D02*
X006901Y011980D01*
X007000Y012078D02*
X010975Y012078D01*
X010975Y012177D02*
X007098Y012177D01*
X007197Y012275D02*
X010975Y012275D01*
X010975Y012374D02*
X007242Y012374D01*
X007243Y012472D02*
X010975Y012472D01*
X010975Y012571D02*
X007243Y012571D01*
X007243Y012669D02*
X010975Y012669D01*
X010975Y012768D02*
X007243Y012768D01*
X007243Y012866D02*
X010975Y012866D01*
X010975Y012965D02*
X007243Y012965D01*
X007300Y013063D02*
X010975Y013063D01*
X011495Y013063D02*
X012550Y013063D01*
X012550Y012965D02*
X011495Y012965D01*
X011495Y012866D02*
X012550Y012866D01*
X012550Y012768D02*
X011495Y012768D01*
X011495Y012669D02*
X012550Y012669D01*
X012550Y012571D02*
X011495Y012571D01*
X011495Y012472D02*
X012550Y012472D01*
X012550Y012374D02*
X011495Y012374D01*
X011495Y012275D02*
X012550Y012275D01*
X012550Y012177D02*
X011495Y012177D01*
X011495Y011290D02*
X011778Y011290D01*
X011780Y011192D02*
X011495Y011192D01*
X011495Y011093D02*
X011803Y011093D01*
X011856Y010995D02*
X011495Y010995D01*
X011235Y010477D02*
X009818Y009060D01*
X009818Y006825D01*
X010548Y006096D01*
X010948Y005676D02*
X011048Y005676D01*
X011184Y005577D02*
X010813Y005577D01*
X010283Y005577D02*
X006491Y005577D01*
X006505Y005479D02*
X018259Y005479D01*
X018259Y005380D02*
X006505Y005380D01*
X006481Y005282D02*
X018259Y005282D01*
X018259Y005183D02*
X006440Y005183D01*
X006360Y005085D02*
X012958Y005085D01*
X012845Y004986D02*
X006229Y004986D01*
X006250Y004888D02*
X012789Y004888D01*
X012756Y004789D02*
X006369Y004789D01*
X005995Y004442D02*
X012877Y004442D01*
X013165Y004729D01*
X013540Y004888D02*
X018259Y004888D01*
X018259Y004986D02*
X013484Y004986D01*
X013372Y005085D02*
X018259Y005085D01*
X018259Y004789D02*
X013573Y004789D01*
X013573Y004691D02*
X018192Y004691D01*
X018093Y004592D02*
X013550Y004592D01*
X013507Y004494D02*
X017995Y004494D01*
X017896Y004395D02*
X016829Y004395D01*
X016969Y004297D02*
X017798Y004297D01*
X017889Y004020D02*
X018519Y004650D01*
X018519Y007957D01*
X018243Y008233D01*
X018243Y008351D01*
X018046Y008351D01*
X018243Y008351D02*
X018243Y016894D01*
X018479Y016894D01*
X018243Y016894D02*
X018243Y021776D01*
X018440Y021973D01*
X019527Y021973D01*
X019995Y022442D01*
X020385Y022110D02*
X020385Y021773D01*
X020284Y021874D01*
X020121Y021942D01*
X020284Y022009D01*
X020385Y022110D01*
X020385Y022027D02*
X020302Y022027D01*
X020385Y021929D02*
X020152Y021929D01*
X020328Y021830D02*
X020385Y021830D01*
X019870Y021942D02*
X019865Y021944D01*
X019858Y021937D01*
X019870Y021942D01*
X019556Y021713D02*
X019495Y021567D01*
X019435Y021713D01*
X019556Y021713D01*
X019523Y021633D02*
X019468Y021633D01*
X019495Y021316D02*
X019428Y021153D01*
X019284Y021009D01*
X019121Y020942D01*
X019284Y020874D01*
X019428Y020730D01*
X019495Y020567D01*
X019563Y020730D01*
X019706Y020874D01*
X019870Y020942D01*
X019706Y021009D01*
X019563Y021153D01*
X019495Y021316D01*
X019463Y021239D02*
X019527Y021239D01*
X019575Y021140D02*
X019415Y021140D01*
X019317Y021042D02*
X019674Y021042D01*
X019677Y020845D02*
X019313Y020845D01*
X019412Y020746D02*
X019579Y020746D01*
X019529Y020648D02*
X019462Y020648D01*
X019495Y020316D02*
X019563Y020153D01*
X019706Y020009D01*
X019870Y019942D01*
X019706Y019874D01*
X019563Y019730D01*
X019495Y019567D01*
X019428Y019730D01*
X019284Y019874D01*
X019121Y019942D01*
X019284Y020009D01*
X019428Y020153D01*
X019495Y020316D01*
X019470Y020254D02*
X019521Y020254D01*
X019562Y020155D02*
X019429Y020155D01*
X019332Y020057D02*
X019659Y020057D01*
X019829Y019958D02*
X019162Y019958D01*
X019298Y019860D02*
X019692Y019860D01*
X019594Y019761D02*
X019397Y019761D01*
X019456Y019663D02*
X019535Y019663D01*
X019495Y019316D02*
X019563Y019153D01*
X019706Y019009D01*
X019870Y018942D01*
X019706Y018874D01*
X019563Y018730D01*
X019495Y018567D01*
X019428Y018730D01*
X019284Y018874D01*
X019121Y018942D01*
X019284Y019009D01*
X019428Y019153D01*
X019495Y019316D01*
X019476Y019269D02*
X019515Y019269D01*
X019556Y019170D02*
X019435Y019170D01*
X019347Y019072D02*
X019644Y019072D01*
X019793Y018973D02*
X019198Y018973D01*
X019282Y018875D02*
X019709Y018875D01*
X019609Y018776D02*
X019382Y018776D01*
X019449Y018678D02*
X019541Y018678D01*
X019500Y018579D02*
X019490Y018579D01*
X019495Y018316D02*
X019563Y018153D01*
X019706Y018009D01*
X019870Y017942D01*
X019706Y017874D01*
X019563Y017730D01*
X019495Y017567D01*
X019428Y017730D01*
X019284Y017874D01*
X019121Y017942D01*
X019284Y018009D01*
X019428Y018153D01*
X019495Y018316D01*
X019482Y018284D02*
X019508Y018284D01*
X019549Y018185D02*
X019441Y018185D01*
X019362Y018087D02*
X019629Y018087D01*
X019756Y017988D02*
X019234Y017988D01*
X019245Y017890D02*
X019745Y017890D01*
X019624Y017791D02*
X019367Y017791D01*
X019443Y017693D02*
X019547Y017693D01*
X019507Y017594D02*
X019484Y017594D01*
X019495Y017316D02*
X019428Y017153D01*
X019284Y017009D01*
X019121Y016942D01*
X019284Y016874D01*
X019428Y016730D01*
X019495Y016567D01*
X019563Y016730D01*
X019706Y016874D01*
X019870Y016942D01*
X019706Y017009D01*
X019563Y017153D01*
X019495Y017316D01*
X019488Y017299D02*
X019502Y017299D01*
X019543Y017200D02*
X019447Y017200D01*
X019377Y017102D02*
X019614Y017102D01*
X019720Y017003D02*
X019270Y017003D01*
X019209Y016905D02*
X019781Y016905D01*
X019639Y016806D02*
X019352Y016806D01*
X019437Y016708D02*
X019554Y016708D01*
X019513Y016609D02*
X019478Y016609D01*
X019495Y016316D02*
X019563Y016153D01*
X019706Y016009D01*
X019870Y015942D01*
X019706Y015874D01*
X019563Y015730D01*
X019495Y015567D01*
X019428Y015730D01*
X019284Y015874D01*
X019121Y015942D01*
X019284Y016009D01*
X019428Y016153D01*
X019495Y016316D01*
X019494Y016314D02*
X019496Y016314D01*
X019454Y016215D02*
X019537Y016215D01*
X019599Y016117D02*
X019392Y016117D01*
X019293Y016018D02*
X019697Y016018D01*
X019818Y015920D02*
X019173Y015920D01*
X019337Y015821D02*
X019654Y015821D01*
X019560Y015723D02*
X019431Y015723D01*
X019472Y015624D02*
X019519Y015624D01*
X019495Y015316D02*
X019563Y015153D01*
X019706Y015009D01*
X019870Y014942D01*
X019706Y014874D01*
X019563Y014730D01*
X019495Y014567D01*
X019428Y014730D01*
X019284Y014874D01*
X019121Y014942D01*
X019284Y015009D01*
X019428Y015153D01*
X019495Y015316D01*
X019460Y015230D02*
X019531Y015230D01*
X019584Y015132D02*
X019407Y015132D01*
X019308Y015033D02*
X019682Y015033D01*
X019669Y014836D02*
X019322Y014836D01*
X019420Y014738D02*
X019570Y014738D01*
X019525Y014639D02*
X019465Y014639D01*
X019495Y014316D02*
X019563Y014153D01*
X019706Y014009D01*
X019870Y013942D01*
X019706Y013874D01*
X019563Y013730D01*
X019495Y013567D01*
X019428Y013730D01*
X019284Y013874D01*
X019121Y013942D01*
X019284Y014009D01*
X019428Y014153D01*
X019495Y014316D01*
X019466Y014245D02*
X019524Y014245D01*
X019569Y014147D02*
X019422Y014147D01*
X019323Y014048D02*
X019667Y014048D01*
X019684Y013851D02*
X019307Y013851D01*
X019405Y013753D02*
X019585Y013753D01*
X019531Y013654D02*
X019459Y013654D01*
X019141Y013950D02*
X019849Y013950D01*
X020121Y013942D02*
X020284Y014009D01*
X020385Y014110D01*
X020385Y013773D01*
X020284Y013874D01*
X020121Y013942D01*
X020141Y013950D02*
X020385Y013950D01*
X020385Y014048D02*
X020323Y014048D01*
X020307Y013851D02*
X020385Y013851D01*
X020385Y014773D02*
X020284Y014874D01*
X020121Y014942D01*
X020284Y015009D01*
X020385Y015110D01*
X020385Y014773D01*
X020385Y014836D02*
X020322Y014836D01*
X020385Y014935D02*
X020137Y014935D01*
X020308Y015033D02*
X020385Y015033D01*
X019854Y014935D02*
X019137Y014935D01*
X018870Y014942D02*
X018706Y014874D01*
X018563Y014730D01*
X018503Y014587D01*
X018503Y015297D01*
X018563Y015153D01*
X018706Y015009D01*
X018870Y014942D01*
X018854Y014935D02*
X018503Y014935D01*
X018503Y015033D02*
X018682Y015033D01*
X018584Y015132D02*
X018503Y015132D01*
X018503Y015230D02*
X018531Y015230D01*
X018503Y014836D02*
X018669Y014836D01*
X018570Y014738D02*
X018503Y014738D01*
X018503Y014639D02*
X018525Y014639D01*
X018503Y014297D02*
X018563Y014153D01*
X018706Y014009D01*
X018870Y013942D01*
X018706Y013874D01*
X018563Y013730D01*
X018503Y013587D01*
X018503Y014297D01*
X018503Y014245D02*
X018524Y014245D01*
X018503Y014147D02*
X018569Y014147D01*
X018503Y014048D02*
X018667Y014048D01*
X018503Y013950D02*
X018849Y013950D01*
X018684Y013851D02*
X018503Y013851D01*
X018503Y013753D02*
X018585Y013753D01*
X018531Y013654D02*
X018503Y013654D01*
X018503Y013297D02*
X018563Y013153D01*
X018706Y013009D01*
X018894Y012932D01*
X019097Y012932D01*
X019284Y013009D01*
X019428Y013153D01*
X019495Y013316D01*
X019563Y013153D01*
X019706Y013009D01*
X019894Y012932D01*
X020097Y012932D01*
X020284Y013009D01*
X020385Y013110D01*
X020385Y012668D01*
X020380Y012677D01*
X020338Y012735D01*
X020288Y012785D01*
X020231Y012826D01*
X020168Y012859D01*
X020101Y012880D01*
X020045Y012889D01*
X020045Y012492D01*
X019945Y012492D01*
X019945Y012889D01*
X019890Y012880D01*
X019823Y012859D01*
X019759Y012826D01*
X019702Y012785D01*
X019652Y012735D01*
X019610Y012677D01*
X019578Y012614D01*
X019556Y012547D01*
X019548Y012492D01*
X019945Y012492D01*
X019945Y012392D01*
X019548Y012392D01*
X019556Y012336D01*
X019578Y012269D01*
X019610Y012206D01*
X019652Y012148D01*
X019702Y012098D01*
X019759Y012057D01*
X019823Y012025D01*
X019890Y012003D01*
X019945Y011994D01*
X019945Y012392D01*
X020045Y012392D01*
X020045Y011994D01*
X020101Y012003D01*
X020168Y012025D01*
X020231Y012057D01*
X020288Y012098D01*
X020338Y012148D01*
X020380Y012206D01*
X020385Y012215D01*
X020385Y011773D01*
X020284Y011874D01*
X020097Y011952D01*
X019894Y011952D01*
X019706Y011874D01*
X019563Y011730D01*
X019495Y011567D01*
X019428Y011730D01*
X019284Y011874D01*
X019097Y011952D01*
X018894Y011952D01*
X018706Y011874D01*
X018563Y011730D01*
X018503Y011587D01*
X018503Y013297D01*
X018503Y013260D02*
X018518Y013260D01*
X018503Y013162D02*
X018559Y013162D01*
X018503Y013063D02*
X018652Y013063D01*
X018503Y012965D02*
X018813Y012965D01*
X018847Y012866D02*
X018503Y012866D01*
X018503Y012768D02*
X018685Y012768D01*
X018702Y012785D02*
X018652Y012735D01*
X018610Y012677D01*
X018578Y012614D01*
X018556Y012547D01*
X018548Y012492D01*
X018945Y012492D01*
X018945Y012889D01*
X018890Y012880D01*
X018823Y012859D01*
X018759Y012826D01*
X018702Y012785D01*
X018606Y012669D02*
X018503Y012669D01*
X018503Y012571D02*
X018564Y012571D01*
X018503Y012472D02*
X018945Y012472D01*
X018945Y012492D02*
X018945Y012392D01*
X018548Y012392D01*
X018556Y012336D01*
X018578Y012269D01*
X018610Y012206D01*
X018652Y012148D01*
X018702Y012098D01*
X018759Y012057D01*
X018823Y012025D01*
X018890Y012003D01*
X018945Y011994D01*
X018945Y012392D01*
X019045Y012392D01*
X019045Y012492D01*
X018945Y012492D01*
X018945Y012571D02*
X019045Y012571D01*
X019045Y012492D02*
X019045Y012889D01*
X019101Y012880D01*
X019168Y012859D01*
X019231Y012826D01*
X019288Y012785D01*
X019338Y012735D01*
X019380Y012677D01*
X019412Y012614D01*
X019434Y012547D01*
X019443Y012492D01*
X019045Y012492D01*
X019045Y012472D02*
X019945Y012472D01*
X019945Y012374D02*
X020045Y012374D01*
X020045Y012275D02*
X019945Y012275D01*
X019945Y012177D02*
X020045Y012177D01*
X020045Y012078D02*
X019945Y012078D01*
X019729Y012078D02*
X019261Y012078D01*
X019288Y012098D02*
X019338Y012148D01*
X019380Y012206D01*
X019412Y012269D01*
X019434Y012336D01*
X019443Y012392D01*
X019045Y012392D01*
X019045Y011994D01*
X019101Y012003D01*
X019168Y012025D01*
X019231Y012057D01*
X019288Y012098D01*
X019359Y012177D02*
X019631Y012177D01*
X019576Y012275D02*
X019414Y012275D01*
X019440Y012374D02*
X019550Y012374D01*
X019564Y012571D02*
X019426Y012571D01*
X019384Y012669D02*
X019606Y012669D01*
X019685Y012768D02*
X019305Y012768D01*
X019144Y012866D02*
X019847Y012866D01*
X019945Y012866D02*
X020045Y012866D01*
X020045Y012768D02*
X019945Y012768D01*
X019945Y012669D02*
X020045Y012669D01*
X020045Y012571D02*
X019945Y012571D01*
X020144Y012866D02*
X020385Y012866D01*
X020385Y012768D02*
X020305Y012768D01*
X020384Y012669D02*
X020385Y012669D01*
X020385Y012965D02*
X020177Y012965D01*
X020338Y013063D02*
X020385Y013063D01*
X019813Y012965D02*
X019177Y012965D01*
X019045Y012866D02*
X018945Y012866D01*
X018945Y012768D02*
X019045Y012768D01*
X019045Y012669D02*
X018945Y012669D01*
X018945Y012374D02*
X019045Y012374D01*
X019045Y012275D02*
X018945Y012275D01*
X018945Y012177D02*
X019045Y012177D01*
X019045Y012078D02*
X018945Y012078D01*
X018729Y012078D02*
X018503Y012078D01*
X018503Y011980D02*
X020385Y011980D01*
X020385Y012078D02*
X020261Y012078D01*
X020359Y012177D02*
X020385Y012177D01*
X020385Y011881D02*
X020266Y011881D01*
X020375Y011783D02*
X020385Y011783D01*
X019725Y011881D02*
X019266Y011881D01*
X019375Y011783D02*
X019615Y011783D01*
X019544Y011684D02*
X019447Y011684D01*
X019487Y011586D02*
X019503Y011586D01*
X019495Y011316D02*
X019563Y011153D01*
X019706Y011009D01*
X019870Y010942D01*
X019706Y010874D01*
X019563Y010730D01*
X019495Y010567D01*
X019428Y010730D01*
X019284Y010874D01*
X019121Y010942D01*
X019284Y011009D01*
X019428Y011153D01*
X019495Y011316D01*
X019485Y011290D02*
X019506Y011290D01*
X019547Y011192D02*
X019444Y011192D01*
X019368Y011093D02*
X019622Y011093D01*
X019741Y010995D02*
X019250Y010995D01*
X019230Y010896D02*
X019761Y010896D01*
X019630Y010798D02*
X019360Y010798D01*
X019440Y010699D02*
X019550Y010699D01*
X019509Y010601D02*
X019481Y010601D01*
X019495Y010316D02*
X019428Y010153D01*
X019284Y010009D01*
X019121Y009942D01*
X019284Y009874D01*
X019428Y009730D01*
X019495Y009567D01*
X019563Y009730D01*
X019706Y009874D01*
X019870Y009942D01*
X019706Y010009D01*
X019563Y010153D01*
X019495Y010316D01*
X019491Y010305D02*
X019500Y010305D01*
X019540Y010207D02*
X019450Y010207D01*
X019383Y010108D02*
X019607Y010108D01*
X019706Y010010D02*
X019285Y010010D01*
X019194Y009911D02*
X019797Y009911D01*
X019645Y009813D02*
X019345Y009813D01*
X019434Y009714D02*
X019556Y009714D01*
X019515Y009616D02*
X019475Y009616D01*
X019495Y009316D02*
X019428Y009153D01*
X019284Y009009D01*
X019121Y008942D01*
X019284Y008874D01*
X019428Y008730D01*
X019428Y008729D02*
X019562Y008729D01*
X019563Y008730D02*
X019495Y008567D01*
X019428Y008730D01*
X019469Y008631D02*
X019522Y008631D01*
X019563Y008730D02*
X019706Y008874D01*
X019870Y008942D01*
X019706Y009009D01*
X019563Y009153D01*
X019495Y009316D01*
X019456Y009222D02*
X019534Y009222D01*
X019592Y009123D02*
X019398Y009123D01*
X019300Y009025D02*
X019691Y009025D01*
X019833Y008926D02*
X019157Y008926D01*
X019330Y008828D02*
X019660Y008828D01*
X020121Y008942D02*
X020284Y009009D01*
X020385Y009110D01*
X020385Y008773D01*
X020284Y008874D01*
X020121Y008942D01*
X020157Y008926D02*
X020385Y008926D01*
X020385Y008828D02*
X020330Y008828D01*
X020300Y009025D02*
X020385Y009025D01*
X020385Y009773D02*
X020385Y010110D01*
X020284Y010009D01*
X020121Y009942D01*
X020284Y009874D01*
X020385Y009773D01*
X020385Y009813D02*
X020345Y009813D01*
X020385Y009911D02*
X020194Y009911D01*
X020285Y010010D02*
X020385Y010010D01*
X020383Y010108D02*
X020385Y010108D01*
X020385Y010773D02*
X020284Y010874D01*
X020121Y010942D01*
X020284Y011009D01*
X020385Y011110D01*
X020385Y010773D01*
X020385Y010798D02*
X020360Y010798D01*
X020385Y010896D02*
X020230Y010896D01*
X020250Y010995D02*
X020385Y010995D01*
X020385Y011093D02*
X020368Y011093D01*
X018870Y010942D02*
X018706Y010874D01*
X018563Y010730D01*
X018503Y010587D01*
X018503Y011297D01*
X018563Y011153D01*
X018706Y011009D01*
X018870Y010942D01*
X018761Y010896D02*
X018503Y010896D01*
X018503Y010798D02*
X018630Y010798D01*
X018550Y010699D02*
X018503Y010699D01*
X018503Y010601D02*
X018509Y010601D01*
X018503Y010995D02*
X018741Y010995D01*
X018622Y011093D02*
X018503Y011093D01*
X018503Y011192D02*
X018547Y011192D01*
X018506Y011290D02*
X018503Y011290D01*
X018503Y011684D02*
X018544Y011684D01*
X018503Y011783D02*
X018615Y011783D01*
X018725Y011881D02*
X018503Y011881D01*
X018503Y012177D02*
X018631Y012177D01*
X018576Y012275D02*
X018503Y012275D01*
X018503Y012374D02*
X018550Y012374D01*
X019338Y013063D02*
X019652Y013063D01*
X019559Y013162D02*
X019431Y013162D01*
X019472Y013260D02*
X019518Y013260D01*
X017968Y013823D02*
X017771Y014020D01*
X017535Y014020D01*
X017771Y014020D02*
X017771Y015359D01*
X017771Y017760D01*
X017850Y017839D01*
X017983Y018226D02*
X017931Y018247D01*
X017768Y018247D01*
X017754Y018241D01*
X017782Y018270D01*
X017853Y018441D01*
X017853Y019142D01*
X017782Y019314D01*
X017651Y019446D01*
X017479Y019517D01*
X017293Y019517D01*
X017121Y019446D01*
X017043Y019367D02*
X015619Y019367D01*
X015660Y019466D02*
X015660Y020902D01*
X015676Y020902D01*
X016165Y021391D01*
X016165Y022083D01*
X015747Y022500D01*
X016927Y022500D01*
X016523Y022097D01*
X016523Y021826D01*
X017248Y021826D01*
X017248Y021726D01*
X016523Y021726D01*
X016523Y021455D01*
X016977Y021001D01*
X017248Y021001D01*
X017248Y021726D01*
X017348Y021726D01*
X017348Y021001D01*
X017619Y021001D01*
X017983Y021365D01*
X017983Y018226D01*
X017983Y018284D02*
X017788Y018284D01*
X017829Y018382D02*
X017983Y018382D01*
X017983Y018481D02*
X017853Y018481D01*
X017853Y018579D02*
X017983Y018579D01*
X017983Y018678D02*
X017853Y018678D01*
X017853Y018776D02*
X017983Y018776D01*
X017983Y018875D02*
X017853Y018875D01*
X017853Y018973D02*
X017983Y018973D01*
X017983Y019072D02*
X017853Y019072D01*
X017842Y019170D02*
X017983Y019170D01*
X017983Y019269D02*
X017801Y019269D01*
X017729Y019367D02*
X017983Y019367D01*
X017983Y019466D02*
X017602Y019466D01*
X017983Y019564D02*
X015660Y019564D01*
X015660Y019663D02*
X017983Y019663D01*
X017983Y019761D02*
X015660Y019761D01*
X015660Y019860D02*
X017983Y019860D01*
X017983Y019958D02*
X015660Y019958D01*
X015660Y020057D02*
X017983Y020057D01*
X017983Y020155D02*
X015660Y020155D01*
X015660Y020254D02*
X017983Y020254D01*
X017983Y020352D02*
X015660Y020352D01*
X015660Y020451D02*
X017983Y020451D01*
X017983Y020549D02*
X015660Y020549D01*
X015660Y020648D02*
X017983Y020648D01*
X017983Y020746D02*
X015660Y020746D01*
X015660Y020845D02*
X017983Y020845D01*
X017983Y020943D02*
X015717Y020943D01*
X015816Y021042D02*
X016937Y021042D01*
X016838Y021140D02*
X015914Y021140D01*
X016013Y021239D02*
X016740Y021239D01*
X016641Y021337D02*
X016111Y021337D01*
X016165Y021436D02*
X016543Y021436D01*
X016523Y021534D02*
X016165Y021534D01*
X016165Y021633D02*
X016523Y021633D01*
X016523Y021830D02*
X016165Y021830D01*
X016165Y021929D02*
X016523Y021929D01*
X016523Y022027D02*
X016165Y022027D01*
X016122Y022126D02*
X016552Y022126D01*
X016650Y022224D02*
X016024Y022224D01*
X015925Y022323D02*
X016749Y022323D01*
X016847Y022421D02*
X015827Y022421D01*
X016165Y021731D02*
X017248Y021731D01*
X017298Y021776D02*
X016983Y021461D01*
X016983Y019729D01*
X016668Y019729D01*
X016983Y019729D02*
X016983Y017564D01*
X016983Y016107D01*
X016787Y016107D01*
X016983Y016107D02*
X016983Y014571D01*
X016747Y014571D01*
X016983Y014571D02*
X016983Y013548D01*
X016983Y010556D01*
X016983Y008666D01*
X015920Y007603D01*
X015920Y007091D01*
X015267Y007153D02*
X015120Y007153D01*
X015099Y007252D02*
X015267Y007252D01*
X015267Y007350D02*
X015056Y007350D01*
X014985Y007449D02*
X015267Y007449D01*
X015267Y007547D02*
X014861Y007547D01*
X014653Y007350D02*
X014553Y007350D01*
X014553Y007252D02*
X014653Y007252D01*
X014653Y006956D02*
X014553Y006956D01*
X014553Y006858D02*
X014653Y006858D01*
X014653Y006759D02*
X014553Y006759D01*
X014553Y006661D02*
X014653Y006661D01*
X013753Y005676D02*
X013653Y005676D01*
X013517Y005577D02*
X013889Y005577D01*
X012987Y005577D02*
X012616Y005577D01*
X012751Y005676D02*
X012852Y005676D01*
X012086Y005577D02*
X011714Y005577D01*
X011850Y005676D02*
X011950Y005676D01*
X013100Y004297D02*
X016368Y004297D01*
X016508Y004395D02*
X013408Y004395D01*
X011316Y003682D02*
X016430Y003682D01*
X016437Y003674D01*
X016587Y003612D01*
X016750Y003612D01*
X016900Y003674D01*
X016986Y003760D01*
X017941Y003760D01*
X018036Y003800D01*
X018512Y004276D01*
X018563Y004153D01*
X018706Y004009D01*
X018894Y003932D01*
X019097Y003932D01*
X019284Y004009D01*
X019428Y004153D01*
X019495Y004316D01*
X019563Y004153D01*
X019706Y004009D01*
X019894Y003932D01*
X020097Y003932D01*
X020284Y004009D01*
X020385Y004110D01*
X020385Y003668D01*
X020380Y003677D01*
X020338Y003735D01*
X020288Y003785D01*
X020231Y003826D01*
X020168Y003859D01*
X020101Y003880D01*
X020045Y003889D01*
X020045Y003492D01*
X019945Y003492D01*
X019945Y003889D01*
X019890Y003880D01*
X019823Y003859D01*
X019759Y003826D01*
X019702Y003785D01*
X019652Y003735D01*
X019610Y003677D01*
X019578Y003614D01*
X019556Y003547D01*
X019548Y003492D01*
X019945Y003492D01*
X019945Y003392D01*
X019548Y003392D01*
X019556Y003336D01*
X019557Y003335D01*
X019434Y003335D01*
X019434Y003336D01*
X019443Y003392D01*
X019045Y003392D01*
X019045Y003492D01*
X018945Y003492D01*
X018945Y003889D01*
X018890Y003880D01*
X018823Y003859D01*
X018759Y003826D01*
X018702Y003785D01*
X018652Y003735D01*
X018610Y003677D01*
X018578Y003614D01*
X018556Y003547D01*
X018548Y003492D01*
X018945Y003492D01*
X018945Y003392D01*
X018548Y003392D01*
X018556Y003336D01*
X018557Y003335D01*
X006503Y003335D01*
X006505Y003340D01*
X006505Y003543D01*
X006428Y003730D01*
X006284Y003874D01*
X006121Y003942D01*
X006284Y004009D01*
X006428Y004153D01*
X006440Y004182D01*
X006922Y004182D01*
X006913Y004173D01*
X006851Y004023D01*
X006851Y003860D01*
X006913Y003710D01*
X007028Y003596D01*
X007178Y003533D01*
X007340Y003533D01*
X007490Y003596D01*
X007576Y003682D01*
X010682Y003682D01*
X010768Y003596D01*
X010918Y003533D01*
X011080Y003533D01*
X011230Y003596D01*
X011316Y003682D01*
X011242Y003607D02*
X018576Y003607D01*
X018550Y003509D02*
X006505Y003509D01*
X006505Y003410D02*
X018945Y003410D01*
X018945Y003509D02*
X019045Y003509D01*
X019045Y003492D02*
X019045Y003889D01*
X019101Y003880D01*
X019168Y003859D01*
X019231Y003826D01*
X019288Y003785D01*
X019338Y003735D01*
X019380Y003677D01*
X019412Y003614D01*
X019434Y003547D01*
X019443Y003492D01*
X019045Y003492D01*
X019045Y003410D02*
X019945Y003410D01*
X019945Y003509D02*
X020045Y003509D01*
X020045Y003607D02*
X019945Y003607D01*
X019945Y003706D02*
X020045Y003706D01*
X020045Y003804D02*
X019945Y003804D01*
X019729Y003804D02*
X019261Y003804D01*
X019359Y003706D02*
X019631Y003706D01*
X019576Y003607D02*
X019415Y003607D01*
X019440Y003509D02*
X019550Y003509D01*
X019045Y003607D02*
X018945Y003607D01*
X018945Y003706D02*
X019045Y003706D01*
X019045Y003804D02*
X018945Y003804D01*
X018729Y003804D02*
X018041Y003804D01*
X018139Y003903D02*
X020385Y003903D01*
X020385Y004001D02*
X020265Y004001D01*
X020375Y004100D02*
X020385Y004100D01*
X020385Y003804D02*
X020261Y003804D01*
X020359Y003706D02*
X020385Y003706D01*
X019725Y004001D02*
X019265Y004001D01*
X019375Y004100D02*
X019616Y004100D01*
X019544Y004198D02*
X019447Y004198D01*
X019487Y004297D02*
X019503Y004297D01*
X019495Y004567D02*
X019428Y004730D01*
X019284Y004874D01*
X019121Y004942D01*
X019284Y005009D01*
X019428Y005153D01*
X019495Y005316D01*
X019563Y005153D01*
X019706Y005009D01*
X019870Y004942D01*
X019706Y004874D01*
X019563Y004730D01*
X019495Y004567D01*
X019485Y004592D02*
X019506Y004592D01*
X019547Y004691D02*
X019444Y004691D01*
X019369Y004789D02*
X019622Y004789D01*
X019740Y004888D02*
X019250Y004888D01*
X019229Y004986D02*
X019761Y004986D01*
X019631Y005085D02*
X019360Y005085D01*
X019440Y005183D02*
X019550Y005183D01*
X019509Y005282D02*
X019481Y005282D01*
X019495Y005567D02*
X019428Y005730D01*
X019284Y005874D01*
X019121Y005942D01*
X019284Y006009D01*
X019428Y006153D01*
X019495Y006316D01*
X019563Y006153D01*
X019706Y006009D01*
X019870Y005942D01*
X019706Y005874D01*
X019563Y005730D01*
X019495Y005567D01*
X019491Y005577D02*
X019500Y005577D01*
X019540Y005676D02*
X019450Y005676D01*
X019384Y005774D02*
X019607Y005774D01*
X019705Y005873D02*
X019285Y005873D01*
X019193Y005971D02*
X019798Y005971D01*
X019646Y006070D02*
X019345Y006070D01*
X019434Y006168D02*
X019556Y006168D01*
X019516Y006267D02*
X019475Y006267D01*
X019495Y006567D02*
X019428Y006730D01*
X019284Y006874D01*
X019121Y006942D01*
X019284Y007009D01*
X019428Y007153D01*
X019563Y007153D01*
X019706Y007009D01*
X019870Y006942D01*
X019706Y006874D01*
X019563Y006730D01*
X019495Y006567D01*
X019456Y006661D02*
X019534Y006661D01*
X019592Y006759D02*
X019399Y006759D01*
X019300Y006858D02*
X019690Y006858D01*
X019834Y006956D02*
X019157Y006956D01*
X019330Y007055D02*
X019661Y007055D01*
X019563Y007153D02*
X019495Y007316D01*
X019428Y007153D01*
X019469Y007252D02*
X019522Y007252D01*
X019495Y007567D02*
X019428Y007730D01*
X019284Y007874D01*
X019121Y007942D01*
X019284Y008009D01*
X019428Y008153D01*
X019495Y008316D01*
X019563Y008153D01*
X019706Y008009D01*
X019870Y007942D01*
X019706Y007874D01*
X019563Y007730D01*
X019495Y007567D01*
X019463Y007646D02*
X019528Y007646D01*
X019577Y007744D02*
X019414Y007744D01*
X019315Y007843D02*
X019675Y007843D01*
X019676Y008040D02*
X019315Y008040D01*
X019413Y008138D02*
X019577Y008138D01*
X019528Y008237D02*
X019463Y008237D01*
X019121Y007941D02*
X019869Y007941D01*
X020121Y007942D02*
X020284Y008009D01*
X020385Y008110D01*
X020385Y007773D01*
X020284Y007874D01*
X020121Y007942D01*
X020121Y007941D02*
X020385Y007941D01*
X020385Y007843D02*
X020315Y007843D01*
X020315Y008040D02*
X020385Y008040D01*
X020385Y007110D02*
X020385Y006773D01*
X020284Y006874D01*
X020121Y006942D01*
X020284Y007009D01*
X020385Y007110D01*
X020385Y007055D02*
X020330Y007055D01*
X020385Y006956D02*
X020157Y006956D01*
X020300Y006858D02*
X020385Y006858D01*
X020385Y006110D02*
X020385Y005773D01*
X020284Y005874D01*
X020121Y005942D01*
X020284Y006009D01*
X020385Y006110D01*
X020385Y006070D02*
X020345Y006070D01*
X020385Y005971D02*
X020193Y005971D01*
X020285Y005873D02*
X020385Y005873D01*
X020384Y005774D02*
X020385Y005774D01*
X020385Y005110D02*
X020385Y004773D01*
X020284Y004874D01*
X020121Y004942D01*
X020284Y005009D01*
X020385Y005110D01*
X020385Y005085D02*
X020360Y005085D01*
X020385Y004986D02*
X020229Y004986D01*
X020250Y004888D02*
X020385Y004888D01*
X020385Y004789D02*
X020369Y004789D01*
X018870Y004942D02*
X018779Y004904D01*
X018779Y004979D01*
X018870Y004942D01*
X018544Y004198D02*
X018435Y004198D01*
X018336Y004100D02*
X018616Y004100D01*
X018725Y004001D02*
X018238Y004001D01*
X017889Y004020D02*
X016668Y004020D01*
X016590Y003942D01*
X010999Y003942D01*
X007259Y003942D01*
X006883Y004100D02*
X006375Y004100D01*
X006265Y004001D02*
X006851Y004001D01*
X006851Y003903D02*
X006214Y003903D01*
X006354Y003804D02*
X006874Y003804D01*
X006917Y003706D02*
X006438Y003706D01*
X006479Y003607D02*
X007016Y003607D01*
X007502Y003607D02*
X010756Y003607D01*
X010147Y005676D02*
X006450Y005676D01*
X006384Y005774D02*
X010053Y005774D01*
X010012Y005873D02*
X006285Y005873D01*
X006193Y005971D02*
X007059Y005971D01*
X006888Y006070D02*
X006345Y006070D01*
X006434Y006168D02*
X006748Y006168D01*
X006649Y006267D02*
X006475Y006267D01*
X006505Y006365D02*
X006556Y006365D01*
X006358Y006800D02*
X006284Y006874D01*
X006121Y006942D01*
X006284Y007009D01*
X006322Y007047D01*
X006322Y006936D01*
X006358Y006800D01*
X006343Y006858D02*
X006300Y006858D01*
X006322Y006956D02*
X006157Y006956D01*
X005870Y006942D02*
X005747Y006992D01*
X005747Y006891D01*
X005870Y006942D01*
X005834Y006956D02*
X005747Y006956D01*
X005487Y006934D02*
X004995Y006442D01*
X004798Y005971D02*
X004763Y005971D01*
X004763Y005986D02*
X004870Y005942D01*
X004763Y005897D01*
X004763Y005986D01*
X004763Y006897D02*
X004763Y006986D01*
X004870Y006942D01*
X004763Y006897D01*
X004763Y006956D02*
X004834Y006956D01*
X005121Y006942D02*
X005126Y006940D01*
X005132Y006946D01*
X005121Y006942D01*
X005244Y007891D02*
X005121Y007942D01*
X005284Y008009D01*
X005428Y008153D01*
X005495Y008316D01*
X005544Y008197D01*
X005498Y008178D01*
X005399Y008079D01*
X005306Y007986D01*
X005267Y007947D01*
X005244Y007891D01*
X005265Y007941D02*
X005121Y007941D01*
X005306Y007986D02*
X005306Y007986D01*
X005315Y008040D02*
X005360Y008040D01*
X005413Y008138D02*
X005458Y008138D01*
X005463Y008237D02*
X005528Y008237D01*
X005495Y008567D02*
X005428Y008730D01*
X005428Y008729D02*
X005562Y008729D01*
X005563Y008730D02*
X005495Y008567D01*
X005469Y008631D02*
X005522Y008631D01*
X005563Y008730D02*
X005706Y008874D01*
X005870Y008942D01*
X005706Y009009D01*
X005563Y009153D01*
X005495Y009316D01*
X005428Y009153D01*
X005284Y009009D01*
X005121Y008942D01*
X005284Y008874D01*
X005428Y008730D01*
X005330Y008828D02*
X005660Y008828D01*
X005833Y008926D02*
X005157Y008926D01*
X005300Y009025D02*
X005691Y009025D01*
X005592Y009123D02*
X005398Y009123D01*
X005456Y009222D02*
X005534Y009222D01*
X005495Y009567D02*
X005500Y009579D01*
X005493Y009572D01*
X005495Y009567D01*
X004870Y008942D02*
X004763Y008897D01*
X004763Y008986D01*
X004870Y008942D01*
X004833Y008926D02*
X004763Y008926D01*
X004763Y007986D02*
X004763Y007897D01*
X004870Y007942D01*
X004763Y007986D01*
X004763Y007941D02*
X004869Y007941D01*
X006121Y008942D02*
X006126Y008940D01*
X006132Y008946D01*
X006121Y008942D01*
X006490Y009305D02*
X007889Y010703D01*
X007962Y010776D01*
X008058Y010816D01*
X009330Y010816D01*
X009272Y010840D01*
X009186Y010926D01*
X007918Y010926D01*
X006505Y009513D01*
X006505Y009340D01*
X006490Y009305D01*
X006497Y009320D02*
X006506Y009320D01*
X006505Y009419D02*
X006605Y009419D01*
X006510Y009517D02*
X006703Y009517D01*
X006608Y009616D02*
X006802Y009616D01*
X006707Y009714D02*
X006900Y009714D01*
X006805Y009813D02*
X006999Y009813D01*
X006904Y009911D02*
X007097Y009911D01*
X007002Y010010D02*
X007196Y010010D01*
X007101Y010108D02*
X007294Y010108D01*
X007199Y010207D02*
X007393Y010207D01*
X007298Y010305D02*
X007491Y010305D01*
X007396Y010404D02*
X007590Y010404D01*
X007495Y010502D02*
X007688Y010502D01*
X007593Y010601D02*
X007787Y010601D01*
X007692Y010699D02*
X007885Y010699D01*
X007790Y010798D02*
X008015Y010798D01*
X007889Y010896D02*
X009215Y010896D01*
X009228Y011487D02*
X007785Y011487D01*
X006967Y010710D02*
X006440Y010184D01*
X006505Y010340D01*
X006505Y010543D01*
X006445Y010689D01*
X006917Y010689D01*
X006967Y010710D01*
X006956Y010699D02*
X006941Y010699D01*
X006858Y010601D02*
X006481Y010601D01*
X006505Y010502D02*
X006759Y010502D01*
X006661Y010404D02*
X006505Y010404D01*
X006491Y010305D02*
X006562Y010305D01*
X006464Y010207D02*
X006450Y010207D01*
X006253Y009996D02*
X006176Y009919D01*
X006121Y009942D01*
X006253Y009996D01*
X007288Y008288D02*
X007307Y008288D01*
X007281Y008281D01*
X007288Y008288D01*
X006482Y007697D02*
X006458Y007656D01*
X006441Y007697D01*
X006482Y007697D01*
X008005Y005971D02*
X009971Y005971D01*
X009968Y006070D02*
X008176Y006070D01*
X008316Y006168D02*
X009968Y006168D01*
X009991Y006267D02*
X008415Y006267D01*
X010078Y008335D02*
X010086Y008335D01*
X010103Y008368D02*
X010151Y008434D01*
X010078Y008532D02*
X010264Y008532D01*
X010932Y007744D02*
X010980Y007744D01*
X011247Y007552D02*
X011334Y007516D01*
X011498Y007516D01*
X011406Y007424D01*
X011404Y007419D01*
X011393Y007434D01*
X011335Y007492D01*
X011269Y007540D01*
X011247Y007552D01*
X011255Y007547D02*
X011257Y007547D01*
X011378Y007449D02*
X011431Y007449D01*
X011832Y008532D02*
X011967Y008532D01*
X012091Y008631D02*
X011672Y008631D01*
X012611Y008631D02*
X012992Y008631D01*
X012992Y008616D02*
X012924Y008587D01*
X012802Y008465D01*
X012679Y008587D01*
X012611Y008616D01*
X012611Y008847D01*
X012992Y009228D01*
X012992Y008616D01*
X012992Y008729D02*
X012611Y008729D01*
X012611Y008828D02*
X012992Y008828D01*
X012992Y008926D02*
X012690Y008926D01*
X012789Y009025D02*
X012992Y009025D01*
X012992Y009123D02*
X012887Y009123D01*
X012986Y009222D02*
X012992Y009222D01*
X012869Y008532D02*
X012734Y008532D01*
X011235Y010477D02*
X011235Y017918D01*
X010864Y018087D02*
X007454Y018087D01*
X007401Y017988D02*
X010827Y017988D01*
X010827Y017890D02*
X007401Y017890D01*
X007401Y017791D02*
X010846Y017791D01*
X010887Y017693D02*
X007401Y017693D01*
X007401Y017594D02*
X010975Y017594D01*
X010975Y017496D02*
X007401Y017496D01*
X007401Y017397D02*
X010975Y017397D01*
X010975Y017299D02*
X007401Y017299D01*
X007401Y017200D02*
X010975Y017200D01*
X010975Y017102D02*
X007401Y017102D01*
X007401Y017003D02*
X010975Y017003D01*
X010975Y016905D02*
X007401Y016905D01*
X007452Y016806D02*
X010975Y016806D01*
X010975Y016708D02*
X007550Y016708D01*
X007600Y016609D02*
X010975Y016609D01*
X010975Y016511D02*
X007628Y016511D01*
X007628Y016412D02*
X010975Y016412D01*
X010975Y016314D02*
X007600Y016314D01*
X007551Y016215D02*
X010975Y016215D01*
X010975Y016117D02*
X007453Y016117D01*
X007220Y016461D02*
X007205Y016463D01*
X007190Y016467D01*
X007176Y016474D01*
X007164Y016484D01*
X007154Y016496D01*
X007147Y016510D01*
X007143Y016525D01*
X007141Y016540D01*
X007141Y018351D01*
X007514Y018185D02*
X010926Y018185D01*
X010741Y018579D02*
X011778Y018579D01*
X011778Y018678D02*
X011391Y018678D01*
X011490Y018776D02*
X012157Y018776D01*
X012157Y018678D02*
X012215Y018678D01*
X012215Y018579D02*
X012157Y018579D01*
X012157Y018481D02*
X012215Y018481D01*
X012215Y018382D02*
X012157Y018382D01*
X012157Y018284D02*
X012215Y018284D01*
X012215Y018185D02*
X012157Y018185D01*
X012398Y018185D02*
X013740Y018185D01*
X013740Y018284D02*
X012507Y018284D01*
X012565Y018382D02*
X013759Y018382D01*
X013812Y018481D02*
X012590Y018481D01*
X012593Y018579D02*
X013911Y018579D01*
X014009Y018678D02*
X012593Y018678D01*
X012215Y018875D02*
X012157Y018875D01*
X012157Y018973D02*
X012215Y018973D01*
X012215Y019072D02*
X012157Y019072D01*
X012157Y019170D02*
X012215Y019170D01*
X012215Y019269D02*
X012157Y019269D01*
X012157Y019367D02*
X012215Y019367D01*
X011930Y019367D02*
X011385Y019367D01*
X011485Y019269D02*
X011842Y019269D01*
X011797Y019170D02*
X011536Y019170D01*
X011565Y019072D02*
X011778Y019072D01*
X011778Y018973D02*
X011565Y018973D01*
X011538Y018875D02*
X011778Y018875D01*
X010922Y018678D02*
X010839Y018678D01*
X010855Y019367D02*
X010928Y019367D01*
X009805Y019958D02*
X008717Y019958D01*
X008618Y020057D02*
X009805Y020057D01*
X009805Y020155D02*
X008520Y020155D01*
X008421Y020254D02*
X009805Y020254D01*
X009776Y020352D02*
X008323Y020352D01*
X008224Y020451D02*
X009764Y020451D01*
X009779Y020549D02*
X008126Y020549D01*
X008027Y020648D02*
X009153Y020648D01*
X009070Y020701D02*
X008972Y020701D01*
X008933Y020711D01*
X008899Y020731D01*
X008883Y020747D01*
X008868Y020732D01*
X008693Y020659D01*
X008503Y020659D01*
X008327Y020732D01*
X008193Y020866D01*
X008214Y020845D02*
X007830Y020845D01*
X007929Y020746D02*
X008313Y020746D01*
X008883Y020746D02*
X008884Y020746D01*
X010481Y021731D02*
X010742Y021731D01*
X010607Y021830D02*
X010481Y021830D01*
X010481Y021929D02*
X010533Y021929D01*
X010491Y022027D02*
X010481Y022027D01*
X010481Y022275D02*
X010481Y022500D01*
X010598Y022500D01*
X010586Y022489D01*
X010541Y022427D01*
X010506Y022358D01*
X010482Y022285D01*
X010481Y022275D01*
X010481Y022323D02*
X010495Y022323D01*
X010481Y022421D02*
X010538Y022421D01*
X010910Y022027D02*
X011010Y022027D01*
X011010Y022120D02*
X011010Y021682D01*
X011074Y021692D01*
X011148Y021716D01*
X011216Y021751D01*
X011279Y021796D01*
X011333Y021851D01*
X011379Y021913D01*
X011414Y021982D01*
X011437Y022055D01*
X011448Y022120D01*
X011010Y022120D01*
X011010Y022126D02*
X012539Y022126D01*
X012436Y022224D02*
X011447Y022224D01*
X011425Y022323D02*
X012390Y022323D01*
X012372Y022421D02*
X011381Y022421D01*
X011428Y022027D02*
X014495Y022027D01*
X014424Y022091D02*
X014346Y022170D01*
X014424Y022091D02*
X014424Y019926D01*
X015336Y019072D02*
X016918Y019072D01*
X016918Y018973D02*
X015238Y018973D01*
X015139Y018875D02*
X016918Y018875D01*
X016918Y018776D02*
X015041Y018776D01*
X014942Y018678D02*
X016918Y018678D01*
X016918Y018579D02*
X014844Y018579D01*
X014745Y018481D02*
X016918Y018481D01*
X016943Y018382D02*
X014647Y018382D01*
X014548Y018284D02*
X016984Y018284D01*
X017074Y018185D02*
X014450Y018185D01*
X014400Y018087D02*
X017245Y018087D01*
X017470Y017988D02*
X014400Y017988D01*
X014400Y017890D02*
X017441Y017890D01*
X017441Y017791D02*
X014400Y017791D01*
X014400Y017693D02*
X017468Y017693D01*
X017511Y017594D02*
X014400Y017594D01*
X014400Y017496D02*
X017511Y017496D01*
X017511Y017397D02*
X014400Y017397D01*
X014400Y017299D02*
X017511Y017299D01*
X017511Y017200D02*
X014400Y017200D01*
X014400Y017102D02*
X017511Y017102D01*
X017511Y017003D02*
X014400Y017003D01*
X014400Y016905D02*
X017511Y016905D01*
X017511Y016806D02*
X014400Y016806D01*
X014400Y016708D02*
X015039Y016708D01*
X014943Y016609D02*
X014400Y016609D01*
X014400Y016511D02*
X014902Y016511D01*
X014882Y016412D02*
X014400Y016412D01*
X014400Y016314D02*
X014882Y016314D01*
X015542Y016708D02*
X017511Y016708D01*
X017511Y016609D02*
X015638Y016609D01*
X015679Y016511D02*
X017511Y016511D01*
X017511Y016412D02*
X015699Y016412D01*
X015727Y016314D02*
X017511Y016314D01*
X017511Y016215D02*
X015780Y016215D01*
X015787Y016117D02*
X017511Y016117D01*
X017511Y016018D02*
X015787Y016018D01*
X015787Y015920D02*
X017511Y015920D01*
X017511Y015821D02*
X015787Y015821D01*
X015787Y015723D02*
X017268Y015723D01*
X017144Y015624D02*
X015787Y015624D01*
X015787Y015526D02*
X017083Y015526D01*
X017048Y015427D02*
X015787Y015427D01*
X015787Y015329D02*
X017048Y015329D01*
X017067Y015230D02*
X015787Y015230D01*
X015787Y015132D02*
X017108Y015132D01*
X017204Y015033D02*
X015787Y015033D01*
X015787Y014935D02*
X017511Y014935D01*
X017511Y014836D02*
X015787Y014836D01*
X015787Y014738D02*
X017511Y014738D01*
X017511Y014639D02*
X015787Y014639D01*
X015787Y014541D02*
X017511Y014541D01*
X017511Y014442D02*
X015787Y014442D01*
X015787Y014344D02*
X017281Y014344D01*
X017186Y014245D02*
X015787Y014245D01*
X015787Y014147D02*
X017145Y014147D01*
X017127Y014048D02*
X015787Y014048D01*
X015787Y013950D02*
X017127Y013950D01*
X017163Y013851D02*
X015787Y013851D01*
X015787Y013753D02*
X017225Y013753D01*
X017351Y013654D02*
X015787Y013654D01*
X015787Y013556D02*
X017708Y013556D01*
X017708Y013457D02*
X015787Y013457D01*
X015787Y013359D02*
X017708Y013359D01*
X017708Y013260D02*
X015787Y013260D01*
X015787Y013162D02*
X017708Y013162D01*
X017708Y013063D02*
X015787Y013063D01*
X015787Y012965D02*
X017708Y012965D01*
X017708Y012866D02*
X015787Y012866D01*
X015787Y012768D02*
X017708Y012768D01*
X017708Y012669D02*
X015787Y012669D01*
X015787Y012571D02*
X017708Y012571D01*
X017708Y012472D02*
X015787Y012472D01*
X015787Y012374D02*
X017708Y012374D01*
X017708Y012275D02*
X015787Y012275D01*
X015787Y012177D02*
X017196Y012177D01*
X017054Y012078D02*
X015787Y012078D01*
X015787Y011980D02*
X016975Y011980D01*
X016934Y011881D02*
X015787Y011881D01*
X015787Y011783D02*
X016918Y011783D01*
X016918Y011684D02*
X015787Y011684D01*
X015787Y011586D02*
X016918Y011586D01*
X016918Y011487D02*
X015787Y011487D01*
X015787Y011389D02*
X016918Y011389D01*
X016918Y011290D02*
X015787Y011290D01*
X015787Y011192D02*
X016918Y011192D01*
X016938Y011093D02*
X015787Y011093D01*
X015787Y010995D02*
X016979Y010995D01*
X017063Y010896D02*
X015787Y010896D01*
X015787Y010798D02*
X017218Y010798D01*
X017554Y010798D02*
X017708Y010798D01*
X017708Y010699D02*
X015787Y010699D01*
X015787Y010601D02*
X017708Y010601D01*
X017708Y010502D02*
X015787Y010502D01*
X015787Y010404D02*
X017708Y010404D01*
X017708Y010305D02*
X015787Y010305D01*
X015787Y010207D02*
X017708Y010207D01*
X017621Y010108D02*
X015787Y010108D01*
X015787Y010010D02*
X017475Y010010D01*
X017405Y009911D02*
X015787Y009911D01*
X015787Y009813D02*
X017364Y009813D01*
X017363Y009714D02*
X015787Y009714D01*
X015787Y009616D02*
X017376Y009616D01*
X017417Y009517D02*
X015787Y009517D01*
X015787Y009419D02*
X017504Y009419D01*
X017771Y009729D02*
X017968Y009926D01*
X017968Y013823D01*
X017771Y015359D02*
X017456Y015359D01*
X018503Y015587D02*
X018503Y016297D01*
X018563Y016153D01*
X018706Y016009D01*
X018870Y015942D01*
X018706Y015874D01*
X018563Y015730D01*
X018503Y015587D01*
X018503Y015624D02*
X018519Y015624D01*
X018503Y015723D02*
X018560Y015723D01*
X018503Y015821D02*
X018654Y015821D01*
X018503Y015920D02*
X018818Y015920D01*
X018697Y016018D02*
X018503Y016018D01*
X018503Y016117D02*
X018599Y016117D01*
X018537Y016215D02*
X018503Y016215D01*
X018503Y017587D02*
X018503Y018297D01*
X018563Y018153D01*
X018706Y018009D01*
X018870Y017942D01*
X018706Y017874D01*
X018563Y017730D01*
X018503Y017587D01*
X018503Y017594D02*
X018507Y017594D01*
X018503Y017693D02*
X018547Y017693D01*
X018503Y017791D02*
X018624Y017791D01*
X018503Y017890D02*
X018745Y017890D01*
X018756Y017988D02*
X018503Y017988D01*
X018503Y018087D02*
X018629Y018087D01*
X018549Y018185D02*
X018503Y018185D01*
X018503Y018284D02*
X018508Y018284D01*
X018503Y018587D02*
X018503Y019297D01*
X018563Y019153D01*
X018706Y019009D01*
X018870Y018942D01*
X018706Y018874D01*
X018563Y018730D01*
X018503Y018587D01*
X018503Y018678D02*
X018541Y018678D01*
X018503Y018776D02*
X018609Y018776D01*
X018709Y018875D02*
X018503Y018875D01*
X018503Y018973D02*
X018793Y018973D01*
X018644Y019072D02*
X018503Y019072D01*
X018503Y019170D02*
X018556Y019170D01*
X018515Y019269D02*
X018503Y019269D01*
X018503Y019587D02*
X018503Y020297D01*
X018563Y020153D01*
X018706Y020009D01*
X018870Y019942D01*
X018706Y019874D01*
X018563Y019730D01*
X018503Y019587D01*
X018503Y019663D02*
X018535Y019663D01*
X018503Y019761D02*
X018594Y019761D01*
X018503Y019860D02*
X018692Y019860D01*
X018829Y019958D02*
X018503Y019958D01*
X018503Y020057D02*
X018659Y020057D01*
X018562Y020155D02*
X018503Y020155D01*
X018503Y020254D02*
X018521Y020254D01*
X018503Y020587D02*
X018503Y021297D01*
X018563Y021153D01*
X018706Y021009D01*
X018870Y020942D01*
X018706Y020874D01*
X018563Y020730D01*
X018503Y020587D01*
X018503Y020648D02*
X018529Y020648D01*
X018503Y020746D02*
X018579Y020746D01*
X018503Y020845D02*
X018677Y020845D01*
X018674Y021042D02*
X018503Y021042D01*
X018503Y021140D02*
X018575Y021140D01*
X018527Y021239D02*
X018503Y021239D01*
X018503Y020943D02*
X018865Y020943D01*
X019125Y020943D02*
X019865Y020943D01*
X020121Y020942D02*
X020284Y021009D01*
X020385Y021110D01*
X020385Y020773D01*
X020284Y020874D01*
X020121Y020942D01*
X020125Y020943D02*
X020385Y020943D01*
X020385Y020845D02*
X020313Y020845D01*
X020317Y021042D02*
X020385Y021042D01*
X020385Y020110D02*
X020385Y019773D01*
X020284Y019874D01*
X020121Y019942D01*
X020284Y020009D01*
X020385Y020110D01*
X020385Y020057D02*
X020332Y020057D01*
X020385Y019958D02*
X020162Y019958D01*
X020298Y019860D02*
X020385Y019860D01*
X020385Y019110D02*
X020385Y018773D01*
X020284Y018874D01*
X020121Y018942D01*
X020284Y019009D01*
X020385Y019110D01*
X020385Y019072D02*
X020347Y019072D01*
X020385Y018973D02*
X020198Y018973D01*
X020282Y018875D02*
X020385Y018875D01*
X020382Y018776D02*
X020385Y018776D01*
X020385Y018110D02*
X020385Y017773D01*
X020284Y017874D01*
X020121Y017942D01*
X020284Y018009D01*
X020385Y018110D01*
X020385Y018087D02*
X020362Y018087D01*
X020385Y017988D02*
X020234Y017988D01*
X020245Y017890D02*
X020385Y017890D01*
X020385Y017791D02*
X020367Y017791D01*
X020385Y017110D02*
X020385Y016773D01*
X020284Y016874D01*
X020121Y016942D01*
X020284Y017009D01*
X020385Y017110D01*
X020385Y017102D02*
X020377Y017102D01*
X020385Y017003D02*
X020270Y017003D01*
X020209Y016905D02*
X020385Y016905D01*
X020385Y016806D02*
X020352Y016806D01*
X020385Y016110D02*
X020385Y015773D01*
X020284Y015874D01*
X020121Y015942D01*
X020284Y016009D01*
X020385Y016110D01*
X020385Y016018D02*
X020293Y016018D01*
X020385Y015920D02*
X020173Y015920D01*
X020337Y015821D02*
X020385Y015821D01*
X016930Y019170D02*
X015435Y019170D01*
X015533Y019269D02*
X016971Y019269D01*
X017248Y021042D02*
X017348Y021042D01*
X017348Y021140D02*
X017248Y021140D01*
X017248Y021239D02*
X017348Y021239D01*
X017348Y021337D02*
X017248Y021337D01*
X017248Y021436D02*
X017348Y021436D01*
X017348Y021534D02*
X017248Y021534D01*
X017248Y021633D02*
X017348Y021633D01*
X017298Y021776D02*
X017964Y022442D01*
X018995Y022442D01*
X018945Y022421D02*
X017750Y022421D01*
X017670Y022500D02*
X018073Y022097D01*
X018073Y021974D01*
X018220Y022120D01*
X018293Y022193D01*
X018388Y022233D01*
X018545Y022233D01*
X018545Y022392D01*
X018945Y022392D01*
X018945Y022492D01*
X018545Y022492D01*
X018545Y022500D01*
X017670Y022500D01*
X017848Y022323D02*
X018545Y022323D01*
X018367Y022224D02*
X017947Y022224D01*
X018045Y022126D02*
X018225Y022126D01*
X018126Y022027D02*
X018073Y022027D01*
X018503Y021669D02*
X018503Y021587D01*
X018556Y021713D01*
X018548Y021713D01*
X018503Y021669D01*
X018503Y021633D02*
X018523Y021633D01*
X017983Y021337D02*
X017956Y021337D01*
X017983Y021239D02*
X017857Y021239D01*
X017759Y021140D02*
X017983Y021140D01*
X017983Y021042D02*
X017660Y021042D01*
X019045Y022392D02*
X019045Y022492D01*
X019445Y022492D01*
X019445Y022500D01*
X019485Y022500D01*
X019485Y022340D01*
X019497Y022311D01*
X019445Y022259D01*
X019445Y022392D01*
X019045Y022392D01*
X019045Y022421D02*
X019485Y022421D01*
X019493Y022323D02*
X019445Y022323D01*
X014833Y022421D02*
X013107Y022421D01*
X013088Y022323D02*
X014735Y022323D01*
X014636Y022224D02*
X013043Y022224D01*
X012939Y022126D02*
X014538Y022126D01*
X014495Y021929D02*
X011386Y021929D01*
X011312Y021830D02*
X014495Y021830D01*
X014495Y021731D02*
X012940Y021731D01*
X013043Y021633D02*
X014495Y021633D01*
X014495Y021534D02*
X013088Y021534D01*
X013107Y021436D02*
X014495Y021436D01*
X014548Y021337D02*
X013104Y021337D01*
X013063Y021239D02*
X014647Y021239D01*
X014745Y021140D02*
X012983Y021140D01*
X012539Y021731D02*
X011178Y021731D01*
X011010Y021731D02*
X010910Y021731D01*
X010910Y021830D02*
X011010Y021830D01*
X011010Y021929D02*
X010910Y021929D01*
X006828Y018087D02*
X006362Y018087D01*
X006505Y018185D02*
X006768Y018185D01*
X006733Y018284D02*
X006654Y018284D01*
X006411Y018776D02*
X006382Y018776D01*
X006282Y018875D02*
X006510Y018875D01*
X006045Y017791D02*
X005945Y017791D01*
X005945Y017693D02*
X006045Y017693D01*
X006045Y017594D02*
X005945Y017594D01*
X005945Y017496D02*
X006045Y017496D01*
X006376Y017200D02*
X006881Y017200D01*
X006881Y017102D02*
X006292Y017102D01*
X006465Y014639D02*
X010414Y014639D01*
X010455Y014541D02*
X010323Y014541D01*
X010446Y014442D02*
X010551Y014442D01*
X009943Y014541D02*
X009338Y014541D01*
X009461Y014442D02*
X009821Y014442D01*
X011495Y014442D02*
X012550Y014442D01*
X012550Y014344D02*
X011495Y014344D01*
X011495Y014245D02*
X012550Y014245D01*
X012550Y014147D02*
X011495Y014147D01*
X011495Y014048D02*
X012550Y014048D01*
X012550Y013950D02*
X011495Y013950D01*
X011495Y013851D02*
X012550Y013851D01*
X012550Y013753D02*
X011495Y013753D01*
X011495Y013654D02*
X012550Y013654D01*
X012550Y013556D02*
X011495Y013556D01*
X011495Y013457D02*
X012550Y013457D01*
X012550Y013359D02*
X011495Y013359D01*
X011495Y013260D02*
X012550Y013260D01*
X012550Y013162D02*
X011495Y013162D01*
X011495Y014541D02*
X012550Y014541D01*
X012550Y014639D02*
X011495Y014639D01*
X011495Y014738D02*
X012550Y014738D01*
X012550Y014836D02*
X011495Y014836D01*
X011495Y014935D02*
X012512Y014935D01*
X012286Y015033D02*
X011495Y015033D01*
X011495Y015132D02*
X012106Y015132D01*
X012351Y015411D02*
X012377Y015438D01*
X012426Y012078D02*
X012550Y012078D01*
X012550Y011980D02*
X012522Y011980D01*
X015787Y009320D02*
X017983Y009320D01*
X017983Y009222D02*
X015787Y009222D01*
X015787Y009123D02*
X017983Y009123D01*
X017983Y009025D02*
X015787Y009025D01*
X015787Y008926D02*
X017983Y008926D01*
X017983Y008828D02*
X015787Y008828D01*
X015787Y008729D02*
X017894Y008729D01*
X018503Y008729D02*
X018562Y008729D01*
X018563Y008730D02*
X018503Y008587D01*
X018503Y009297D01*
X018563Y009153D01*
X018706Y009009D01*
X018870Y008942D01*
X018706Y008874D01*
X018563Y008730D01*
X018522Y008631D02*
X018503Y008631D01*
X018503Y008828D02*
X018660Y008828D01*
X018503Y008926D02*
X018833Y008926D01*
X018691Y009025D02*
X018503Y009025D01*
X018503Y009123D02*
X018592Y009123D01*
X018534Y009222D02*
X018503Y009222D01*
X018503Y009587D02*
X018503Y010297D01*
X018563Y010153D01*
X018706Y010009D01*
X018870Y009942D01*
X018706Y009874D01*
X018563Y009730D01*
X018503Y009587D01*
X018503Y009616D02*
X018515Y009616D01*
X018503Y009714D02*
X018556Y009714D01*
X018503Y009813D02*
X018645Y009813D01*
X018503Y009911D02*
X018797Y009911D01*
X018706Y010010D02*
X018503Y010010D01*
X018503Y010108D02*
X018607Y010108D01*
X018540Y010207D02*
X018503Y010207D01*
X016983Y010556D02*
X016905Y010477D01*
X017575Y012177D02*
X017708Y012177D01*
X018779Y007979D02*
X018870Y007942D01*
X018779Y007904D01*
X018779Y007979D01*
X018779Y007941D02*
X018869Y007941D01*
X018779Y006979D02*
X018870Y006942D01*
X018779Y006904D01*
X018779Y006979D01*
X018779Y006956D02*
X018834Y006956D01*
X018779Y005979D02*
X018870Y005942D01*
X018779Y005904D01*
X018779Y005979D01*
X018779Y005971D02*
X018798Y005971D01*
X018631Y003706D02*
X016931Y003706D01*
X006723Y012537D02*
X006490Y012305D01*
X006505Y012340D01*
X006505Y012543D01*
X006493Y012572D01*
X006723Y012802D01*
X006723Y012537D01*
X006723Y012571D02*
X006494Y012571D01*
X006505Y012472D02*
X006658Y012472D01*
X006560Y012374D02*
X006505Y012374D01*
X006591Y012669D02*
X006723Y012669D01*
X006723Y012768D02*
X006689Y012768D01*
X006467Y013635D02*
X006513Y013682D01*
X006448Y013682D01*
X006467Y013635D01*
X006459Y013654D02*
X006486Y013654D01*
X006505Y014344D02*
X006546Y014344D01*
X006505Y014442D02*
X006651Y014442D01*
X006505Y014541D02*
X008029Y014541D01*
X005556Y014170D02*
X005537Y014162D01*
X005340Y013965D01*
X005267Y013892D01*
X005263Y013883D01*
X005121Y013942D01*
X005284Y014009D01*
X005428Y014153D01*
X005495Y014316D01*
X005556Y014170D01*
X005522Y014147D02*
X005422Y014147D01*
X005423Y014048D02*
X005323Y014048D01*
X005325Y013950D02*
X005141Y013950D01*
X004870Y013942D02*
X004763Y013897D01*
X004763Y013986D01*
X004870Y013942D01*
X004849Y013950D02*
X004763Y013950D01*
X005466Y014245D02*
X005524Y014245D01*
X006132Y011946D02*
X006126Y011940D01*
X006121Y011942D01*
X006132Y011946D01*
X004763Y004986D02*
X004763Y004897D01*
X004870Y004942D01*
X004763Y004986D01*
X004763Y021929D02*
X004838Y021929D01*
D11*
X004995Y021442D03*
X005995Y021442D03*
X005995Y022442D03*
X005995Y020442D03*
X004995Y020442D03*
X004995Y019442D03*
X005995Y019442D03*
X005995Y018442D03*
X004995Y018442D03*
X004995Y017442D03*
X005995Y017442D03*
X005995Y016442D03*
X004995Y016442D03*
X004995Y015442D03*
X005995Y015442D03*
X005995Y014442D03*
X004995Y014442D03*
X004995Y013442D03*
X005995Y013442D03*
X005995Y012442D03*
X004995Y012442D03*
X004995Y011442D03*
X005995Y011442D03*
X005995Y010442D03*
X004995Y010442D03*
X004995Y009442D03*
X005995Y009442D03*
X005995Y008442D03*
X004995Y008442D03*
X004995Y007442D03*
X005995Y007442D03*
X005995Y006442D03*
X004995Y006442D03*
X004995Y005442D03*
X005995Y005442D03*
X005995Y004442D03*
X004995Y004442D03*
X004995Y003442D03*
X005995Y003442D03*
X018995Y003442D03*
X018995Y004442D03*
X019995Y004442D03*
X019995Y003442D03*
X019995Y005442D03*
X019995Y006442D03*
X019995Y007442D03*
X019995Y008442D03*
X018995Y008442D03*
X018995Y007442D03*
X018995Y006442D03*
X018995Y005442D03*
X018995Y009442D03*
X018995Y010442D03*
X018995Y011442D03*
X019995Y011442D03*
X019995Y010442D03*
X019995Y009442D03*
X019995Y012442D03*
X019995Y013442D03*
X019995Y014442D03*
X019995Y015442D03*
X018995Y015442D03*
X018995Y014442D03*
X018995Y013442D03*
X018995Y012442D03*
X018995Y016442D03*
X018995Y017442D03*
X018995Y018442D03*
X018995Y019442D03*
X019995Y019442D03*
X019995Y018442D03*
X019995Y017442D03*
X019995Y016442D03*
X019995Y020442D03*
X019995Y021442D03*
X019995Y022442D03*
X018995Y021442D03*
X018995Y020442D03*
D12*
X018995Y022442D03*
X004995Y022442D03*
D13*
X012582Y022440D02*
X012584Y022465D01*
X012590Y022489D01*
X012599Y022511D01*
X012612Y022532D01*
X012628Y022551D01*
X012647Y022567D01*
X012668Y022580D01*
X012690Y022589D01*
X012714Y022595D01*
X012739Y022597D01*
X012764Y022595D01*
X012788Y022589D01*
X012810Y022580D01*
X012831Y022567D01*
X012850Y022551D01*
X012866Y022532D01*
X012879Y022511D01*
X012888Y022489D01*
X012894Y022465D01*
X012896Y022440D01*
X012894Y022415D01*
X012888Y022391D01*
X012879Y022369D01*
X012866Y022348D01*
X012850Y022329D01*
X012831Y022313D01*
X012810Y022300D01*
X012788Y022291D01*
X012764Y022285D01*
X012739Y022283D01*
X012714Y022285D01*
X012690Y022291D01*
X012668Y022300D01*
X012647Y022313D01*
X012628Y022329D01*
X012612Y022348D01*
X012599Y022369D01*
X012590Y022391D01*
X012584Y022415D01*
X012582Y022440D01*
X012582Y021417D02*
X012584Y021442D01*
X012590Y021466D01*
X012599Y021488D01*
X012612Y021509D01*
X012628Y021528D01*
X012647Y021544D01*
X012668Y021557D01*
X012690Y021566D01*
X012714Y021572D01*
X012739Y021574D01*
X012764Y021572D01*
X012788Y021566D01*
X012810Y021557D01*
X012831Y021544D01*
X012850Y021528D01*
X012866Y021509D01*
X012879Y021488D01*
X012888Y021466D01*
X012894Y021442D01*
X012896Y021417D01*
X012894Y021392D01*
X012888Y021368D01*
X012879Y021346D01*
X012866Y021325D01*
X012850Y021306D01*
X012831Y021290D01*
X012810Y021277D01*
X012788Y021268D01*
X012764Y021262D01*
X012739Y021260D01*
X012714Y021262D01*
X012690Y021268D01*
X012668Y021277D01*
X012647Y021290D01*
X012628Y021306D01*
X012612Y021325D01*
X012599Y021346D01*
X012590Y021368D01*
X012584Y021392D01*
X012582Y021417D01*
D14*
X012351Y008096D03*
X011449Y008096D03*
X010548Y008096D03*
X010996Y007096D03*
X011898Y007096D03*
X012800Y007096D03*
X013701Y007096D03*
X014603Y007096D03*
X014154Y008096D03*
X013252Y008096D03*
X013252Y006096D03*
X012351Y006096D03*
X011449Y006096D03*
X010548Y006096D03*
X014154Y006096D03*
D15*
X017374Y007096D03*
X007532Y007096D03*
D16*
X009070Y021117D03*
X009326Y021117D03*
X009582Y021117D03*
X009838Y021117D03*
X010094Y021117D03*
D17*
X009976Y022170D03*
X009188Y022166D03*
D18*
X008204Y022170D03*
X010960Y022170D03*
D19*
X010566Y021136D03*
X008598Y021136D03*
D20*
X012186Y019049D02*
X012186Y018534D01*
X017386Y018534D02*
X017386Y019049D01*
X017386Y011749D02*
X017386Y011234D01*
X012186Y011234D02*
X012186Y011749D01*
D21*
X010330Y019011D03*
X010330Y019611D03*
X010330Y020211D03*
D22*
X015330Y021737D03*
X017298Y021776D03*
D23*
X016668Y019729D03*
X017850Y017839D03*
X016983Y017564D03*
X016787Y016107D03*
X017456Y015359D03*
X016747Y014571D03*
X017535Y014020D03*
X016983Y013548D03*
X014070Y012642D03*
X013243Y012957D03*
X012377Y015438D03*
X010802Y014768D03*
X010133Y014178D03*
X009149Y014178D03*
X008283Y014217D03*
X007220Y016461D03*
X005527Y016973D03*
X007141Y018351D03*
X007102Y020516D03*
X011157Y019020D03*
X011235Y017918D03*
X011983Y017524D03*
X014424Y019926D03*
X014346Y022170D03*
X018479Y016894D03*
X015291Y016383D03*
X010487Y011186D03*
X009503Y011186D03*
X007377Y011461D03*
X009188Y008548D03*
X013165Y004729D03*
X010999Y003942D03*
X007259Y003942D03*
X015527Y005910D03*
X015920Y007091D03*
X018046Y008351D03*
X017771Y009729D03*
X016905Y010477D03*
X016668Y004020D03*
D24*
X014070Y012642D02*
X014070Y018272D01*
X015330Y019532D01*
X015330Y021737D01*
X011157Y019020D02*
X010339Y019020D01*
X010330Y019011D01*
X010330Y019611D02*
X008598Y019611D01*
X007495Y020713D01*
X007495Y022012D01*
X007066Y022442D01*
X005995Y022442D01*
X010094Y020447D02*
X010330Y020211D01*
D25*
X010094Y020447D02*
X010094Y021117D01*
M02*
